<svg xmlns="http://www.w3.org/2000/svg" width="64" height="80" viewBox="0 0 64 80">
  <defs>
    <style>
      .cls-1 {
        fill: #1ad576;
        fill-rule: evenodd;
      }
    </style>
  </defs>
  <path id="documentation_icon" data-name="documentation icon" class="cls-1" d="M3313.13,2472.92h-30.19a1.23,1.23,0,0,0,0,2.46h30.19A1.23,1.23,0,0,0,3313.13,2472.92Zm-30.19-7.38h12.08a1.23,1.23,0,0,0,0-2.46h-12.08A1.23,1.23,0,0,0,3282.94,2465.54Zm27.78,17.23h-27.78a1.23,1.23,0,0,0,0,2.46h27.78A1.23,1.23,0,0,0,3310.72,2482.77Zm2.41,9.85h-30.19a1.23,1.23,0,0,0,0,2.46h30.19A1.23,1.23,0,0,0,3313.13,2492.62Zm-4.83,9.84h-25.36a1.23,1.23,0,0,0,0,2.46h25.36A1.23,1.23,0,0,0,3308.3,2502.46Zm9.66-42.35v-17.96h-51.92v67.7h6.04V2516H3324v-49.74Zm-10.87-7.6,10.87,11.08,1.92,1.95h-12.79v-13.03Zm-38.64,54.87v-62.76h47.1v13.02l-9.16-9.33h-34.31v59.07h-3.63Zm6.04,6.16v-62.77h30.19V2468h16.9v45.54h-47.09Zm-8.45-9.85H3260V2436h51.92v8.62h-2.41v-6.16h-47.1v62.77h3.63v2.46Z" transform="translate(-3260 -2436)"/>
</svg>
