<svg xmlns="http://www.w3.org/2000/svg" width="80.5" height="80.5" viewBox="0 0 80.5 80.5">
  <defs>
    <style>
      .cls-1 {
        fill: #1ad576;
        stroke: #fff;
        stroke-linecap: round;
        stroke-linejoin: round;
        stroke-width: 0.5px;
        fill-rule: evenodd;
      }
    </style>
  </defs>
  <path id="management_icona" data-name="management icona" class="cls-1" d="M2817.44,2467.03h-3.08a21.394,21.394,0,0,1-1.93,4.67l2.17,2.17a1.563,1.563,0,0,1,0,2.21l-1.85,1.86v20.33a5.555,5.555,0,0,1-5.55,5.54h-23.83l3,9.06h3.3a1.565,1.565,0,0,1,0,3.13h-27.59a1.565,1.565,0,0,1,0-3.13h3.29l3-9.06h-23.82a5.555,5.555,0,0,1-5.55-5.54v-45.16a5.557,5.557,0,0,1,5.55-5.55h27.92a1.635,1.635,0,0,1,.46-1.18l5.99-5.98a1.527,1.527,0,0,1,1.1-.46,1.55,1.55,0,0,1,1.11.46l2.17,2.17a21.394,21.394,0,0,1,4.67-1.93v-3.08a1.562,1.562,0,0,1,1.56-1.56H2798a1.562,1.562,0,0,1,1.56,1.56v3.09a21.115,21.115,0,0,1,4.66,1.93l2.19-2.18a1.527,1.527,0,0,1,1.1-.46,1.567,1.567,0,0,1,1.11.46l5.98,5.98a1.563,1.563,0,0,1,0,2.21l-2.18,2.19a21.115,21.115,0,0,1,1.93,4.66h3.09A1.562,1.562,0,0,1,2819,2457v8.47A1.562,1.562,0,0,1,2817.44,2467.03Zm-34.19,45.84-3-9.06h-8.75l-3,9.06h14.75Zm-41.13-14.6a2.431,2.431,0,0,0,2.43,2.42h62.65a2.422,2.422,0,0,0,2.42-2.42v-4.72h-67.5v4.72Zm32.9-47.58h-30.47a2.424,2.424,0,0,0-2.43,2.42v37.32h67.5v-9.37l-1,1.01a1.563,1.563,0,0,1-2.21,0l-2.17-2.17a20.56,20.56,0,0,1-4.68,1.94v3.07a1.562,1.562,0,0,1-1.56,1.56h-8.47a1.562,1.562,0,0,1-1.56-1.56v-3.06a21.3,21.3,0,0,1-4.68-1.94l-2.16,2.16a1.563,1.563,0,0,1-2.21,0l-5.99-5.99a1.551,1.551,0,0,1-.43-1.42l2.49-3.13a20.764,20.764,0,0,1-1.84-4.5h-3.06a1.548,1.548,0,0,1-1.49-1.12l-0.07-3.13V2457a1.562,1.562,0,0,1,1.56-1.56h3.07a20.56,20.56,0,0,1,1.94-4.68Zm40.85,7.87h-2.74a1.571,1.571,0,0,1-1.53-1.23,18.161,18.161,0,0,0-2.46-5.95,1.559,1.559,0,0,1,.21-1.95l1.94-1.94-3.78-3.78-1.94,1.94a1.559,1.559,0,0,1-1.95.21,18.4,18.4,0,0,0-5.95-2.47,1.552,1.552,0,0,1-1.23-1.52v-2.75h-5.35v2.74a1.563,1.563,0,0,1-1.23,1.53,18.213,18.213,0,0,0-5.96,2.46,1.559,1.559,0,0,1-1.95-.21l-1.93-1.93-3.78,3.78,1.93,1.93a1.559,1.559,0,0,1,.21,1.95,18.256,18.256,0,0,0-2.48,5.96,1.555,1.555,0,0,1-1.53,1.23h-2.71v5.35h2.71a1.563,1.563,0,0,1,1.53,1.23,17.985,17.985,0,0,0,2.47,5.97,1.559,1.559,0,0,1-.21,1.95l-1.92,1.92,3.78,3.78,1.92-1.92a1.559,1.559,0,0,1,1.95-.21,17.985,17.985,0,0,0,5.97,2.47,1.563,1.563,0,0,1,1.23,1.53v2.71h5.35v-2.72a1.552,1.552,0,0,1,1.23-1.52,18.256,18.256,0,0,0,5.96-2.48,1.559,1.559,0,0,1,1.95.21l1.93,1.93,3.78-3.78-1.93-1.93a1.559,1.559,0,0,1-.21-1.95,18.213,18.213,0,0,0,2.46-5.96,1.563,1.563,0,0,1,1.53-1.23h2.73v-5.35Zm-22.1,13.58a10.9,10.9,0,1,1,10.9-10.9A10.913,10.913,0,0,1,2793.77,2472.14Zm0-18.67a7.765,7.765,0,1,0,7.77,7.77A7.784,7.784,0,0,0,2793.77,2453.47Zm-17.89,45-1.57-1.56A1.565,1.565,0,1,1,2775.88,2498.47Z" transform="translate(-2738.75 -2435.75)"/>
</svg>
