<svg fill="none" height="450" viewBox="0 0 450 450" width="450" xmlns="http://www.w3.org/2000/svg" xmlns:xlink="http://www.w3.org/1999/xlink"><filter id="a" color-interpolation-filters="sRGB" filterUnits="userSpaceOnUse" height="99.4837" width="99.4837" x="114.623" y="43.1097"><feFlood flood-opacity="0" result="BackgroundImageFix"/><feColorMatrix in="SourceAlpha" type="matrix" values="0 0 0 0 0 0 0 0 0 0 0 0 0 0 0 0 0 0 127 0"/><feOffset dy="11.8948"/><feGaussianBlur stdDeviation="10.8134"/><feColorMatrix type="matrix" values="0 0 0 0 0.0196078 0 0 0 0 0.0431373 0 0 0 0 0.215686 0 0 0 0.07 0"/><feBlend in2="BackgroundImageFix" mode="normal" result="effect1_dropShadow"/><feBlend in="SourceGraphic" in2="effect1_dropShadow" mode="normal" result="shape"/></filter><filter id="b" color-interpolation-filters="sRGB" filterUnits="userSpaceOnUse" height="99.2873" width="99.5653" x="360.088" y="206.393"><feFlood flood-opacity="0" result="BackgroundImageFix"/><feColorMatrix in="SourceAlpha" type="matrix" values="0 0 0 0 0 0 0 0 0 0 0 0 0 0 0 0 0 0 127 0"/><feOffset dy="11.8948"/><feGaussianBlur stdDeviation="10.8134"/><feColorMatrix type="matrix" values="0 0 0 0 0.0196078 0 0 0 0 0.0431373 0 0 0 0 0.215686 0 0 0 0.07 0"/><feBlend in2="BackgroundImageFix" mode="normal" result="effect1_dropShadow"/><feBlend in="SourceGraphic" in2="effect1_dropShadow" mode="normal" result="shape"/></filter><filter id="c" color-interpolation-filters="sRGB" filterUnits="userSpaceOnUse" height="97.5037" width="98.1708" x="81.4864" y="271.274"><feFlood flood-opacity="0" result="BackgroundImageFix"/><feColorMatrix in="SourceAlpha" type="matrix" values="0 0 0 0 0 0 0 0 0 0 0 0 0 0 0 0 0 0 127 0"/><feOffset dy="11.8948"/><feGaussianBlur stdDeviation="10.8134"/><feColorMatrix type="matrix" values="0 0 0 0 0.0196078 0 0 0 0 0.0431373 0 0 0 0 0.215686 0 0 0 0.07 0"/><feBlend in2="BackgroundImageFix" mode="normal" result="effect1_dropShadow"/><feBlend in="SourceGraphic" in2="effect1_dropShadow" mode="normal" result="shape"/></filter><mask id="d" height="450" maskUnits="userSpaceOnUse" width="450" x="0" y="0"><path d="m0 0h450v450h-450z" fill="#c4c4c4"/></mask><g mask="url(#d)"><g stroke-width="1.08134"><circle cx="226.495" cy="216.665" r="136.249" stroke="#599af2"/><circle cx="226.542" cy="216.665" r="130.302" stroke="#ef6d9c" stroke-dasharray="10.81 10.81"/><circle cx="226.542" cy="216.666" r="124.355" stroke="#52dec6"/><circle cx="226.542" cy="216.666" opacity=".3" r="90.8329" stroke="#ef6d9c"/><circle cx="226.542" cy="216.666" r="50.8232" stroke="#82a7ff" stroke-opacity=".2"/></g><path d="m217.784 192.335h32.612l-14.424 14.067h-33.445z" fill="#56dcbd"/><path d="m202.211 207.818h13.976s0 3.581 2.771 3.581 2.963-3.581 2.963-3.581h13.784v33.178h-7.249s-.602-2.134-2.502-2.134c-1.899 0-2.411 2.134-2.411 2.134h-9.8s-.367-2.134-2.39-2.134c-2.024 0-2.327 2.134-2.327 2.134h-6.815z" fill="#29328b"/><path d="m250.832 193.915.04 14.765-7.26 8.052s-.262 4.318 1.454 3.567c1.717-.751 1.698-5.138 1.698-5.138l4.068-4.515v7.644 8.007l-13.863 14.024v-32.801z" fill="#477bf3"/><path d="m142.671 75.3385c16.48-.5559 29.899 13.1262 29.022 29.5935l-1.619 30.423c-.794 14.926-13.128 26.621-28.075 26.621h-76.082-5.9689-20.5373c-2.6211 0-4.746-2.125-4.746-4.746l6.2561-54.479c1.5887-13.8345 13.0658-24.4217 26.9837-24.8911z" fill="#82a7ff"/><path d="m48.4807 105.958c35.0441-2.855 70.1733-1.908 105.1333 2.834 1.234.17 1.252-2.834 0-3.061-34.968-4.557-70.0965-5.334-105.1333-2.324-1.0893 0-1.0893 2.834 0 2.664z" fill="#fff"/><path d="m49.9433 123.215c35.5178-2.826 71.1207-1.884 106.5537 2.82 1.251.198 1.251-2.82 0-3.017-35.439-4.577-71.0424-5.378-106.5537-2.397-1.104 0-1.1224 2.82 0 2.651z" fill="#fff"/><path d="m49.9784 138.658c24.0643 1.321 47.814-1.484 71.8416 1.753 1.259.161 1.277-2.697 0-2.886-24.0646-2.4-47.8143-.917-71.8416-1.402-.2308 0-.4521.133-.6152.371-.1632.238-.2548.56-.2548.896s.0916.659.2548.896c.1631.238.3844.372.6152.372z" fill="#fff"/><path d="m324.782 243.714c-16.482.553-29.899-13.133-29.018-29.6l1.881-35.175c.798-14.923 13.131-26.614 28.075-26.614h82.176 6.323 21.778c2.763 0 5.003 2.24 5.003 5.003l-6.778 58.743c-1.596 13.83-13.073 24.409-26.987 24.876z" fill="#39429c"/><path d="m311.199 183.042c36.589-3.129 73.267-2.091 109.769 3.108 1.289.187 1.308-3.108 0-3.356-36.51-4.998-73.187-5.849-109.769-2.549-1.138 0-1.138 3.108 0 2.922z" fill="#fff"/><path d="m313.377 200.532c37.062-2.817 74.212-1.878 111.185 2.811 1.306.197 1.306-2.811 0-3.008-36.979-4.563-74.13-5.361-111.185-2.39-1.152 0-1.171 2.812 0 2.643z" fill="#fff"/><path d="m313.407 217.36c24.932 1.317 49.537-1.479 74.431 1.747 1.304.162 1.323-2.688 0-2.876-24.932-2.393-49.538-.915-74.431-1.398-.239 0-.468.133-.637.37s-.264.558-.264.893.095.657.264.894.398.37.637.37z" fill="#fff"/><g filter="url(#a)"><path d="m164.364 109.072c15.528 0 28.115-12.5878 28.115-28.1152 0-15.5275-12.587-28.115-28.115-28.115-15.527 0-28.115 12.5875-28.115 28.115 0 15.5274 12.588 28.1152 28.115 28.1152z" fill="#78eed2"/></g><path clip-rule="evenodd" d="m159.927 86.8934c.79 5.1216 2.541 8.3642 4.158 8.3642 1.509.0033 3.01-.2388 4.444-.7169l.462 1.4385c-6.72 2.2445-14.088-.3676-17.966-6.3689s-3.299-13.8961 1.411-19.2499c4.711-5.3537 12.378-6.8321 18.697-3.6046 6.318 3.2275 9.712 10.3564 8.276 17.3824l-1.465-.3093c.196-.962.295-1.9417.296-2.924 0-1.6306-3.197-3.4066-8.247-4.2172.125 1.298.194 2.7037.194 4.2172h-1.496c.002-1.4824-.077-2.9638-.236-4.4374-2.907-.3182-5.839-.3182-8.745 0-.314 2.9482-.314 5.922 0 8.8702 1.452.1614 2.913.2412 4.375.239v1.5135c-1.483 0-2.869-.0703-4.158-.1968zm18.016-8.9278.001.0009v.0047zm0 0c-1.636-1.2647-4.375-2.3421-8.135-2.8762-.535-3.8142-1.589-6.5929-2.836-8.2517 5.508 1.1763 9.811 5.5413 10.971 11.1279zm-13.858-11.4278c1.617 0 3.367 3.2426 4.157 8.3642-1.288-.1265-2.674-.1968-4.157-.1968s-2.879.0703-4.158.1968c.79-5.1216 2.541-8.3595 4.158-8.3595zm-5.724 8.5516c.526-3.8142 1.589-6.5929 2.836-8.2517l-.004.0047c-5.506 1.1769-9.807 5.5398-10.968 11.1241 1.636-1.2651 4.375-2.3335 8.136-2.8771zm-.185 1.5886c-.125 1.3073-.194 2.7131-.194 4.2172 0 1.5042.069 2.9193.194 4.2173-5.05-.8107-8.247-2.5866-8.247-4.2173 0-1.6306 3.193-3.4113 8.247-4.2219zm.185 10.0279c-3.761-.5342-6.5-1.612-8.136-2.8771 1.158 5.588 5.463 9.9539 10.972 11.1288-1.247-1.6588-2.3-4.4375-2.836-8.2517z" fill="#477bf3" fill-rule="evenodd"/><path d="m164.085 95.2576v-.2163zm-4.158-8.3642.021-.2152-.277-.0272.042.2754zm8.602 7.6473.206-.0661-.067-.2082-.208.0691zm.462 1.4385.068.2052.203-.0678-.065-.2035zm-17.966-6.3689.182-.1174zm1.411-19.2499.163.1429zm18.697-3.6046-.099.1926zm8.276 17.3824-.045.2116.213.0449.043-.2132zm-1.465-.3093-.212-.0432-.043.2104.21.0444zm.296-2.924.216.0001v-.0001zm-8.247-4.2172.035-.2135-.277-.0444.027.2786zm.194 4.2172v.2163h.217v-.2163zm-1.496 0-.217-.0003v.2166h.217zm-.236-4.4374.215-.0233-.019-.1728-.173-.0189zm-8.745 0-.024-.215-.173.0189-.018.1732zm0 8.8702-.215.0229.018.1729.173.0192zm4.375.239h.216v-.2166l-.217.0003zm0 1.5135v.2163h.216v-.2163zm13.859-9.1237h.216v-.1061l-.084-.0649zm0 .0047-.212.044.428-.044zm-8.136-2.8818-.214.0301.023.1612.161.0229zm-2.836-8.2517.045-.2115-.566-.1208.348.4623zm1.27 8.0643-.021.2152.278.0273-.043-.2755zm-4.157-8.3642v-.2163h-.217v.2163zm-4.158 8.3642-.214-.033-.042.2757.277-.0275zm4.158-8.3595v.2163h.216v-.2163zm-2.888.2952.173.13-.327-.2818zm-2.836 8.2517.031.2141.161-.0233.022-.1612zm2.832-8.247.045.2115.063-.0136.046-.0461zm-10.968 11.1241-.212-.044-.119.5734.464-.3583zm7.951-1.2885.215.0205.001-.0102v-.0103zm0 8.4345-.034.2135.276.0444-.027-.2786zm0-8.4392h.216v-.2537l-.25.0402zm-7.951 7.1555.133-.1711-.463-.3581.118.573zm8.136 2.8771.214-.0301-.023-.1612-.161-.0229zm2.836 8.2517-.045.2115.566.1206-.348-.4621zm2.888.0837c-.329 0-.691-.165-1.072-.5271-.38-.3613-.762-.9037-1.125-1.6162-.725-1.424-1.355-3.4911-1.748-6.0376l-.427.066c.397 2.5752 1.038 4.6902 1.79 6.1678.376.7384.784 1.3268 1.212 1.7335.427.4059.89.6462 1.37.6462zm4.375-.7058c-1.412.4708-2.889.709-4.375.7058l-.001.4326c1.533.0033 3.057-.2425 4.513-.7281zm.737 1.5776-.462-1.4385-.412.1322.462 1.4386zm-18.353-6.1854c3.931 6.0832 11.401 8.7327 18.215 6.4567l-.137-.4103c-6.624 2.2128-13.89-.3618-17.715-6.2812zm1.43-19.5101c-4.774 5.4266-5.361 13.4277-1.43 19.5101l.363-.2348c-3.825-5.9202-3.254-13.7087 1.392-18.9896zm18.957-3.6544c-6.407-3.2728-14.182-1.7731-18.957 3.6544l.325.2857c4.645-5.2801 12.206-6.737 18.435-3.5549zm8.389 17.6183c1.456-7.1197-1.983-14.3459-8.389-17.6183l-.197.3852c6.231 3.1827 9.58 10.2142 8.163 17.1464zm-1.721-.141 1.465.3093.089-.4233-1.464-.3092zm.124-3.1357c0 .9679-.098 1.9331-.291 2.8809l.424.0864c.199-.9761.3-1.9703.3-2.9671zm-8.064-4.0036c2.51.403 4.547 1.0442 5.951 1.7792.702.3677 1.236.7543 1.593 1.1387.357.385.52.7517.52 1.0858h.433c0-.4811-.236-.9479-.636-1.3799-.401-.4325-.981-.8463-1.71-1.2278-1.457-.7633-3.543-1.4154-6.082-1.823zm.445 4.0037c0-1.5201-.07-2.9327-.195-4.2379l-.431.0414c.124 1.2908.193 2.6896.193 4.1965zm-1.713.2163h1.496v-.4325h-1.496zm-.451-4.6305c.158 1.4658.236 2.9393.234 4.4139l.433.0007c.002-1.4903-.077-2.9796-.237-4.4611zm-8.507.1917c2.891-.3164 5.807-.3164 8.698 0l.047-.4299c-2.922-.3199-5.87-.3199-8.792 0zm.192 8.6324c-.312-2.9329-.312-5.8915 0-8.8245l-.43-.0457c-.316 2.9634-.316 5.9526 0 8.916zm4.159.0456c-1.453.0022-2.906-.0771-4.351-.2376l-.047.4299c1.461.1623 2.929.2425 4.399.2403zm.217 1.7298v-1.5135h-.433v1.5135zm-4.395.0185c1.296.1272 2.689.1978 4.179.1978v-.4325c-1.477 0-2.855-.07-4.137-.1958zm18.17-9.3132-.001-.0009-.265.3421.002.0009zm.084.1757v-.0047h-.432v.0047zm-.429.0384.001.0056.424-.088-.001-.0055zm-7.953-2.706c3.739.5311 6.437 1.5997 8.033 2.8331l.264-.3421c-1.676-1.2962-4.456-2.3823-8.236-2.9193zm-2.979-8.3359c1.217 1.6182 2.262 4.3566 2.795 8.1518l.429-.0601c-.539-3.8333-1.6-6.6523-2.878-8.3517zm11.356 10.954c-1.177-5.6691-5.544-10.101-11.138-11.2955l-.09.423c5.423 1.1581 9.662 5.4563 10.804 10.9604zm-9.699-3.0527c-.397-2.5752-1.037-4.6902-1.79-6.1678-.375-.7384-.784-1.3268-1.212-1.7334-.427-.406-.89-.6463-1.369-.6463v.4326c.329 0 .691.165 1.071.5271.38.3614.762.9037 1.125 1.6162.725 1.4241 1.355 3.4912 1.748 6.0376zm-4.371.0525c1.476 0 2.855.0699 4.136.1957l.043-.4304c-1.297-.1273-2.69-.1979-4.179-.1979zm-4.137.1957c1.272-.1258 2.66-.1957 4.137-.1957v-.4326c-1.49 0-2.892.0706-4.179.1979zm4.137-8.791c-.48 0-.943.2399-1.37.6454-.428.4063-.836.9941-1.212 1.7319-.752 1.4765-1.393 3.5903-1.79 6.1655l.428.066c.392-2.5464 1.022-4.6123 1.747-6.0352.363-.7119.745-1.2536 1.125-1.6145.381-.3617.743-.5265 1.072-.5265zm-.217.2116v.0047h.433v-.0047zm-2.844.1699c-1.277 1.6992-2.348 4.5181-2.878 8.3522l.429.0591c.524-3.7944 1.578-6.5329 2.795-8.1513zm.323.2865.004-.0047-.308-.3036-.004.0047zm-10.91 11.0163c1.143-5.5018 5.38-9.7979 10.801-10.9566l-.091-.423c-5.59 1.1951-9.956 5.6248-11.134 11.2916zm7.893-3.1351c-3.781.5464-6.561 1.6234-8.237 2.9201l.265.3421c1.594-1.2337 4.293-2.2934 8.034-2.8341zm-.132 6.0198c0-1.4975.069-2.8964.193-4.1967l-.43-.0411c-.126 1.3144-.195 2.727-.195 4.2378zm.193 4.1966c-.124-1.2908-.193-2.699-.193-4.1966h-.432c0 1.5107.069 2.9328.195 4.238zm-8.678-4.1966c0 .4812.236.948.636 1.3799.401.4326.981.8464 1.71 1.2278 1.457.7633 3.543 1.4154 6.083 1.8231l.068-.4271c-2.51-.4029-4.547-1.0441-5.951-1.7791-.702-.3677-1.236-.7543-1.592-1.1387-.357-.385-.521-.7517-.521-1.0859zm8.429-4.4354c-2.542.4077-4.628 1.0609-6.085 1.8254-.728.3821-1.308.7965-1.709 1.2296-.399.4323-.635.8994-.635 1.3804h.433c0-.3343.163-.7013.52-1.0867.356-.3848.89-.772 1.592-1.1402 1.403-.7362 3.44-1.3785 5.952-1.7815zm.25.2182v-.0047h-.432v.0047zm-8.299 7.3218c1.676 1.2965 4.456 2.3831 8.237 2.9202l.061-.4283c-3.74-.5312-6.439-1.6002-8.033-2.834zm11.149 10.7463c-5.424-1.1567-9.664-5.4557-10.805-10.9612l-.424.0877c1.176 5.6707 5.544 10.1035 11.139 11.2965zm-3.095-8.0102c.538 3.8333 1.6 6.6523 2.877 8.3517l.346-.26c-1.217-1.6182-2.262-4.3566-2.795-8.1518z" fill="#477bf3"/><path clip-rule="evenodd" d="m167.961 83.3457 3.525 13.2375 2.346-6.0541 7.009-1.0215z" fill-rule="evenodd" stroke="#477bf3" stroke-width="2.16269"/><g filter="url(#b)"><path d="m409.87 272.158c15.55 0 28.156-12.543 28.156-28.016s-12.606-28.017-28.156-28.017-28.155 12.544-28.155 28.017 12.605 28.016 28.155 28.016z" fill="#78eed2"/></g><path clip-rule="evenodd" d="m416.719 247.22c-.364 0-.659.297-.659.663v4.575c0 1.829-1.478 3.316-3.295 3.316h-7.116c-.364 0-.659.297-.659.663l-.001 1.318-1.573-1.583c-.102-.235-.335-.398-.605-.398h-4.282c-1.817 0-3.296-1.487-3.296-3.316v-10.212c0-1.828 1.479-3.315 3.296-3.315h6.656c.364 0 .659-.297.659-.663 0-.367-.295-.664-.659-.664h-6.656c-2.544 0-4.614 2.083-4.614 4.642v10.212c0 2.56 2.07 4.642 4.614 4.642h3.945l2.707 2.724c.126.127.294.194.466.194.085 0 .17-.017.252-.051.246-.102.407-.344.407-.612l.001-2.255h6.458c2.544 0 4.613-2.082 4.613-4.642v-4.575c0-.366-.295-.663-.659-.663z" fill="#477bf3" fill-rule="evenodd" stroke="#477bf3" stroke-width=".756941"/><path clip-rule="evenodd" d="m416.551 226.398h1.654c5.237 0 9.497 4.293 9.497 9.57 0 1.528-.347 2.989-1.032 4.342-.603 1.19-1.462 2.257-2.496 3.101v3.809c0 .266-.16.506-.404.608-.081.034-.166.05-.25.05-.17 0-.337-.067-.462-.193l-2.443-2.46c-.784.207-1.593.312-2.41.312h-1.654c-5.236 0-9.497-4.293-9.497-9.569 0-5.277 4.261-9.57 9.497-9.57zm6.316 16.691c0-.206.096-.401.26-.525 2.077-1.577 3.268-3.981 3.268-6.597 0-4.55-3.674-8.252-8.19-8.252h-1.654c-4.516 0-8.19 3.702-8.19 8.252 0 4.551 3.674 8.253 8.19 8.253h1.654c.821 0 1.631-.122 2.409-.363.063-.02.128-.029.192-.029.17 0 .337.067.462.192l1.599 1.611z" fill="#477bf3" fill-rule="evenodd"/><path d="m426.67 240.31-.338-.171zm-2.496 3.101-.24-.294-.139.114v.18zm-.404 4.417-.146-.349zm-.712-.143-.268.267zm-2.443-2.46.269-.266-.154-.155-.211.055zm2.512-2.661-.229-.302zm-2.513 1.293.112.361zm.654.163.268-.266zm1.599 1.611-.269.266.647.652v-.918zm-4.662-19.611h-1.654v.757h1.654zm9.875 9.948c0-5.483-4.427-9.948-9.875-9.948v.757c5.025 0 9.118 4.12 9.118 9.191zm-1.072 4.512c.711-1.406 1.072-2.925 1.072-4.512h-.757c0 1.469-.333 2.871-.991 4.171zm-2.595 3.224c1.075-.877 1.968-1.985 2.595-3.224l-.676-.341c-.579 1.143-1.404 2.168-2.398 2.978zm.139 3.516v-3.809h-.757v3.809zm-.636.957c.386-.161.636-.54.636-.957h-.757c0 .114-.069.216-.171.259zm-.396.079c.134 0 .268-.026.396-.079l-.292-.698c-.033.014-.069.02-.104.02zm-.73-.304c.197.198.461.304.73.304v-.757c-.071 0-.14-.027-.193-.081zm-2.443-2.46 2.443 2.46.537-.533-2.443-2.46zm-2.142.423c.85 0 1.691-.109 2.507-.324l-.193-.732c-.753.199-1.529.299-2.314.299zm-1.654 0h1.654v-.757h-1.654zm-9.875-9.947c0 5.482 4.427 9.947 9.875 9.947v-.757c-5.025 0-9.118-4.12-9.118-9.19zm9.875-9.948c-5.448 0-9.875 4.465-9.875 9.948h.757c0-5.071 4.093-9.191 9.118-9.191zm6.347 16.242c-.258.196-.41.503-.41.827h.757c0-.089.042-.172.111-.224zm3.119-6.295c0 2.498-1.137 4.791-3.119 6.295l.458.603c2.171-1.648 3.418-4.164 3.418-6.898zm-7.812-7.873c4.304 0 7.812 3.529 7.812 7.873h.757c0-4.756-3.841-8.63-8.569-8.63zm-1.654 0h1.654v-.757h-1.654zm-7.811 7.873c0-4.344 3.507-7.873 7.811-7.873v-.757c-4.727 0-8.568 3.874-8.568 8.63zm7.811 7.874c-4.304 0-7.811-3.53-7.811-7.874h-.757c0 4.757 3.84 8.631 8.568 8.631zm1.654 0h-1.654v.757h1.654zm2.297-.346c-.741.23-1.514.346-2.297.346v.757c.858 0 1.707-.127 2.521-.38zm.304-.046c-.102 0-.204.015-.304.046l.224.723c.026-.008.053-.012.08-.012zm.73.305c-.196-.198-.46-.305-.73-.305v.757c.071 0 .141.028.193.081zm1.599 1.61-1.599-1.61-.537.533 1.599 1.61zm-.647-2.275v2.542h.757v-2.542z" fill="#477bf3"/><path clip-rule="evenodd" d="m407.546 246.945h-9.43c-.247 0-.447.209-.447.467s.2.467.447.467h9.43c.247 0 .447-.209.447-.467s-.2-.467-.447-.467z" fill="#477bf3" fill-rule="evenodd" stroke="#477bf3" stroke-width=".540672"/><path clip-rule="evenodd" d="m404.725 243.208h-6.604c-.249 0-.452.209-.452.467s.203.467.452.467h6.604c.25 0 .452-.209.452-.467s-.202-.467-.452-.467z" fill="#477bf3" fill-rule="evenodd" stroke="#477bf3" stroke-width=".540672"/><path d="m163.985 297.402c-16.481-.556-29.9 13.126-29.023 29.593l1.084 20.363c.794 14.926 13.128 26.621 28.075 26.621h64.31 5.285 18.185c2.32 0 4.201-1.881 4.201-4.202l-5.222-45.464c-1.589-13.835-13.066-24.422-26.983-24.891z" fill="#599af2"/><path d="m145.604 324.277c30.782-2.283 61.639-1.526 92.347 2.267 1.084.136 1.1-2.267 0-2.448-30.715-3.646-61.571-4.267-92.347-1.86-.957 0-.957 2.268 0 2.132z" fill="#fff"/><path d="m147.066 339.53c31.255-2.826 62.586-1.884 93.767 2.82 1.101.197 1.101-2.82 0-3.018-31.186-4.576-62.517-5.377-93.767-2.397-.972 0-.988 2.82 0 2.651z" fill="#fff"/><path d="m147.099 353.535c21.233 1.321 42.189-1.484 63.389 1.752 1.111.162 1.127-2.696 0-2.885-21.233-2.4-42.189-.917-63.389-1.402-.204 0-.399.133-.543.371s-.225.56-.225.896.081.659.225.896c.144.238.339.372.543.372z" fill="#fff"/><g filter="url(#c)"><path d="m130.572 335.256c15.165 0 27.458-12.144 27.458-27.125s-12.293-27.125-27.458-27.125-27.459 12.144-27.459 27.125 12.294 27.125 27.459 27.125z" fill="#78eed2"/></g><path clip-rule="evenodd" d="m128.889 323.255h-2.259c-1.799 0-3.262-1.435-3.262-3.204v-12.578h-4.015c-1.387 0-2.51-1.103-2.51-2.468v-8.872c0-1.364 1.123-2.469 2.51-2.469h19.072c1.387 0 2.51 1.103 2.51 2.469v8.872c0 1.363-1.123 2.468-2.51 2.468h-14.053v6.412h12.548v-1.476c0-.817.673-1.484 1.501-1.484h8.04c.83 0 1.501.667 1.501 1.484v3.937c0 .818-.673 1.484-1.501 1.484h-8.04c-.83 0-1.501-.666-1.501-1.484v-1.475h-12.548v5.18c0 1.224 1.013 2.218 2.258 2.218h2.259v-1.476c0-.819.677-1.483 1.51-1.483h4.007c.834 0 1.51.665 1.51 1.483v3.937c0 .819-.677 1.484-1.51 1.484h-4.007c-.834 0-1.51-.665-1.51-1.484zm1.004-2.463v3.937c0 .274.227.497.506.497h4.007c.278 0 .506-.223.506-.497v-3.937c0-.274-.227-.497-.506-.497h-4.007c-.279 0-.506.223-.506.497zm8.031-8.383v3.938c0 .274.224.497.497.497h8.04c.272 0 .497-.223.497-.497v-3.938c0-.274-.224-.497-.497-.497h-8.04c-.272 0-.497.223-.497.497zm-20.078-16.277v8.872c0 .82.674 1.482 1.507 1.482h19.072c.832 0 1.506-.663 1.506-1.482v-8.872c0-.821-.673-1.482-1.506-1.482h-19.072c-.833 0-1.507.663-1.507 1.482zm6.023 7.396c-1.663 0-3.011-1.325-3.011-2.959 0-1.635 1.348-2.959 3.011-2.959 1.664 0 3.012 1.324 3.012 2.959 0 1.634-1.348 2.959-3.012 2.959zm.001-.987c1.108 0 2.007-.883 2.007-1.972 0-1.09-.899-1.973-2.007-1.973-1.109 0-2.008.883-2.008 1.973 0 1.089.899 1.972 2.008 1.972zm5.521-3.452c-.277 0-.502-.221-.502-.493s.225-.493.502-.493h7.027c.277 0 .502.221.502.493s-.225.493-.502.493zm0 3.946c-.277 0-.502-.22-.502-.493 0-.272.225-.493.502-.493h4.015c.277 0 .502.221.502.493 0 .273-.225.493-.502.493z" fill="#477bf3" fill-rule="evenodd"/><path d="m128.889 323.255h.378v-.379h-.378zm-5.521-15.782h.378v-.378h-.378zm1.004 0v-.378h-.379v.378zm0 6.412h-.379v.378h.379zm12.548 0v.378h.378v-.378zm0 .986h.378v-.379h-.378zm-12.548 0v-.379h-.379v.379zm4.517 7.398v.378h.378v-.378zm0 .607h-2.259v.757h2.259zm-2.259 0c-1.597 0-2.884-1.272-2.884-2.825h-.757c0 1.984 1.639 3.582 3.641 3.582zm-2.884-2.825v-12.578h-.757v12.578zm-.378-12.956h-4.015v.757h4.015zm-4.015 0c-1.185 0-2.132-.94-2.132-2.09h-.757c0 1.58 1.299 2.847 2.889 2.847zm-2.132-2.09v-8.872h-.757v8.872zm0-8.872c0-1.149.948-2.09 2.132-2.09v-.757c-1.59 0-2.889 1.268-2.889 2.847zm2.132-2.09h19.072v-.757h-19.072zm19.072 0c1.184 0 2.132.939 2.132 2.09h.757c0-1.581-1.299-2.847-2.889-2.847zm2.132 2.09v8.872h.757v-8.872zm0 8.872c0 1.148-.948 2.09-2.132 2.09v.757c1.59 0 2.889-1.269 2.889-2.847zm-2.132 2.09h-14.053v.757h14.053zm-14.432.378v6.412h.757v-6.412zm.379 6.79h12.548v-.757h-12.548zm12.926-.378v-1.476h-.757v1.476zm0-1.476c0-.604.5-1.105 1.123-1.105v-.757c-1.032 0-1.88.831-1.88 1.862zm1.123-1.105h8.04v-.757h-8.04zm8.04 0c.625 0 1.123.5 1.123 1.105h.757c0-1.03-.845-1.862-1.88-1.862zm1.123 1.105v3.937h.757v-3.937zm0 3.937c0 .605-.5 1.105-1.123 1.105v.757c1.033 0 1.88-.831 1.88-1.862zm-1.123 1.105h-8.04v.757h8.04zm-8.04 0c-.624 0-1.123-.5-1.123-1.105h-.757c0 1.03.845 1.862 1.88 1.862zm-1.123-1.105v-1.475h-.757v1.475zm-.378-1.854h-12.548v.757h12.548zm-12.927.379v5.18h.757v-5.18zm0 5.18c0 1.439 1.189 2.596 2.637 2.596v-.757c-1.043 0-1.88-.831-1.88-1.839zm2.637 2.596h2.259v-.757h-2.259zm2.637-.378v-1.476h-.757v1.476zm0-1.476c0-.603.502-1.105 1.132-1.105v-.757c-1.036 0-1.889.828-1.889 1.862zm1.132-1.105h4.007v-.757h-4.007zm4.007 0c.631 0 1.132.502 1.132 1.105h.756c0-1.033-.852-1.862-1.888-1.862zm1.132 1.105v3.937h.756v-3.937zm0 3.937c0 .604-.502 1.106-1.132 1.106v.757c1.036 0 1.888-.828 1.888-1.863zm-1.132 1.106h-4.007v.757h4.007zm-4.007 0c-.631 0-1.132-.502-1.132-1.106h-.757c0 1.034.853 1.863 1.889 1.863zm-1.132-1.106v-1.475h-.757v1.475zm.247-3.938v3.937h.757v-3.937zm0 3.937c0 .489.403.876.885.876v-.757c-.076 0-.128-.06-.128-.119zm.885.876h4.007v-.757h-4.007zm4.007 0c.481 0 .884-.386.884-.876h-.757c0 .059-.051.119-.127.119zm.884-.876v-3.937h-.757v3.937zm0-3.937c0-.489-.403-.876-.884-.876v.757c.076 0 .127.06.127.119zm-.884-.876h-4.007v.757h4.007zm-4.007 0c-.482 0-.885.386-.885.876h.757c0-.059.052-.119.128-.119zm7.146-7.507v3.938h.757v-3.938zm0 3.938c0 .484.395.875.876.875v-.757c-.065 0-.119-.053-.119-.118zm.876.875h8.04v-.757h-8.04zm8.04 0c.479 0 .876-.391.876-.875h-.757c0 .064-.055.118-.119.118zm.876-.875v-3.938h-.757v3.938zm0-3.938c0-.484-.395-.875-.876-.875v.757c.065 0 .119.053.119.118zm-.876-.875h-8.04v.757h8.04zm-8.04 0c-.48 0-.876.391-.876.875h.757c0-.064.055-.118.119-.118zm-20.953-15.402v8.872h.757v-8.872zm0 8.872c0 1.035.849 1.86 1.885 1.86v-.757c-.63 0-1.128-.498-1.128-1.103zm1.885 1.86h19.072v-.757h-19.072zm19.072 0c1.036 0 1.885-.826 1.885-1.86h-.757c0 .604-.499 1.103-1.128 1.103zm1.885-1.86v-8.872h-.757v8.872zm0-8.872c0-1.036-.849-1.861-1.885-1.861v.757c.63 0 1.128.498 1.128 1.104zm-1.885-1.861h-19.072v.757h19.072zm-19.072 0c-1.036 0-1.885.827-1.885 1.861h.757c0-.604.499-1.104 1.128-1.104zm4.516 8.878c-1.46 0-2.633-1.161-2.633-2.58h-.757c0 1.849 1.524 3.337 3.39 3.337zm-2.633-2.58c0-1.419 1.173-2.581 2.633-2.581v-.757c-1.866 0-3.39 1.488-3.39 3.338zm2.633-2.581c1.461 0 2.634 1.162 2.634 2.581h.756c0-1.85-1.524-3.338-3.39-3.338zm2.634 2.581c0 1.419-1.173 2.58-2.634 2.58v.757c1.866 0 3.39-1.488 3.39-3.337zm-2.633 2.351c1.311 0 2.386-1.047 2.386-2.351h-.757c0 .874-.723 1.594-1.629 1.594zm2.386-2.351c0-1.305-1.075-2.352-2.386-2.352v.757c.906 0 1.629.72 1.629 1.595zm-2.386-2.352c-1.312 0-2.387 1.047-2.387 2.352h.757c0-.875.723-1.595 1.63-1.595zm-2.387 2.352c0 1.304 1.075 2.351 2.387 2.351v-.757c-.907 0-1.63-.72-1.63-1.594zm7.908-1.858c-.075 0-.124-.058-.124-.115h-.757c0 .488.401.872.881.872zm-.124-.115c0-.057.049-.115.124-.115v-.757c-.48 0-.881.384-.881.872zm.124-.115h7.027v-.757h-7.027zm7.027 0c.074 0 .123.058.123.115h.757c0-.488-.4-.872-.88-.872zm.123.115c0 .057-.049.115-.123.115v.757c.48 0 .88-.384.88-.872zm-.123.115h-7.027v.757h7.027zm-7.027 3.946c-.075 0-.124-.058-.124-.115h-.757c0 .488.401.872.881.872zm-.124-.115c0-.057.049-.114.124-.114v-.757c-.48 0-.881.384-.881.871zm.124-.114h4.015v-.757h-4.015zm4.015 0c.075 0 .124.057.124.114h.757c0-.487-.401-.871-.881-.871zm.124.114c0 .057-.049.115-.124.115v.757c.48 0 .881-.384.881-.872zm-.124.115h-4.015v.757h4.015z" fill="#477bf3"/></g></svg>