<svg fill="none" height="230" viewBox="0 0 273 230" width="273" xmlns="http://www.w3.org/2000/svg" xmlns:xlink="http://www.w3.org/1999/xlink"><clipPath id="app-a"><path d="m198 6h16v17h-16z"/></clipPath><clipPath id="app-b"><path d="m123 200h13.1038v14.6213h-13.1038z"/></clipPath><path d="m30 188.543h51.9115v37.7179h-51.9115z" fill="#11175c"/><path d="m81.9116 187.508 6.2294-5.671v34.341l-5.1911 10.082" stroke="#5a63b8" stroke-linecap="round" stroke-width=".751678"/><path d="m30.6919 186.867 4.9017-5.867h51.8549" stroke="#5a63b8" stroke-linecap="round" stroke-width=".751678"/><path d="m39.1116 192.747v13.47 4.386l-.6922 2.506v10.651" stroke="#777dba" stroke-linecap="round" stroke-width=".751678"/><path d="m45.2271 223.746c0-3.968 0-12.217 0-13.47s0-3.446 0-4.386v-2.506-10.65" stroke="#777dba" stroke-linecap="round" stroke-width=".751678"/><path d="m52.8406 192.734v13.47 4.386l-.6922 2.506v10.651" stroke="#777dba" stroke-linecap="round" stroke-width=".751678"/><path d="m59.0705 223.746c0-3.968 0-12.217 0-13.47s0-3.446 0-4.386l.6922-2.506v-10.65" stroke="#777dba" stroke-linecap="round" stroke-width=".751678"/><path d="m65.9915 192.734v13.47 4.386l-.6922 2.506v10.651" stroke="#777dba" stroke-linecap="round" stroke-width=".751678"/><path d="m72.2214 223.746c0-3.968 0-12.217 0-13.47s0-3.446 0-4.386l.6922-2.506v-10.65" stroke="#777dba" stroke-linecap="round" stroke-width=".751678"/><path d="m104 188.543h51.9115v37.7179h-51.9115z" fill="#11175c"/><path d="m155.912 187.508 6.229-5.671v34.341l-5.191 10.082" stroke="#5a63b8" stroke-linecap="round" stroke-width=".751678"/><path d="m104.692 186.867 4.902-5.867h51.854" stroke="#5a63b8" stroke-linecap="round" stroke-width=".751678"/><path d="m113.112 192.747v13.47 4.386l-.693 2.506v10.651" stroke="#777dba" stroke-linecap="round" stroke-width=".751678"/><path d="m119.227 223.746c0-3.968 0-12.217 0-13.47s0-3.446 0-4.386v-2.506-10.65" stroke="#777dba" stroke-linecap="round" stroke-width=".751678"/><path d="m126.841 192.734v13.47 4.386l-.693 2.506v10.651" stroke="#777dba" stroke-linecap="round" stroke-width=".751678"/><path d="m133.071 223.746c0-3.968 0-12.217 0-13.47s0-3.446 0-4.386l.692-2.506v-10.65" stroke="#777dba" stroke-linecap="round" stroke-width=".751678"/><path d="m139.991 192.734v13.47 4.386l-.692 2.506v10.651" stroke="#777dba" stroke-linecap="round" stroke-width=".751678"/><path d="m146.221 223.746c0-3.968 0-12.217 0-13.47s0-3.446 0-4.386l.693-2.506v-10.65" stroke="#777dba" stroke-linecap="round" stroke-width=".751678"/><path d="m175 188.543h51.9115v37.7179h-51.9115z" fill="#11175c"/><path d="m226.912 187.508 6.229-5.671v34.341l-5.191 10.082" stroke="#5a63b8" stroke-linecap="round" stroke-width=".751678"/><path d="m175.692 186.867 4.902-5.867h51.854" stroke="#5a63b8" stroke-linecap="round" stroke-width=".751678"/><path d="m184.112 192.747v13.47 4.386l-.693 2.506v10.651" stroke="#777dba" stroke-linecap="round" stroke-width=".751678"/><path d="m190.227 223.746c0-3.968 0-12.217 0-13.47s0-3.446 0-4.386v-2.506-10.65" stroke="#777dba" stroke-linecap="round" stroke-width=".751678"/><path d="m197.841 192.734v13.47 4.386l-.693 2.506v10.651" stroke="#777dba" stroke-linecap="round" stroke-width=".751678"/><path d="m204.071 223.746c0-3.968 0-12.217 0-13.47s0-3.446 0-4.386l.692-2.506v-10.65" stroke="#777dba" stroke-linecap="round" stroke-width=".751678"/><path d="m210.991 192.734v13.47 4.386l-.692 2.506v10.651" stroke="#777dba" stroke-linecap="round" stroke-width=".751678"/><path d="m217.221 223.746c0-3.968 0-12.217 0-13.47s0-3.446 0-4.386l.693-2.506v-10.65" stroke="#777dba" stroke-linecap="round" stroke-width=".751678"/><rect fill="#fff" height="17" rx="8.5" stroke="#777dba" width="17" x="73.5" y="212.5"/><g clip-rule="evenodd" fill-rule="evenodd"><path d="m82.723 219.384h1.1889v1.218h.6011c.2776 0 .5631-.05.826-.139.1292-.044.2741-.105.4016-.182-.1679-.219-.2536-.497-.2787-.77-.0343-.372.0405-.856.2916-1.147l.1249-.145.1489.12c.375.302.6903.724.7459 1.205.4514-.133.9815-.102 1.3794.129l.1632.094-.0859.168c-.3365.659-1.0401.863-1.728.827-1.0293 2.57-3.2702 3.786-5.9872 3.786-1.4038 0-2.6916-.526-3.425-1.774l-.0121-.021-.1068-.218c-.2479-.549-.3302-1.151-.2744-1.753l.0168-.18h1.0166v-1.218h1.1888v-1.192h2.3778v-1.192h1.4266z" fill="#364548"/><path d="m86.5743 219.835c.0797-.621-.3839-1.109-.6714-1.341-.3314.384-.3828 1.391.137 1.814-.2901.259-.9014.493-1.5273.493h-7.6192c-.0608.655.0539 1.258.3159 1.774l.0866.159c.0549.094.1149.184.1797.271.3132.02.602.027.8662.021h.0002c.5192-.012.9429-.073 1.264-.185.0227-.007.0472-.005.0685.006.0212.011.0374.029.0452.052.0078.022.0065.047-.0035.069-.01.021-.0281.038-.0503.047-.0427.015-.0872.028-.1332.042h-.0001c-.2529.072-.524.121-.8738.142.0208.001-.0216.003-.0217.003-.0119.001-.0269.003-.0389.004-.1377.007-.2862.009-.4382.009-.1661 0-.3298-.003-.5127-.013l-.0047.004c.6348.715 1.6275 1.144 2.8717 1.144 2.6333 0 4.8669-1.17 5.856-3.798.7017.073 1.3761-.107 1.6828-.707-.4886-.283-1.117-.193-1.4788-.01z" fill="#22a0c8"/><path d="m86.5743 219.835c.0797-.621-.3839-1.109-.6714-1.341-.3314.384-.3828 1.391.137 1.814-.2901.259-.9014.493-1.5273.493h-7.168c-.0311 1.003.3402 1.764.9972 2.225h.0001c.5193-.012.943-.073 1.2641-.185.0227-.007.0472-.005.0685.006.0212.011.0374.029.0452.052.0078.022.0065.047-.0035.069-.0101.021-.0281.038-.0503.047-.0427.015-.0872.028-.1332.042h-.0001c-.2529.072-.5473.127-.8971.149-.0001 0-.0085-.008-.0086-.008.8962.46 2.1956.459 3.6855-.115 1.6705-.643 3.225-1.869 4.3096-3.271-.0163.007-.0322.015-.0477.023z" fill="#37b1d9"/><path d="m76.9082 221.597c.0473.351.1497.679.3016.978l.0866.159c.0549.094.1149.184.1797.271.3133.02.6021.027.8664.021.5192-.012.9429-.073 1.264-.185.0227-.007.0472-.005.0685.006.0212.011.0374.029.0452.052.0078.022.0065.047-.0035.069-.01.021-.0281.038-.0503.047-.0427.015-.0872.028-.1332.042h-.0001c-.2529.072-.5457.124-.8955.145-.012.001-.033.001-.0451.002-.1376.008-.2847.012-.4366.012-.1662 0-.3361-.003-.5189-.012.6348.715 1.6336 1.146 2.8778 1.146 2.2544 0 4.2158-.858 5.3541-2.753z" fill="#1b81a5"/><path d="m77.4136 221.597c.1347.616.4586 1.099.9288 1.429.5192-.012.9429-.073 1.264-.185.0227-.007.0472-.005.0685.006.0212.011.0374.029.0452.052.0078.022.0065.047-.0035.069-.01.021-.0281.038-.0503.047-.0427.015-.0872.028-.1332.042h-.0001c-.2529.072-.5519.124-.9018.145.8962.461 2.1919.455 3.6816-.119.9012-.347 1.7686-.864 2.5468-1.486z" fill="#1d91b4"/><path d="m77.9277 219.582h1.0304v1.033h-1.0304zm.0859.087h.0813v.86h-.0813zm.1528 0h.0846v.86h-.0845v-.86zm.1561 0h.0846v.86h-.0846zm.1562 0h.0845v.86h-.0845zm.1561 0h.0846v.86h-.0846zm.1561 0h.0814v.86h-.0814zm.3257-1.278h1.0304v1.033h-1.0305v-1.033zm.0859.086h.0812v.86h-.0812zm.1528 0h.0846v.86h-.0845v-.86zm.1561 0h.0846v.86h-.0846zm.1561 0h.0846v.86h-.0846zm.1562 0h.0846v.86h-.0846zm.1561 0h.0814v.86h-.0814z" fill="#23a3c2"/><path d="m79.1168 219.582h1.0304v1.033h-1.0305v-1.033zm.0858.086h.0813v.861h-.0813zm.1529 0h.0845v.861h-.0844v-.861zm.1561 0h.0845v.861h-.0845zm.1561 0h.0845v.861h-.0845zm.1561 0h.0846v.861h-.0846zm.1561 0h.0814v.861h-.0814z" fill="#34bbde"/><path d="m80.3057 219.582h1.0303v1.033h-1.0303zm.0858.086h.0813v.861h-.0813zm.1529 0h.0845v.861h-.0845zm.1561 0h.0845v.861h-.0845zm.1561 0h.0846v.861h-.0846zm.1561 0h.0846v.861h-.0846zm.1561 0h.0813v.861h-.0813z" fill="#23a3c2"/><path d="m80.3057 218.391h1.0303v1.033h-1.0303zm.0858.086h.0813v.86h-.0813zm.1529 0h.0845v.86h-.0845zm.1561 0h.0845v.86h-.0845zm.1561 0h.0846v.86h-.0846zm.1561 0h.0846v.86h-.0846zm.1561 0h.0814v.86h-.0814zm.3257 1.105h1.0304v1.033h-1.0304zm.0859.087h.0813v.86h-.0813zm.1529 0h.0845v.86h-.0845zm.156 0h.0846v.86h-.0846zm.1562 0h.0846v.86h-.0846zm.1561 0h.0846v.86h-.0846zm.1561 0h.0814v.86h-.0814z" fill="#34bbde"/><path d="m81.4941 218.391h1.0304v1.033h-1.0304zm.0859.086h.0813v.86h-.0813zm.1529 0h.0845v.86h-.0845zm.1561 0h.0845v.86h-.0845zm.1561 0h.0846v.86h-.0846zm.1561 0h.0846v.86h-.0846zm.1562 0h.0813v.86h-.0813z" fill="#23a3c2"/><path d="m81.4941 217.199h1.0304v1.033h-1.0304zm.0859.086h.0813v.861h-.0813zm.1529 0h.0845v.861h-.0845zm.1561 0h.0845v.861h-.0845zm.1561 0h.0846v.861h-.0846zm.1561 0h.0846v.861h-.0846zm.1562 0h.0813v.861h-.0813z" fill="#34bbde"/><path d="m82.6831 219.582h1.0304v1.033h-1.0304zm.0858.086h.0814v.861h-.0814zm.1528 0h.0846v.861h-.0845v-.861zm.1562 0h.0846v.861h-.0846zm.1561 0h.0846v.861h-.0846zm.1562 0h.0845v.861h-.0845zm.1561 0h.0813v.861h-.0813z" fill="#23a3c2"/><path d="m80.0827 222.29c.0377 0 .0751.007.11.021s.0667.035.0935.061c.0268.027.0481.058.0626.093.0146.035.022.072.022.11s-.0075.075-.022.11-.0358.066-.0626.093c-.0269.026-.0586.047-.0936.061-.0349.015-.0723.022-.11.021-.0747-.001-.146-.031-.1985-.085-.0525-.053-.0819-.125-.0819-.2.0001-.075.0295-.147.082-.2s.1238-.084.1985-.085z" fill="#d3ecec"/><path d="m80.0825 222.371c.026 0 .0508.005.0737.014-.0158.009-.0281.023-.0351.04s-.0082.036-.0034.054c.0047.017.0151.033.0295.044.0145.011.0322.017.0505.017.0314 0 .0587-.017.0729-.043.0167.04.02.085.0095.128-.0106.042-.0345.08-.0683.108-.0337.028-.0755.044-.1191.046s-.0868-.01-.1231-.034-.0639-.06-.0786-.101c-.0148-.041-.0159-.086-.0032-.128.0126-.042.0384-.078.0735-.105.035-.026.0776-.04.1212-.04zm-5.0278-.671h13.223c-.2879-.073-.9109-.172-.8082-.551-.5236.608-1.7861.427-2.1047.127-.3548.516-2.4205.32-2.5645-.082-.4449.523-1.8233.523-2.2681 0-.1442.402-2.2098.598-2.5646.082-.3186.3-1.5811.481-2.1046-.127.1027.379-.5203.478-.8083.551" fill="#364548"/><path d="m80.8383 224.344c-.7039-.335-1.0903-.79-1.3053-1.287-.2615.074-.5758.122-.941.143-.1376.008-.2823.011-.4342.011-.1751 0-.3596-.005-.5533-.015.6456.647 1.4398 1.145 2.9103 1.154.1086 0 .2163-.002.3235-.006z" fill="#bdd9d7"/><path d="m79.7943 223.515c-.0974-.132-.1918-.299-.2613-.458-.2615.075-.5759.122-.9412.143.2509.136.6097.263 1.2026.315" fill="#d3ecec"/></g><rect fill="#fff" height="17" rx="8.5" stroke="#777dba" width="17" x="219.5" y="212.5"/><path clip-rule="evenodd" d="m228.723 219.384h1.189v1.218h.601c.278 0 .563-.05.826-.139.129-.044.274-.105.402-.182-.168-.219-.254-.497-.279-.77-.034-.372.04-.856.291-1.147l.125-.145.149.12c.375.302.691.724.746 1.205.452-.133.982-.102 1.38.129l.163.094-.086.168c-.337.659-1.04.863-1.728.827-1.029 2.57-3.27 3.786-5.987 3.786-1.404 0-2.692-.526-3.425-1.774l-.012-.021-.107-.218c-.248-.549-.33-1.151-.275-1.753l.017-.18h1.017v-1.218h1.189v-1.192h2.377v-1.192h1.427z" fill="#364548" fill-rule="evenodd"/><path clip-rule="evenodd" d="m232.574 219.835c.08-.621-.384-1.109-.671-1.341-.331.384-.383 1.391.137 1.814-.29.259-.901.493-1.527.493h-7.62c-.06.655.054 1.258.316 1.774l.087.159c.055.094.115.184.18.271.313.02.602.027.866.021.519-.012.943-.073 1.264-.185.023-.007.047-.005.068.006.022.011.038.029.046.052.007.022.006.047-.004.069-.01.021-.028.038-.05.047-.043.015-.087.028-.133.042-.253.072-.524.121-.874.142.021.001-.022.003-.022.003-.012.001-.027.003-.039.004-.137.007-.286.009-.438.009-.166 0-.33-.003-.513-.013l-.004.004c.634.715 1.627 1.144 2.871 1.144 2.634 0 4.867-1.17 5.856-3.798.702.073 1.376-.107 1.683-.707-.488-.283-1.117-.193-1.479-.01z" fill="#22a0c8" fill-rule="evenodd"/><path clip-rule="evenodd" d="m232.574 219.835c.08-.621-.384-1.109-.671-1.341-.331.384-.383 1.391.137 1.814-.29.259-.901.493-1.527.493h-7.168c-.032 1.003.34 1.764.997 2.225.519-.012.943-.073 1.264-.185.023-.007.047-.005.068.006.022.011.038.029.046.052.007.022.006.047-.004.069-.01.021-.028.038-.05.047-.043.015-.087.028-.133.042-.253.072-.548.127-.898.149 0 0-.008-.008-.008-.008.896.46 2.196.459 3.685-.115 1.671-.643 3.225-1.869 4.31-3.271-.016.007-.032.015-.048.023z" fill="#37b1d9" fill-rule="evenodd"/><path clip-rule="evenodd" d="m222.908 221.597c.048.351.15.679.302.978l.086.159c.055.094.115.184.18.271.313.02.602.027.866.021.52-.012.943-.073 1.264-.185.023-.007.048-.005.069.006s.037.029.045.052c.008.022.007.047-.003.069-.01.021-.028.038-.051.047-.042.015-.087.028-.133.042-.253.072-.546.124-.895.145-.012.001-.033.001-.046.002-.137.008-.284.012-.436.012-.166 0-.336-.003-.519-.012.635.715 1.634 1.146 2.878 1.146 2.254 0 4.216-.858 5.354-2.753z" fill="#1b81a5" fill-rule="evenodd"/><path clip-rule="evenodd" d="m223.414 221.597c.134.616.458 1.099.928 1.429.52-.012.943-.073 1.264-.185.023-.007.048-.005.069.006s.037.029.045.052c.008.022.007.047-.003.069-.01.021-.028.038-.051.047-.042.015-.087.028-.133.042-.253.072-.552.124-.902.145.896.461 2.192.455 3.682-.119.901-.347 1.768-.864 2.547-1.486z" fill="#1d91b4" fill-rule="evenodd"/><path clip-rule="evenodd" d="m223.928 219.582h1.03v1.033h-1.03zm.086.087h.081v.86h-.081zm.152 0h.085v.86h-.085zm.157 0h.084v.86h-.084zm.156 0h.084v.86h-.084zm.156 0h.084v.86h-.084zm.156 0h.081v.86h-.081zm.326-1.278h1.03v1.033h-1.03zm.085.086h.082v.86h-.082zm.153 0h.085v.86h-.085zm.156 0h.085v.86h-.085zm.157 0h.084v.86h-.084zm.156 0h.084v.86h-.084zm.156 0h.081v.86h-.081z" fill="#23a3c2" fill-rule="evenodd"/><path clip-rule="evenodd" d="m225.117 219.582h1.03v1.033h-1.03zm.086.086h.081v.861h-.081zm.152 0h.085v.861h-.084v-.861zm.157 0h.084v.861h-.084zm.156 0h.084v.861h-.084zm.156 0h.084v.861h-.084zm.156 0h.081v.861h-.081z" fill="#34bbde" fill-rule="evenodd"/><path clip-rule="evenodd" d="m226.306 219.582h1.03v1.033h-1.03zm.086.086h.081v.861h-.081zm.152 0h.085v.861h-.085zm.156 0h.085v.861h-.085zm.157 0h.084v.861h-.084zm.156 0h.084v.861h-.084zm.156 0h.081v.861h-.081z" fill="#23a3c2" fill-rule="evenodd"/><path clip-rule="evenodd" d="m226.306 218.391h1.03v1.033h-1.03zm.086.086h.081v.86h-.081zm.152 0h.085v.86h-.085zm.156 0h.085v.86h-.085zm.157 0h.084v.86h-.084zm.156 0h.084v.86h-.084zm.156 0h.081v.86h-.081zm.326 1.105h1.03v1.033h-1.03zm.085.087h.082v.86h-.082zm.153 0h.085v.86h-.085zm.156 0h.085v.86h-.085zm.156 0h.085v.86h-.085zm.157 0h.084v.86h-.084zm.156 0h.081v.86h-.081z" fill="#34bbde" fill-rule="evenodd"/><path clip-rule="evenodd" d="m227.494 218.391h1.031v1.033h-1.031zm.086.086h.081v.86h-.081zm.153 0h.084v.86h-.084zm.156 0h.085v.86h-.085zm.156 0h.085v.86h-.085zm.156 0h.085v.86h-.085zm.156 0h.082v.86h-.082z" fill="#23a3c2" fill-rule="evenodd"/><path clip-rule="evenodd" d="m227.494 217.199h1.031v1.033h-1.031zm.086.086h.081v.861h-.081zm.153 0h.084v.861h-.084zm.156 0h.085v.861h-.085zm.156 0h.085v.861h-.085zm.156 0h.085v.861h-.085zm.156 0h.082v.861h-.082z" fill="#34bbde" fill-rule="evenodd"/><path clip-rule="evenodd" d="m228.683 219.582h1.03v1.033h-1.03zm.086.086h.081v.861h-.081zm.153 0h.084v.861h-.084zm.156 0h.085v.861h-.085zm.156 0h.085v.861h-.085zm.156 0h.085v.861h-.085zm.156 0h.082v.861h-.082z" fill="#23a3c2" fill-rule="evenodd"/><path clip-rule="evenodd" d="m226.083 222.29c.037 0 .075.007.11.021s.066.035.093.061c.027.027.048.058.063.093.014.035.022.072.022.11s-.008.075-.022.11c-.015.035-.036.066-.063.093-.027.026-.058.047-.093.061-.035.015-.073.022-.11.021-.075-.001-.146-.031-.199-.085-.052-.053-.082-.125-.082-.2s.03-.147.082-.2c.053-.053.124-.084.199-.085z" fill="#d3ecec" fill-rule="evenodd"/><path clip-rule="evenodd" d="m226.083 222.371c.026 0 .05.005.073.014-.016.009-.028.023-.035.04s-.008.036-.003.054c.004.017.015.033.029.044.015.011.032.017.051.017.031 0 .058-.017.073-.043.016.04.02.085.009.128-.011.042-.034.08-.068.108s-.076.044-.119.046c-.044.002-.087-.01-.123-.034-.037-.024-.064-.06-.079-.101s-.016-.086-.003-.128c.012-.042.038-.078.073-.105.035-.026.078-.04.122-.04zm-5.028-.671h13.223c-.288-.073-.911-.172-.809-.551-.523.608-1.786.427-2.104.127-.355.516-2.421.32-2.565-.082-.445.523-1.823.523-2.268 0-.144.402-2.21.598-2.564.082-.319.3-1.581.481-2.105-.127.103.379-.52.478-.808.551" fill="#364548" fill-rule="evenodd"/><path clip-rule="evenodd" d="m226.838 224.344c-.704-.335-1.09-.79-1.305-1.287-.261.074-.576.122-.941.143-.138.008-.282.011-.434.011-.175 0-.36-.005-.554-.015.646.647 1.44 1.145 2.911 1.154.108 0 .216-.002.323-.006z" fill="#bdd9d7" fill-rule="evenodd"/><path clip-rule="evenodd" d="m225.794 223.515c-.097-.132-.192-.299-.261-.458-.262.075-.576.122-.941.143.251.136.61.263 1.202.315" fill="#d3ecec" fill-rule="evenodd"/><rect fill="#fff" height="17" rx="8.5" stroke="#777dba" width="17" x="147.5" y="212.5"/><path d="m156.946 225.972s.213-1.025 1.1-2.256c.617-.357 1.236-.794 1.76-1.318.485-2.403-.251-4.981-.251-4.981s-2.578-.735-4.981-.251c-.524.525-.961 1.143-1.317 1.76-1.232.888-2.257 1.1-2.257 1.1s.82.563 1.216 1.202c-.169.486-.248.8-.248.8.064.3.254.649.516 1.003-.181.143-.393.292-.623.417-.028.015-.056.03-.084.044.198.652 1.071 1.473 1.707 1.695.013-.026.026-.051.04-.076.128-.237.282-.454.429-.638.357.258.705.451.992.531 0 0 .313-.079.799-.248.639.396 1.202 1.216 1.202 1.216zm-1.812-2.171c-.366-.159-.852-.549-1.183-.88-.448-.448-.69-.83-.783-1.067.157-.536.761-2.388 1.921-3.633 1.4-.237 2.866.018 3.504.159.14.638.396 2.104.158 3.503-1.237 1.154-3.062 1.754-3.617 1.918z" fill="#54a3da"/><path d="m156.36 221.581c.53 0 .959-.429.959-.959 0-.529-.429-.958-.959-.958-.529 0-.958.429-.958.958 0 .53.429.959.958.959z" fill="#f1616e"/><path d="m205.495 68.6532v4.0993h-157.8558v-52.9175h4.036" stroke="#757ed3" stroke-width="1.63319"/><path d="m186.139 50.7637h-111.1009v8.1011h111.1009z" fill="#599af2"/><path d="m85.4538 50.7637h-10.4157v8.1011h10.4157z" fill="#52dec6"/><path d="m51.5515 8.75995h161.546v58.5463h-161.546z" stroke="#39429c" stroke-width="1.63319"/><path d="m51.8166 25.8166h161.367v41.3668h-161.367z" stroke="#39429c" stroke-width="1.63319"/><circle cx="64.2203" cy="17.1612" fill="#52dec6" r="2.51375"/><circle cx="73.8765" cy="17.1612" fill="#599af2" r="2.51375"/><path d="m75.0381 33.4043h15.0449v12.7303h-15.0449z" fill="#ef6d9c"/><path d="m94.7124 34.5615h35.8763v4.62919h-35.8763z" fill="#a1a5d0"/><path d="m94.7124 40.3486h23.146v4.62919h-23.146z" fill="#a1a5d0"/><ellipse cx="206.021" cy="14.4663" fill="#fff" rx="12.9382" ry="13.4663"/><path d="m217.94 14.3854c.938 7.2514-4.08 13.3854-11.472 13.3854-7.393 0-13.385-5.9928-13.385-13.3854 0-7.39255 5.992-13.3854 13.385-13.3854 7.72 0 13.818 6.09723 13.349 14.5395" stroke="#39429c" stroke-linecap="round" stroke-width="1.1573"/><g clip-path="url(#app-a)" clip-rule="evenodd" fill-rule="evenodd"><path d="m203.866 6c-.885.00069-1.6.76179-1.6 1.69965s.716 1.69896 1.6 1.69966h1.601v-1.69896c0-.93786-.716-1.69896-1.601-1.70035zm0 4.5333h-4.266c-.885.0007-1.601.7618-1.6 1.6997-.002.9378.715 1.6989 1.599 1.7003h4.267c.884-.0007 1.601-.7618 1.6-1.6996.001-.9386-.716-1.6997-1.6-1.7004z" fill="#36c5f0"/><path d="m214 12.233c.001-.9379-.716-1.699-1.6-1.6997-.884.0007-1.601.7618-1.6 1.6997v1.7003h1.6c.884-.0007 1.601-.7618 1.6-1.7003zm-4.266 0v-4.53335c0-.93716-.716-1.69826-1.6-1.69965-.885.00069-1.601.76179-1.6 1.69965v4.53335c-.002.9378.715 1.6989 1.599 1.7003.885-.0007 1.601-.7618 1.601-1.7003z" fill="#2eb67d"/><path d="m208.133 23.0005c.884-.0007 1.601-.7618 1.6-1.6997.001-.9379-.716-1.699-1.6-1.6997h-1.6v1.6997c-.001.9372.716 1.6983 1.6 1.6997zm0-4.5341h4.267c.884-.0007 1.601-.7618 1.6-1.6996.001-.9379-.715-1.699-1.6-1.7004h-4.266c-.885.0007-1.601.7618-1.601 1.6997 0 .9385.716 1.6996 1.6 1.7003z" fill="#ecb22e"/><path d="m198 16.7661c-.001.9378.716 1.6989 1.6 1.6996.885-.0007 1.601-.7618 1.601-1.6996v-1.6997h-1.601c-.884.0007-1.601.7618-1.6 1.6997zm4.267 0v4.5333c-.002.9379.715 1.699 1.599 1.7004.885-.0007 1.601-.7618 1.601-1.6997v-4.5327c.001-.9378-.716-1.6989-1.6-1.7003-.885 0-1.601.7611-1.6 1.699 0 0 0 .0007 0 0z" fill="#e01e5a"/></g><path d="m80.8248 34.1856c-.5754.7554-1.7715 2.3258-1.9532 2.5643-.1817.2386-.4997.656-.636.8349l-.5455.3667-1.5444 2.0277" stroke="#777dba" stroke-linecap="round" stroke-width=".896907"/><path d="m85.3426 45.0528c.4496-.5902 1.3843-1.8173 1.5263-2.0037.1419-.1864.3904-.5126.4969-.6524l.3241-.3485 1.2068-1.5844" stroke="#777dba" stroke-linecap="round" stroke-width=".896907"/><path d="m87.5965 34.4286c-1.1006 1.4448-3.3885 4.4487-3.736 4.9049-.3476.4563-.9557 1.2548-1.2164 1.597l-1.5557.3912-2.954 3.8783" stroke="#777dba" stroke-linecap="round" stroke-width=".896907"/><path d="m176.05 119.082v-7.749h1.378v3.229c.179-.295.42-.524.721-.689.308-.172.66-.259 1.055-.259.66 0 1.169.209 1.528.625.366.416.549 1.026.549 1.829v3.014h-1.367v-2.884c0-.46-.093-.811-.28-1.055-.179-.244-.466-.366-.861-.366-.387 0-.71.136-.968.409-.252.273-.377.653-.377 1.141v2.755zm8.927 0c-.56 0-1.008-.136-1.345-.409-.338-.273-.506-.757-.506-1.453v-2.325h-.915v-1.151h.915l.161-1.432h1.216v1.432h1.443v1.151h-1.443v2.336c0 .258.054.438.162.538.115.093.308.14.581.14h.667v1.173zm4.53 0c-.56 0-1.008-.136-1.345-.409-.338-.273-.506-.757-.506-1.453v-2.325h-.915v-1.151h.915l.161-1.432h1.216v1.432h1.443v1.151h-1.443v2.336c0 .258.054.438.162.538.115.093.308.14.581.14h.667v1.173zm2.151 2.368v-7.706h1.227l.151.764c.172-.237.398-.445.678-.624.287-.18.657-.27 1.109-.27.502 0 .95.122 1.345.366s.707.578.936 1.001c.23.424.345.904.345 1.443 0 .538-.115 1.018-.345 1.442-.229.416-.541.746-.936.99-.395.237-.843.355-1.345.355-.402 0-.754-.075-1.055-.226s-.545-.362-.732-.635v3.1zm2.874-3.444c.438 0 .8-.147 1.087-.442.287-.294.431-.674.431-1.14 0-.467-.144-.851-.431-1.152s-.649-.452-1.087-.452c-.445 0-.811.151-1.098.452-.279.294-.419.674-.419 1.141 0 .466.14.85.419 1.151.287.295.653.442 1.098.442zm4.74 1.151c-.252 0-.46-.079-.625-.236-.158-.158-.237-.348-.237-.571 0-.229.079-.423.237-.581.165-.158.373-.237.625-.237.251 0 .455.079.613.237.165.158.248.352.248.581 0 .223-.083.413-.248.571-.158.157-.362.236-.613.236zm4.2.054c-.474 0-.89-.075-1.249-.226-.359-.158-.646-.373-.861-.646-.215-.272-.344-.588-.387-.947h1.388c.043.208.158.388.344.538.194.144.442.216.743.216s.52-.061.657-.183c.143-.122.215-.262.215-.42 0-.23-.101-.384-.302-.463-.2-.086-.48-.168-.839-.247-.23-.051-.463-.112-.7-.183-.236-.072-.455-.162-.656-.269-.194-.115-.352-.259-.474-.431-.122-.179-.183-.398-.183-.657 0-.473.187-.871.56-1.194.38-.323.911-.485 1.593-.485.631 0 1.134.148 1.507.442.38.294.606.699.678 1.216h-1.303c-.078-.395-.376-.592-.893-.592-.258 0-.459.05-.603.151-.136.1-.204.226-.204.376 0 .158.104.284.312.377s.484.179.829.258c.373.087.714.183 1.022.291.316.1.567.255.754.463.186.201.279.491.279.872.008.33-.078.627-.258.893-.179.265-.438.473-.775.624s-.735.226-1.194.226zm5.658-.129c-.559 0-1.008-.136-1.345-.409s-.506-.757-.506-1.453v-2.325h-.915v-1.151h.915l.162-1.432h1.216v1.432h1.442v1.151h-1.442v2.336c0 .258.054.438.161.538.115.093.309.14.581.14h.668v1.173zm4.577.129c-.517 0-.983-.118-1.399-.355-.409-.237-.736-.563-.98-.979-.237-.424-.355-.912-.355-1.464 0-.553.122-1.037.366-1.453.244-.423.57-.754.979-.99.416-.237.883-.356 1.4-.356.509 0 .968.119 1.377.356.416.236.743.567.98.99.244.416.366.9.366 1.453 0 .552-.122 1.04-.366 1.464-.237.416-.564.742-.98.979s-.879.355-1.388.355zm0-1.194c.359 0 .671-.133.936-.399.266-.272.398-.674.398-1.205s-.132-.929-.398-1.195c-.265-.273-.574-.409-.925-.409-.366 0-.682.136-.948.409-.258.266-.387.664-.387 1.195s.129.933.387 1.205c.266.266.578.399.937.399zm3.965 1.065v-5.338h1.227l.129 1.001c.194-.345.456-.617.786-.818.337-.208.732-.313 1.184-.313v1.453h-.387c-.302 0-.571.047-.808.14-.236.094-.423.255-.559.485-.13.229-.194.549-.194.958v2.432zm4.935 2.368 1.238-2.723h-.323l-2.078-4.983h1.497l1.496 3.756 1.56-3.756h1.464l-3.39 7.706z" fill="#39429c"/><path d="m262.351 147.925v5.003h-101.351v-64.5774h4.109" stroke="#757ed3" stroke-width="1.40245"/><path d="m187.907 130.504h-12.556v7.175h12.556z" fill="#52dec6"/><path d="m203.155 130.504h-11.66v7.175h11.66z" fill="#599af2"/><path d="m251.588 130.504h-44.845v7.175h44.845z" fill="#ef6d9c"/><path d="m165.289 85.4639h101.742v63.1749h-101.742z" stroke="#39429c" stroke-width="1.40245"/><path d="m165.289 98.918h101.742v49.7213h-101.742z" stroke="#39429c" stroke-width="1.40245"/><circle cx="182.723" cy="92.3031" fill="#52dec6" r="2.1586"/><circle cx="173.921" cy="92.3031" fill="#599af2" r="2.1586"/><circle cx="257.866" cy="88.3505" fill="#39429c" r="14.3505"/><path d="m259.562 81.8382-4.667 12.3905c-.188.4969.066 1.0505.567 1.2364.5.1859 1.057-.0662 1.245-.5631l4.667-12.3906c.188-.4969-.066-1.0504-.567-1.2364-.5-.1859-1.057.0662-1.245.5632z" fill="#9791ff"/><path d="m263.579 83.0014-1.863 4.8824c-.161.4325.057.9144.488 1.0762s.91-.0576 1.072-.4902l1.862-4.8824c.161-.4325-.057-.9143-.488-1.0761-.431-.1619-.91.0576-1.071.4901z" fill="#fe585a"/><path d="m252.654 88.6405-1.863 4.7982c-.161.4251.058.8986.488 1.0576.431.1591.911-.0566 1.072-.4817l1.862-4.7982c.161-.4251-.057-.8986-.488-1.0576-.43-.1591-.91.0566-1.071.4817z" fill="#96c8eb"/><path d="m262.491 92.6413-2.139.8841c-.382.1576-.562.5925-.404.9713.159.3789.597.5582.978.4006l3.18-1.314c.146-.0604.273-.1596.366-.2867.281-.3826.196-.9189-.19-1.1976l-2.284-1.6528c-.334-.2416-.802-.1686-1.045.1631-.243.3316-.17.7963.164 1.0379z" fill="#ffb81e"/><path d="m255.949 83.5948c.381-.1577.562-.5926.403-.9714-.159-.3789-.597-.5582-.978-.4005l-3.18 1.3139c-.146.0604-.272.1596-.366.2867-.28.3827-.195.9189.19 1.1976l2.284 1.6528c.334.2416.802.1686 1.045-.163.244-.3317.17-.7964-.164-1.038l-1.374-.994z" fill="#ffb81e"/><path d="m19.6127 130.211c-.7534 0-1.4135-.165-1.9804-.495-.5597-.33-1.0009-.786-1.3238-1.367-.3157-.588-.4736-1.266-.4736-2.034s.1579-1.442.4736-2.023c.3229-.589.7641-1.048 1.3238-1.378.5669-.33 1.227-.495 1.9804-.495.7462 0 1.4028.165 1.9696.495s1.0081.789 1.3238 1.378c.3157.581.4736 1.255.4736 2.023s-.1579 1.446-.4736 2.034c-.3157.581-.757 1.037-1.3238 1.367s-1.2234.495-1.9696.495zm0-1.238c.7175 0 1.2879-.236 1.7113-.71.4305-.473.6458-1.123.6458-1.948s-.2153-1.474-.6458-1.948c-.4234-.474-.9938-.71-1.7113-.71s-1.2916.236-1.7221.71-.6457 1.123-.6457 1.948.2152 1.475.6457 1.948c.4305.474 1.0046.71 1.7221.71zm4.9834 1.109v-7.534h1.6359l2.4002 4.779 2.3678-4.779h1.6359v7.534h-1.3776v-5.198l-2.0988 4.122h-1.087l-2.0988-4.122v5.198zm12.795.129c-.7103 0-1.331-.161-1.862-.484-.5309-.323-.9435-.771-1.2377-1.346-.2942-.581-.4413-1.255-.4413-2.023 0-.775.1507-1.457.4521-2.045.3085-.595.7426-1.058 1.3023-1.388.5668-.338 1.2377-.506 2.0126-.506.8826 0 1.6145.212 2.1957.635s.9579 1.008 1.1301 1.754h-1.5391c-.1148-.351-.3229-.624-.6243-.818-.3013-.201-.6888-.301-1.1624-.301-.7534 0-1.3346.24-1.7435.721-.409.474-.6135 1.127-.6135 1.959s.2009 1.478.6027 1.937c.409.452.9615.678 1.6575.678.6816 0 1.1947-.183 1.5391-.549.3516-.373.5632-.861.635-1.463h-1.905v-1.034h3.2934v4.144h-1.27l-.1077-.99c-.2439.359-.5489.635-.9148.829-.3659.193-.8323.29-1.3992.29zm7.5633-.129v-5.338h1.227l.1291 1.001c.1938-.345.4557-.617.7857-.818.3373-.208.7319-.313 1.1839-.313v1.453h-.3874c-.3014 0-.5705.047-.8072.14-.2368.094-.4234.255-.5597.485-.1292.229-.1937.549-.1937.958v2.432zm9.412-5.338v5.338h-1.2162l-.1077-.904c-.165.316-.4054.567-.7211.753-.3085.187-.6744.28-1.0978.28-.6601 0-1.1731-.208-1.5391-.624-.3659-.416-.5489-1.026-.5489-1.83v-3.013h1.3777v2.884c0 .459.0932.811.2798 1.055s.4772.366.8718.366c.3875 0 .7032-.137.9471-.409.2512-.273.3767-.653.3767-1.141v-2.755zm1.4034 5.338v-5.338h1.2163l.1076.904c.165-.316.4018-.567.7103-.754.3157-.186.6853-.28 1.1086-.28.6601 0 1.1732.209 1.5391.625s.5489 1.026.5489 1.829v3.014h-1.3776v-2.884c0-.46-.0933-.811-.2799-1.055-.1865-.244-.4771-.366-.8718-.366-.3874 0-.7067.136-.9579.409-.2439.273-.3659.653-.3659 1.141v2.755z" fill="#39429c"/><path d="m102.351 158.925v5.003h-101.351v-64.5774h4.1088" stroke="#757ed3" stroke-width="1.40245"/><path d="m27.9073 141.505h-12.5567v7.175h12.5567z" fill="#52dec6"/><path d="m43.1544 141.505h-11.6598v7.175h11.6598z" fill="#599af2"/><path d="m91.5875 141.505h-44.8453v7.175h44.8453z" fill="#ef6d9c"/><path d="m5.28863 96.4639h101.742v63.1749h-101.742z" stroke="#39429c" stroke-width="1.40245"/><path d="m5.28863 109.918h101.742v49.7213h-101.742z" stroke="#39429c" stroke-width="1.40245"/><circle cx="22.7231" cy="103.303" fill="#52dec6" r="2.1586"/><circle cx="13.9213" cy="103.303" fill="#599af2" r="2.1586"/><circle cx="97.8661" cy="99.3505" fill="#39429c" r="14.3505"/><path d="m95.86 92.1748h8.945l-3.957 3.8584h-9.1727z" fill="#56dcbd"/><path d="m91.5879 96.4219h3.8333s0 .9822.76.9822.8127-.9822.8127-.9822h3.7801v9.1001h-1.9876s-.1653-.586-.6863-.586-.6615.586-.6615.586h-2.6878s-.1006-.586-.6557-.586c-.555 0-.6382.586-.6382.586h-1.869z" fill="#e1eaff"/><path d="m104.923 92.6074.011 4.0498-1.991 2.2086s-.072 1.1842.399.9781c.471-.2059.466-1.4092.466-1.4092l1.115-1.2385v2.0968 2.196l-3.802 3.847v-8.9969z" fill="#477bf3"/><ellipse cx="55.785" cy="206.534" fill="#fff" rx="9.15981" ry="9.53368" transform="matrix(-1 0 0 -1 111.57 413.068)"/><path d="m60.9945 206.603c0-.451-.0374-.78-.1184-1.121h-5.2662v2.034h3.0911c-.0623.506-.3988 1.267-1.1467 1.779l-.0105.068 1.6651 1.26.1154.012c1.0594-.957 1.6702-2.363 1.6702-4.032z" fill="#4285f4"/><path d="m55.6094 211.962c1.5144 0 2.7857-.487 3.7144-1.327l-1.77-1.34c-.4736.323-1.1093.548-1.9444.548-1.4833 0-2.7422-.956-3.191-2.278l-.0657.006-1.7314 1.309-.0227.062c.9224 1.79 2.817 3.02 5.0108 3.02z" fill="#34a853"/><path d="m52.4186 207.565c-.1184-.341-.187-.706-.187-1.084 0-.377.0686-.743.1807-1.084l-.0031-.072-1.7531-1.331-.0573.027c-.3802.743-.5983 1.577-.5983 2.46s.2181 1.718.5983 2.461z" fill="#fbbc05"/><path d="m55.6093 203.119c1.0533 0 1.7637.445 2.1688.816l1.583-1.51c-.9722-.883-2.2373-1.425-3.7518-1.425-2.1937 0-4.0883 1.23-5.0107 3.021l1.8136 1.376c.455-1.321 1.7139-2.278 3.1971-2.278z" fill="#eb4335"/><path d="m47.3463 206.591c-.6641-5.134 2.8885-9.476 8.1221-9.476 5.2337 0 9.4764 4.242 9.4764 9.476s-4.2427 9.476-9.4764 9.476c-5.4657 0-9.7824-4.316-9.4503-10.293" stroke="#39429c" stroke-linecap="round" stroke-width="1.1573"/><ellipse cx="129.637" cy="208.008" fill="#fff" rx="9.9964" ry="10.4044" transform="matrix(.25881905 -.96592583 .96592583 .25881905 -104.835824 279.391294)"/><path d="m131.96 199.096c5.6.75 9.174 5.722 7.696 11.239-1.479 5.517-7.149 8.791-12.666 7.312-5.518-1.478-8.792-7.149-7.313-12.666 1.544-5.762 7.313-9.093 13.52-7.054" stroke="#39429c" stroke-linecap="round" stroke-width="1.1573"/><ellipse cx="201.553" cy="207.061" fill="#fff" rx="10.5728" ry="11.0043" transform="matrix(-.25881905 .96592583 -.96592583 -.25881905 453.724323 65.967082)"/><path d="m201.494 211.552c-2.235 0-4.046-1.812-4.046-4.046 0-2.235 1.811-4.046 4.046-4.046s4.046 1.811 4.046 4.046c0 2.234-1.811 4.046-4.046 4.046zm0-9.54c-3.034 0-5.494 2.46-5.494 5.494s2.46 5.494 5.494 5.494 5.494-2.46 5.494-5.494-2.46-5.494-5.494-5.494z" fill="#f22f46"/><path d="m201.72 206.137c0-.63.511-1.142 1.142-1.142s1.143.512 1.143 1.142c0 .631-.512 1.143-1.143 1.143s-1.142-.512-1.142-1.143zm0 2.737c0-.631.511-1.142 1.142-1.142s1.143.511 1.143 1.142-.512 1.142-1.143 1.142-1.142-.511-1.142-1.142zm-2.737 0c0-.631.512-1.142 1.143-1.142s1.142.511 1.142 1.142-.511 1.142-1.142 1.142-1.143-.511-1.143-1.142zm0-2.737c0-.63.512-1.142 1.143-1.142s1.142.512 1.142 1.142c0 .631-.511 1.143-1.142 1.143s-1.143-.512-1.143-1.143z" fill="#f22f46"/><path d="m199.095 216.486c-5.922-.793-9.702-6.051-8.139-11.886 1.564-5.835 7.562-9.298 13.397-7.735 5.835 1.564 9.298 7.562 7.734 13.397-1.632 6.094-7.735 9.617-14.299 7.461" stroke="#39429c" stroke-linecap="round" stroke-width="1.1573"/><path d="m133 79v95m0 0-3-2.952m3 2.952 3-2.952" stroke="#ef6d9c" stroke-dasharray="1.79 1.79" stroke-linecap="round" stroke-width=".896907"/><path d="m257 158v39h-11" stroke="#ef6d9c" stroke-dasharray="1.79 1.79" stroke-linecap="round" stroke-width=".896907"/><path d="m249.139 193.825-3.139 3.139 3.139 3.14" stroke="#ef6d9c" stroke-linecap="round" stroke-width=".896907"/><path d="m13 174v25h8" stroke="#ef6d9c" stroke-dasharray="1.79 1.79" stroke-linecap="round" stroke-width=".896907"/><path d="m18.8711 195.975 3.1392 3.139-3.1392 3.139" stroke="#ef6d9c" stroke-linecap="round" stroke-width=".896907"/><g clip-path="url(#app-b)"><path d="m125.44 206.714c-.165.027-.334.028-.499.002-.163-.03-.331-.12-.422-.257-.355-.015-.68-.305-.735-.656-.255-.13-.479-.41-.615-.664-.06-.124-.099-.257-.114-.395.187-.21.475-.396.797-.14.016-.037.039-.07.068-.098s.063-.049.101-.064c.075-.028.155-.041.235-.039.106 0 .232.032.304.109.32-.234.795-.317 1.182-.233" fill="#3f3a3b"/><path d="m133.664 206.714c.166.027.335.028.5.002.162-.03.33-.12.422-.257.355-.015.68-.305.735-.656.255-.13.479-.41.614-.664.061-.124.1-.257.115-.395-.187-.21-.475-.396-.798-.14-.015-.037-.039-.07-.068-.098-.028-.028-.063-.049-.1-.064-.075-.028-.155-.041-.235-.039-.106 0-.232.032-.305.109-.319-.234-.794-.317-1.182-.233" fill="#3f3a3b"/><path d="m129.553 202.386c-.66-.011-1.345.02-1.978.228-.675.222-1.203.595-1.579 1.188-.185.292-.391.747-.464 1.086-.141.654-.188 1.405-.05 2.061.207.984 1.293 1.476 2.199 1.607.612.088 1.229.138 1.847.149.638.012 1.264-.058 1.896-.149.906-.131 1.992-.623 2.199-1.607.138-.656.091-1.407-.05-2.061-.073-.338-.279-.794-.464-1.086-.376-.593-.904-.966-1.579-1.188-.633-.208-1.318-.239-1.978-.228" fill="#f48ba9"/><path d="m131.3 207.815c.559-.167 1.108-.518 1.459-.985.008-.848-.14-1.741-.355-2.561-.303-.119-.612-.222-.925-.309-.763-.215-1.555-.307-2.346-.271-.837.041-1.655.274-2.432.58-.216.82-.363 1.713-.355 2.561.35.467.9.818 1.459.985 1.101.329 2.396.328 3.495 0z" fill="#ffe6e6"/><path d="m130.154 202.391c-.038-.304-.245-.58-.602-.591-.356.011-.563.286-.601.591" fill="#3f3a3b"/><path d="m128.859 206.961c.674-.001 1.346-.035 2.018-.102l.001-.428c.003-.022-.002-.044-.015-.062-.019-.022-.051-.019-.079-.017-.817.081-1.638.119-2.46.115-.007-.002-.014-.003-.022-.001-.007.002-.014.005-.019.01-.006.005-.01.012-.012.019s-.003.014-.001.022v.334c-.001.009 0 .018.002.026.002.009.006.017.012.024.083.079.47.06.575.06z" fill="#fff"/><path d="m129.545 200.674c.091 0 .164-.074.164-.164 0-.091-.073-.164-.164-.164s-.164.073-.164.164c0 .09.073.164.164.164z" fill="#dcc6ea"/><path d="m127.187 208.486s-1.058.477-1.18.564c-.123.087.043.04.171.098.128.057.245.116.278.253.032.138.012.111.012.111l.69-.311.106-.715z" fill="#f48ba9"/><path d="m125.86 209.84s.221.043.362-.034c.14-.078.246-.243.246-.243l.23.16.345.259s-.243.01-.304.178c-.036.094-.06.191-.072.289l-.462-.271z" fill="#f48ba9"/><path d="m125.92 209.13c-.077.028-.145.074-.2.134-.033.036-.077.071-.094.117-.041.114.009.233.056.336.032.07.073.095.15.109.091.015.195.035.287.024.17-.022.308-.17.329-.337.013-.097-.038-.25-.129-.3-.122-.065-.261-.094-.399-.083z" fill="#3f3a3b"/><path d="m127.263 208.487-.22 1.496s-.105.676-.084.842c.022.166.118.887.374 1.057.257.17.602.429 1.429.475.826.047 1.381.058 2.012-.082.632-.139.93-.251 1.086-.536.155-.285.25-.366.26-.682.011-.315.003-.536.003-.536l-.097-.783-.187-1.252s-1.454.267-2.287.234c-.833-.032-2.289-.233-2.289-.233z" fill="#f48ba9"/><path d="m131.89 208.498s.739.321.999.446c.149.07.291.154.425.25 0 0-.304-.118-.436-.031-.081.055-.152.124-.209.203l-.053.146-.67-.31z" fill="#f48ba9"/><path d="m132.082 209.959.521-.382s.166.209.31.239c.143.03.356.011.356.011l-.182.201-.625.451-.071-.256-.168-.195z" fill="#f48ba9"/><path d="m133.069 209.155c-.122 0-.274.01-.363.105-.072.076-.089.233-.061.33.018.064.034.113.09.152s.121.064.189.072c.086.01.17.024.257.018.058-.005.113-.01.163-.042.062-.039.082-.09.105-.157.031-.093.047-.196 0-.285-.052-.097-.189-.158-.286-.197" fill="#3f3a3b"/><path d="m127.698 212.146s.016.428.024.487c.002.03.011.06.027.087 0 0 .996.202 1.959.172.964-.03 1.065-.087 1.065-.087l.616-.136s.036-.251.033-.314c-.002-.063-.065-.209-.065-.209-.486.163-.994.248-1.507.251-.841.004-1.576-.098-1.753-.141-.178-.044-.399-.11-.399-.11z" fill="#f48ba9"/><path d="m127.829 212.718s.028.56.177.791c.149.23.391.602.761.718.369.116.438.136.698.145.261.008.732-.035 1.053-.292.32-.256.42-.425.42-.425s.207-.307.217-.478c.011-.172.061-.459.061-.459s-.837.226-1.768.175-1.419-.123-1.419-.123z" fill="#3f3a3b"/><path d="m126.945 210.012c-.116.082-.254.152-.261.314-.008.171.008.338.105.481.04.059.093.109.164.118.031-.034.022-.11.024-.156.004-.09.004-.182.006-.272.194-.011.395-.038.575-.1.006-.091-.017-.185-.022-.277-.002-.05.006-.08-.038-.103-.062-.032-.195-.034-.263-.04s-.131.011-.198.014" fill="#3f3a3b"/><path d="m132.15 209.995c-.087-.038-.225-.016-.321-.016-.075 0-.19.003-.25.056-.046.04-.018.091-.011.147.008.065.005.149.034.21.015.031-.004.026.03.038.03.011.1-.005.135-.005.093 0 .186.009.278.025.102.018.084.101.1.196.013.074-.009.204.033.265.07-.065.156-.13.2-.219.045-.092.053-.202.049-.304-.007-.163-.118-.313-.277-.393z" fill="#3f3a3b"/><path d="m128.265 209.175c-.109-.067-.213.048-.191.158.006.02.015.039.029.054.014.016.031.028.05.036.02.008.04.011.061.009s.041-.008.058-.019c.081-.056.054-.186-.007-.238z" fill="#ffe6e6"/><path d="m128.732 209.186c.009-.041-.119.004-.142.033-.037.047-.038.142.003.183.06.061.185.045.226-.031.038-.071.011-.16-.087-.185z" fill="#ffe6e6"/><path d="m130.449 209.192c-.026-.077-.23.005-.191.112.026.069.115.104.183.084.108-.032.072-.134.008-.196z" fill="#ffe6e6"/><path d="m130.921 209.153c-.097-.01-.248.109-.144.205.043.04.142.037.182-.004.047-.048.037-.198-.038-.201z" fill="#ffe6e6"/><path d="m127.704 209.577s-.042.72-.064.919.016.645.016.645 1.027.245 1.706.223 1.44-.061 1.69-.118c.25-.056.414-.105.414-.105l-.033-1.006-.033-.558s-2.413.027-2.467.016-1.229-.016-1.229-.016z" fill="#3f3a3b"/><path d="m128.465 211.073c.353 0 .638-.285.638-.637 0-.353-.285-.638-.638-.638-.352 0-.637.285-.637.638 0 .352.285.637.637.637z" fill="#fff"/><path d="m130.653 211.073c.353 0 .638-.285.638-.637 0-.353-.285-.638-.638-.638-.352 0-.637.285-.637.638 0 .352.285.637.637.637z" fill="#fff"/><path d="m129.125 201.99c.069-.053.578-.419.533-.104-.249.068-.323.245-.147.435-.19.011-.417.087-.602.058.033-.144.102-.278.201-.389" fill="#000" opacity=".2"/><path d="m129.733 202.396c-.307.137-.99.641-.898 1.051.022.096.111.212.183.282-.031-.031-.541.197-.613.225-.237.091-.48.172-.701.3-.327.19-.679.355-.799.739-.071.224-.139.459-.142.693-.003.235-.085.547.018.755.302.617.907 1.055 1.547 1.272.312.102.632.179.956.23.171.028.385-.002.448.187-.029-.089-.382.174-.367.32.018.176.212.27.368.309-.168.095-.368.168-.492.333-.071.094-.286.435-.234.544-.13.084-.314.112-.446.145.112.028.178.085.255.163-.139.002-.271-.053-.4.034.09.004.179.029.257.074-.103.033-.38-.002-.409.152.056.01.093-.036.144-.048.036-.005.072-.005.108 0-.152.075-.277.156-.232.354.035.156.161.262.318.167-.085.058-.168.059-.267.048-.063-.007-.166-.037-.13.069.06.172.389.149.508.073-.051.073-.147.085-.218.128.025.09.261.015.31-.022-.057.041-.481.193-.204.293.084.031.176.046.261.076.244.084.52.013.771-.008.165-.015.325-.022.491-.025-.144.055-.28.13-.403.223-.165.124-.418.344-.432.559-.013.193.08.341.291.345-.352-.007-.361.319-.122.449.042.149.287.059.405.09-.17.117-.502.042-.659.185-.232.211.202.418.311.534-.061.006-.292.03-.317.096-.037.101.174.196.246.217.261.081.515-.019.763-.052-.1.06-.596.202-.388.389-.422.206-1.043-.141-1.41-.33-.438-.225-.578-.852-.605-1.302-.245-.005-.049-.452-.113-.588-.037-.076-.137-.073-.218-.12-.094-.056-.134-.117-.202-.206-.099-.13-.21-.272-.249-.433-.035-.15-.032-.306-.047-.458-.011-.114-.093-.308-.023-.413.09-.139.394-.003.536-.049.113-.037.07-.122.076-.234.007-.13-.015-.152-.152-.198-.104-.035-.259-.069-.368-.045-.012-.18.008-.338.033-.517.016-.109.044-.214.058-.321.029-.211.154-.456.134-.666-.169-.058-.348-.077-.512-.14-.083-.035-.163-.079-.237-.131-.224-.146-.423-.199-.594-.429-.097-.132-.203-.242-.282-.389-.051-.091-.092-.187-.121-.288-.123-.437-.122-.922-.092-1.372.031-.465.12-.927.322-1.349.184-.385.343-.84.703-1.109.111-.083.23-.145.337-.234.111-.093.19-.192.324-.252.216-.097.465-.206.702-.229.306-.029.591-.133.902-.132.336 0 .667-.033 1.006-.033" fill="#000" opacity=".2"/><path d="m125.521 204.736c-.056.038-.047.094-.068.152-.029.082-.078.158-.112.239-.071.169-.161.329-.268.478-.054.076-.196.307-.318.261-.127-.048-.157-.422-.169-.538-.015-.139-.014-.276-.024-.417-.048.14-.183.944-.429.801-.171-.099-.152-.433-.185-.597-.024-.126-.039-.276-.103-.389-.089.085-.053.408-.063.53-.014.164-.038.116-.173.046-.154-.081-.256-.21-.337-.368-.052-.101-.029-.217-.035-.326-.045.002-.154.074-.18.12-.043.08.007.179.031.257.043.144.058.221.162.328.078.08.132.15.227.211.084.057.163.119.239.186.109.091.054.088.077.224.029.173.204.321.345.406.121.073.253.095.373.146.128.054.225.183.369.219.174.039.352.057.53.054.019-.339-.009-.682-.01-1.021.001-.167.015-.333.04-.498.016-.112.066-.228.068-.339" fill="#000" opacity=".2"/><path d="m128.585 206.485c.1.048.322 0 .445 0h.323c-.114.006-.234.036-.346.065-.082.022-.269.035-.33.092-.138.129.121.288.244.313-.089.034-.555.059-.633-.035-.036-.043-.032-.276-.03-.338.004-.099.022-.157.13-.141" fill="#000" opacity=".2"/><path d="m130.541 206.432c.13.043.182.03.184.198.002.135-.053.206-.152.288.095.013.211-.004.302-.021.008-.164.02-.332.01-.497-.063-.027-.153-.012-.344.032z" fill="#000" opacity=".2"/><path d="m127.498 204.975c-.092.021-.158.072-.259.066.007.046.046.078.074.116-.041-.004-.06.012-.087.034.157.125.019.444.068.62.057.203.377.257.468.046.039-.091.005-.079-.04-.172-.08-.164-.113-.376-.104-.558" fill="#000" opacity=".2"/><path d="m131.432 205.019c-.154.166-.133.474-.119.695.013.217.302.43.456.192.063-.098.006-.139-.028-.23-.071-.191.018-.466-.135-.625" fill="#000" opacity=".2"/><path d="m133.605 204.757c-.005.186.155.337.201.51.039.15.071.283.168.411.061.081.189.246.304.231.15-.019.197-.28.229-.396.043-.163.043-.332.078-.492.032.135.091.686.316.615.217-.07.281-.577.385-.759 0 .207.121.382.336.259.181-.104.242-.339.447-.41.039.244-.208.506-.344.681-.103.132-.241.243-.349.35-.038.037-.05.087-.082.141-.128.218-.229.419-.465.544-.072.038-.162.009-.214.034-.073.034-.102.122-.179.161-.088.039-.182.066-.278.079-.139.022-.412.125-.532.02.09-.126.064-.284.065-.433.002-.167.014-.328.003-.495-.02-.306-.042-.647-.089-1.051z" fill="#000" opacity=".2"/><path d="m133.649 206.811c-.127.345-.403.645-.652.901-.323.332-.771.585-1.208.739-.25.088-.523.154-.778.217.335.086.788-.134.899.296 0-.157-.029-.311-.02-.468.127.001.23-.085.344-.132.119-.049.235-.094.351-.153.198-.101.369-.204.532-.358.293-.277.381-.594.532-1.042z" fill="#000" opacity=".2"/><path d="m131.942 209.277c-.013.152.04.31.044.457.003.112-.052.157-.13.225.062.005.167.03.204-.011.061-.069-.026-.399-.053-.476" fill="#000" opacity=".2"/><path d="m131.888 208.843c.089.15.405.218.561.282.079.033.152.072.238.076.08.004.166-.031.24 0-.065.018-.05.11-.05.174 0 .105-.004.179.109.223.095.038.285.036.369-.025.071-.05.049-.112.101-.173.043.12.047.272-.073.347-.045.029-.089.061-.142.072-.078.013-.157.017-.236.012-.071-.004-.135-.007-.198.032-.074.046-.13.12-.198.174-.067.054-.154.093-.221.149.028-.166-.229-.178-.326-.22.208-.116.461-.298.603-.495-.174-.056-.352-.08-.522-.155-.061-.027-.192-.07-.222-.14-.037-.081.026-.178-.033-.333z" fill="#000" opacity=".2"/><path d="m131.584 210.104c.097.235.509.241.704.36.015.093.124.185.097.267-.028.086-.166.198-.257.186.08-.139.039-.374-.099-.422s-.318-.063-.465-.078c-.006-.085-.044-.381.02-.313z" fill="#000" opacity=".2"/><path d="m131.682 210.428c.068.062.185.056.255.12s.065.145.073.228c.022.209-.016.419 0 .63.138-.262.152-.653.137-.953-.087-.01-.174-.013-.259-.026-.014-.003-.22-.011-.206.001z" fill="#000" opacity=".2"/><path d="m130.215 212.395c.256 0 .513.003.766-.011.145-.009.326-.072.47-.022.014-.084-.005-.184-.01-.269-.147-.025-.342.102-.482.14-.171.045-.365.069-.527.119" fill="#000" opacity=".2"/><path d="m128.431 214.467c-.103.01-.207.009-.31-.004-.073-.011-.196-.041-.263-.011.035.172.59.148.727.16.222.022.432-.009.652-.043.277-.043.558-.011.838-.011.288 0 .578-.069.843-.171-.223-.024-.458.034-.686.011-.196-.019-.413-.055-.609-.046-.19.008-.369.054-.559.054-.213 0-.424.045-.633.061z" fill="#000" opacity=".2"/><path d="m126.89 208.582c-.162.075-.322.168-.478.253-.087.048-.178.09-.267.134-.04.019-.077.045-.117.065-.004.002-.106.05-.092.06.125.086.315.033.442.132.09.071.098.163.123.268.144.014.368-.118.498-.181.075-.035.129-.06.163-.127.037-.074.022-.168.047-.247.023-.068.047-.083.051-.166.005-.097.037-.191.032-.287-.098.004-.318.057-.402.096z" fill="#000" opacity=".2"/><path d="m126.249 209.201c.063.022.14.116.139.183-.133.044-.307-.018-.27.203.03.179.265.187.305.02-.167.201-.561.357-.741.091-.214-.317.119-.521.403-.573" fill="#000" opacity=".2"/><path d="m126.379 209.745c.065.1.131.185.235.239.13.068.19.028.327.033-.081.012-.187.056-.191.15.128.068.278.003.412.039.065.018.113.052.182.068.069.017.138.03.192.077-.111.004-.485.036-.558.139-.062.087.036.302-.014.417-.073-.034-.199-.067-.235-.15-.032-.073-.011-.232-.025-.315-.171.005-.332-.139-.45-.251-.125-.12-.267-.196-.394-.314.104-.003.492-.009.519-.132z" fill="#000" opacity=".2"/><path d="m128.101 209.147c-.089.028-.184.138-.143.234.056.127.267.134.316.006-.054.011-.099.031-.143-.014-.038-.038-.059-.151-.03-.226z" fill="#000" opacity=".2"/><path d="m128.601 209.168c-.091-.011-.123.181-.103.245.038.124.288.07.309-.044-.045.009-.099.033-.148.022-.079-.019-.113-.129-.058-.223z" fill="#000" opacity=".2"/><path d="m130.313 209.164c-.113-.018-.18.109-.14.201.056.128.243.115.306 0-.16.065-.245-.033-.166-.201z" fill="#000" opacity=".2"/><path d="m130.791 209.163c-.115-.017-.175.142-.135.229.067.143.292.096.351-.027-.056.02-.141.056-.198.012-.048-.036-.061-.134-.018-.214z" fill="#000" opacity=".2"/><path d="m130.086 210.136c-.071.157-.08.334-.026.496.049.143.194.242.304.33.071.056.196.131.291.099.057-.022.111-.051.161-.087.037-.031.046-.08.082-.112-.093.04-.194.056-.295.046-.073-.005-.204-.037-.248-.103-.056-.083.002-.104.072-.086.09.023.218.072.304.014-.074.001-.161.014-.222-.036-.055-.045-.113-.166-.116-.236-.008-.199.258-.263.405-.273-.105-.147-.277.038-.382.044-.024-.166.293-.218.405-.216-.052-.027-.141-.015-.181-.057.123-.045.253-.07.384-.074-.112 0-.219-.048-.331-.057-.054-.004-.109-.001-.163.007-.052.008-.084.035-.132.055-.04.016-.079.018-.117.041-.083.049-.151.12-.195.205z" fill="#000" opacity=".2"/><path d="m132.518 204.801c-.031-.148.009-.38-.084-.507-.079-.109-.313-.147-.434-.18-.192-.052-.383-.173-.587-.162.079.029.138.1.208.144s.139.107.216.143c.076.035.156.061.23.101.073.041.156.073.219.131.07.063.083.137.104.224.033.135.05.281.07.42.016.109.022.219.033.329.011.095.039.184.044.281.015.346.073.701-.018 1.042-.025.1-.056.198-.095.294-.03.071-.097.13-.121.2.058-.046.12-.08.169-.137.068-.082.158-.139.215-.232.043-.071.043-.138.051-.221.011-.099-.019-.198-.008-.296.009-.105.008-.21-.003-.315-.018-.239-.053-.478-.079-.717-.019-.182-.093-.361-.13-.542z" fill="#000" opacity=".2"/><path d="m132.583 203.556c-.054-.013-.111-.018-.167-.015-.016.079.118.111.085.189-.013.032-.046.025-.048.071-.002.051.048.075.059.118-.119.052-.039.103-.02.191.031-.026.012-.078.035-.109.024-.031.065-.033.099-.043.011-.054-.057-.078-.059-.122-.002-.054.079-.043.119-.052-.012-.038-.104-.1-.092-.146.008-.035.099-.044-.011-.082z" fill="#000" opacity=".2"/><path d="m130.276 209.878c-.276.089-.427.31-.442.596-.006.154.038.306.127.432.102.146.348.218.517.24.189.023.356-.046.5-.151-.274.075-.678.064-.828-.229-.139-.274-.074-.553.126-.888z" fill="#000" opacity=".2"/><path d="m131.68 202.669c-.015-.006-.029-.01-.044-.015-.107-.03-.212-.022-.32-.057-.127-.041-.247-.103-.38-.121.23.154.448.307.684.448.315.188.598.418.899.629.231.162.355.323.47.575.043.097.087.198.129.299.14.338.289.698.367 1.055.047.215.08.427.112.642.014.101.031.208.056.305.096-.292.073-.606.043-.905-.017-.179-.023-.379-.078-.552-.047-.151-.121-.299-.186-.445-.179-.397-.326-.782-.612-1.116-.078-.091-.155-.12-.255-.188-.116-.079-.201-.188-.303-.283-.091-.085-.191-.093-.308-.14-.094-.039-.179-.096-.274-.131z" fill="#fff"/><path d="m133.736 204.225c-.095-.003-.243.016-.295.109.091.065.266.034.379.054.106.019.253.039.352.086.204.097.251.331.388.478.009-.115.006-.231-.009-.346-.017-.103-.024-.068-.093-.121-.097-.074-.176-.146-.293-.189-.086-.031-.183-.038-.429-.071z" fill="#fff"/><path d="m134.855 204.389c-.056.001-.253.055-.261.119-.011.094.192.051.256.055.213.01.354.123.427.322.009-.113.035-.321-.068-.399-.078-.058-.243-.07-.354-.097z" fill="#fff"/><path d="m135.724 204.497c-.063-.02-.19-.027-.255.001-.114.05-.12.138-.005.162.193.041.333-.016.507.096.068-.099-.136-.213-.192-.27" fill="#fff"/><path d="m130.511 204.115c-.085-.007-.16-.01-.208-.013-.179-.01-.634.026-.455.313.116.187.494.115.681.09.193-.025.382-.032.576-.042.052-.257-.323-.325-.594-.348z" fill="#fff"/><path d="m129.759 201.835c-.089-.032-.176.003-.108.084.053.064.148.087.199.161.055.077.131.32.266.242.022-.128-.166-.386-.357-.487z" fill="#fff"/><path d="m129.585 200.357c-.092-.028-.167-.005-.097.071.024.027.06.003.087.049.019.033.007.082.001.118.143.035.081-.202.02-.248" fill="#fff"/><path d="m131.182 209.583c-.082-.018-.176-.038-.266-.033-.171.009-.118.074.014.112.099.028.222.057.303.127.08.07.103.182.164.271-.034-.05.087-.526-.041-.532" fill="#fff"/><path d="m132.334 208.68c-.062-.035-.534-.3-.487-.11.208.087.401.213.607.31.148.07.392.272.563.255.013-.096-.145-.203-.217-.248-.055-.034-.116-.05-.169-.085-.054-.034-.097-.093-.297-.122z" fill="#fff"/><path d="m133.28 209.137c-.079-.004-.191-.037-.252.022.094.099.227.05.295.191.048.1.05.243.067.35.112 0 .124-.152.118-.237-.01-.13-.097-.169-.228-.326z" fill="#fff"/><path d="m133.099 209.855c-.149.057-.327.203-.359.366.077-.025.158-.038.229-.079.07-.041.123-.106.188-.152.012-.009.201-.134.162-.149-.067-.024-.144-.016-.22.014z" fill="#fff"/><path d="m131.738 211.564-.009-.002c-.067-.011-.185.126-.237.161s-.231.105-.234.174c-.007.15.237-.013.283-.045s.334-.254.197-.288z" fill="#fff"/><path d="m132.106 210.016c-.035-.011-.135-.056-.13.011.003.044.117.089.152.112.053.032.101.073.142.12.045.061.056.139.113.193.059-.044.007-.203-.013-.261-.029-.084-.102-.115-.144-.186" fill="#fff"/><path d="m131.817 208.952c-.038.122-.022.267-.026.394-.005.144.001.289.02.432.008.053.009.132.053.152.057.025.133.018.193.025.013-.089-.007-.156-.028-.239-.027-.109-.034-.228-.05-.34-.03-.192-.071-.382-.123-.569 0 .052-.024.096-.039.145z" fill="#fff"/><path d="m125.337 204.28c-.108-.04-.603.032-.596.193.144.052.377-.041.526-.063.087-.013.356-.018.362-.129-.02-.008-.042-.013-.064-.012" fill="#fff"/><path d="m124.283 204.421c-.087-.029-.467.038-.334.13.071.05.231-.018.312-.022.076-.004.152-.001.227.009.017-.08-.071-.121-.14-.117" fill="#fff"/><path d="m123.56 204.594c.069-.009.139-.003.206.017-.056-.115-.148-.119-.261-.104-.069.008-.137.024-.202.05-.015.006-.124.08-.127.079.167.056.225-.023.384-.042z" fill="#fff"/><path d="m131.4 212.299c-.084.004-.111.167-.147.233-.038.071-.139.154-.134.232.276.053.281-.258.281-.465z" fill="#fff"/><path d="m131.055 213.51c.139-.209.219-.428.171-.722-.142-.034-.211.408-.264.519-.094.199-.261.373-.405.539-.09.103-.184.213-.265.32.244.028.485-.296.617-.459.2-.25.295-.6.295-.919" fill="#fff"/><g stroke="#1e1e1e" stroke-linecap="round" stroke-linejoin="round"><path d="m133.691 204.553c.148-.033.373-.08.511 0" stroke-width=".065194"/><path d="m134.289 204.672h.021" stroke-width=".065194"/><path d="m134.332 204.78c.004.001.008 0 .012-.002s.007-.005.01-.008" stroke-width=".065194"/><path d="m134.723 204.683c.082-.036.161-.032.25-.033" stroke-width=".065194"/><path d="m135.451 204.683c.133-.025.27-.006.391.054" stroke-width=".065194"/><path d="m135.832 204.835h.054" stroke-width=".065194"/><path d="m133.897 206.562h.131" stroke-width=".065194"/><path d="m134.865 206.193c.024-.02.049-.038.076-.054" stroke-width=".065194"/><path d="m135.549 205.41c.017-.012.032-.027.044-.044" stroke-width=".065194"/><path d="m135.104 204.672-.033.043" stroke-width=".065194"/><path d="m135.19 204.737c-.011.005-.02.013-.028.022-.007.01-.013.021-.015.033" stroke-width=".065194"/><path d="m132.452 203.639c.017-.012.042-.006.065.011" stroke-width=".065194"/><path d="m132.42 203.792c.018.043.068.055.109.065" stroke-width=".065194"/><path d="m129.291 202.01c.123-.091.274-.061.412-.044" stroke-width=".065194"/><path d="m129.78 202.053c.008-.01.02-.018.032-.022" stroke-width=".065194"/><path d="m129.845 202.14c.004 0 .008-.001.012-.003s.007-.005.009-.008" stroke-width=".065194"/><path d="m129.53 200.456c.048 0 .07.039.076.087" stroke-width=".065194"/><path d="m125.162 204.444v.044" stroke-width=".065194"/><path d="m125.303 204.411v.076" stroke-width=".065194"/><path d="m124.781 204.617c-.031.541-.166 1.195.033 1.717" stroke-width=".065194"/><path d="m125.064 206.279c-.006.03-.002.06.01.087" stroke-width=".065194"/><path d="m125.162 206.356v.055" stroke-width=".065194"/><path d="m124.01 204.715c-.067.24-.076.478-.076.731 0 .275.094.461.228.692" stroke-width=".065194"/><path d="m124.227 204.617v.087" stroke-width=".065194"/><path d="m124.303 204.64v.108" stroke-width=".065194"/><path d="m123.542 204.628c-.006.005-.01.012-.012.02s-.001.016.001.023" stroke-width=".065194"/><path d="m123.63 204.672c-.001.015-.005.03-.011.043" stroke-width=".065194"/><path d="m123.238 204.78c.022.222.168.558.359.685" stroke-width=".065194"/><path d="m125.813 207.084c.001.011.004.022.01.031s.013.017.023.023" stroke-width=".065194"/><path d="m125.922 206.976c.008.047.028.101.065.13" stroke-width=".065194"/><path d="m131.724 209.094h.054" stroke-width=".065194"/><path d="m131.702 209.279c.009-.002.019-.002.028 0 .01.002.019.005.026.011" stroke-width=".065194"/><path d="m131.138 212.408c.024-.01.05-.013.076-.011" stroke-width=".065194"/><path d="m131.127 212.506h.033" stroke-width=".065194"/><path d="m127.878 212.364c-.001.056.01.112.033.163" stroke-width=".065194"/><path d="m128.302 212.669c.397.065.833.076 1.238.076" stroke-width=".065194"/><path d="m131.79 210.148c.04-.018.11-.011.163-.011" stroke-width=".065194"/><path d="m131.866 210.224h.065" stroke-width=".065194"/><path d="m127.128 210.159c.012.009.073-.015.119-.011" stroke-width=".065194"/><path d="m127.128 210.278h.076" stroke-width=".065194"/><path d="m125.901 209.301c-.124.065-.211.374 0 .358" stroke-width=".065194"/><path d="m126.042 209.583c-.015.017-.017.033 0 .043" stroke-width=".065194"/><path d="m126.128 209.594c-.003.012 0 .02.011.021" stroke-width=".065194"/><path d="m126.531 208.975c.127-.09.358-.15.51-.163" stroke-width=".065194"/><path d="m126.715 209.062c.014-.007.029-.011.044-.011" stroke-width=".065194"/><path d="m126.27 209.952c.04.05.088.094.141.131" stroke-width=".065194"/><path d="m126.455 209.963.011.011" stroke-width=".065194"/><path d="m132.441 208.898c.025.009.051.016.076.022" stroke-width=".065194"/><path d="m133.169 209.366c.063.051.12.163.044.228" stroke-width=".065194"/><path d="m132.833 209.975c-.019.017-.039.037-.054.054" stroke-width=".065194"/><path d="m132.648 210.093c-.014.006-.026.018-.032.032" stroke-width=".065194"/><path d="m130.747 213.277c-.235.549-.709.794-1.283.794" stroke-width=".065194"/><path d="m131.29 213.451c-.012.078-.071.19-.131.239" stroke-width=".065194"/><path d="m131.442 213.549c-.009.023-.02.045-.033.065" stroke-width=".065194"/><path d="m127.791 213.646c.063.092.152.278.25.326" stroke-width=".065194"/><path d="m127.693 213.843c.02.02.038.042.055.065" stroke-width=".065194"/><path d="m128.389 214.289h-.011" stroke-width=".065194"/><path d="m128.204 214.267h-.011" stroke-width=".065194"/><path d="m130.888 214.158c.001.009-.003.012-.011.012" stroke-width=".065194"/><path d="m132.354 202.781c.213.116.411.301.555.489" stroke-width=".065194"/><path d="m132.735 202.781c.029.024.056.06.087.087" stroke-width=".065194"/><path d="m129.171 200.673c-.026.015-.067.035-.098.054" stroke-width=".065194"/><path d="m129.15 200.359c-.033-.007-.066-.015-.098-.022" stroke-width=".065194"/><path d="m129.486 200.119v-.087" stroke-width=".065194"/><path d="m129.855 200.282c.018-.007.037-.014.055-.021" stroke-width=".065194"/><path d="m129.975 200.673c.02.012.042.02.065.022" stroke-width=".065194"/><path d="m123.944 204.226c.132-.042.344-.14.457 0" stroke-width=".065194"/><path d="m124.075 204.052h.119" stroke-width=".065194"/><path d="m135.767 205.714c.101-.085.211-.217.239-.348" stroke-width=".065194"/><path d="m135.951 205.715c.036-.022.061-.065.098-.087" stroke-width=".065194"/><path d="m133.658 209.301c.027.081.022.147 0 .228" stroke-width=".065194"/><path d="m133.778 209.344c.002.033.006.065.011.098" stroke-width=".065194"/><path d="m129.553 202.386c-.66-.011-1.345.02-1.978.228-.675.222-1.203.595-1.579 1.188-.185.292-.391.747-.464 1.086-.141.654-.188 1.405-.05 2.061.207.984 1.293 1.476 2.199 1.607.612.088 1.229.138 1.847.149.638.012 1.264-.058 1.896-.149.906-.131 1.992-.623 2.199-1.607.138-.656.091-1.407-.05-2.061-.073-.338-.279-.794-.464-1.086-.376-.593-.904-.966-1.579-1.188-.633-.208-1.318-.239-1.978-.228" stroke-width=".108657"/><path d="m125.743 204.279c-.387-.084-.862-.001-1.182.233" stroke-width=".108657"/><path d="m124.561 204.512c-.073-.076-.199-.108-.304-.108-.08-.003-.16.011-.235.039-.038.014-.072.036-.101.063-.029.028-.052.061-.068.098" stroke-width=".108657"/><path d="m123.852 204.604c-.322-.256-.61-.07-.797.14" stroke-width=".108657"/><path d="m123.055 204.744c.015.138.053.271.114.395.135.254.359.533.615.664" stroke-width=".108657"/><path d="m123.784 205.803c.055.351.379.641.734.655" stroke-width=".108657"/><path d="m124.519 206.459c.091.137.259.228.421.257.166.026.335.025.5-.001" stroke-width=".108657"/><path d="m126.318 209.759c.301-.18.106-.609-.206-.62-.263-.008-.484.066-.51.358-.025.271.255.377.483.345.082-.012.162-.04.233-.083z" stroke-width=".108657"/><path d="m125.745 209.221c.463-.276 1.002-.604 1.521-.748" stroke-width=".108657"/><path d="m126.468 209.513c.21-.106.474-.218.69-.311" stroke-width=".108657"/><path d="m125.689 209.738c.329.3.641.561.978.741" stroke-width=".108657"/><path d="m126.468 209.563c.038.022.1.07.136.094.143.099.297.215.441.313" stroke-width=".108657"/><path d="m126.974 210.498c.179-.056.367-.082.555-.076.03-.097.046-.197.049-.298.002-.017-.001-.034-.009-.05-.008-.01-.018-.019-.03-.025-.143-.085-.314-.11-.476-.071-.292.072-.448.287-.382.583.039.175.155.345.3.381" stroke-width=".108657"/><path d="m127.265 208.473c-.067.463-.143.964-.21 1.428l-.012.082" stroke-width=".108657"/><path d="m127.705 209.563c-.06.505-.087 1.072-.049 1.578" stroke-width=".108657"/><path d="m127.706 209.563c1.235.039 2.458.039 3.694 0" stroke-width=".108657"/><path d="m127.656 211.142c.607.193 1.257.223 1.889.208.632-.016 1.291-.014 1.903-.208" stroke-width=".108657"/><path d="m131.202 212.735c.001.02.001.04.001.06 0 .882-.755 1.597-1.687 1.597s-1.687-.715-1.687-1.597c0-.026 0-.052.002-.077" stroke-width=".108657"/><path d="m124.561 204.512c-.035.649-.148 1.355-.044 1.947" stroke-width=".108657"/><path d="m123.852 204.604c-.088.394-.111.799-.068 1.2" stroke-width=".108657"/><path d="m130.154 202.391c-.038-.304-.245-.58-.602-.591-.356.011-.563.286-.601.591" stroke-width=".108657"/><path d="m133.361 204.279c.388-.084.863-.001 1.183.233" stroke-width=".108657"/><path d="m134.544 204.512c.073-.076.199-.108.304-.108.08-.003.16.011.235.039.038.014.072.036.101.063.029.028.052.061.068.098" stroke-width=".108657"/><path d="m135.252 204.604c.323-.256.611-.07.798.14" stroke-width=".108657"/><path d="m136.05 204.744c-.015.138-.054.271-.114.395-.136.254-.36.533-.615.664" stroke-width=".108657"/><path d="m135.321 205.803c-.055.351-.379.641-.735.655" stroke-width=".108657"/><path d="m134.586 206.459c-.091.137-.26.228-.422.257-.165.026-.334.025-.499-.001" stroke-width=".108657"/><path d="m131.3 207.815c.559-.167 1.108-.518 1.459-.985.008-.848-.14-1.741-.355-2.561-.303-.119-.612-.222-.925-.309-.763-.215-1.555-.307-2.346-.271-.837.041-1.655.274-2.432.58-.216.82-.363 1.713-.355 2.561.35.467.9.818 1.459.985 1.101.329 2.396.328 3.495 0z" stroke-width=".108657"/><path d="m132.786 209.759c-.3-.18-.105-.609.207-.62.262-.008.484.066.51.358.025.271-.256.377-.483.345-.082-.012-.162-.04-.234-.083z" stroke-width=".108657"/><path d="m133.36 209.221c-.462-.276-1.002-.604-1.521-.748" stroke-width=".108657"/><path d="m132.637 209.513c-.211-.106-.474-.218-.69-.311" stroke-width=".108657"/><path d="m133.415 209.738c-.328.3-.64.561-.977.741" stroke-width=".108657"/><path d="m132.637 209.563c-.038.022-.1.07-.136.094-.143.099-.298.215-.441.313" stroke-width=".108657"/><path d="m132.131 210.498c-.18-.056-.367-.082-.556-.076-.029-.097-.045-.197-.048-.298-.002-.017.001-.034.009-.05.007-.01.018-.019.029-.025.144-.085.315-.11.477-.071.292.072.448.287.382.583-.04.175-.155.345-.3.381" stroke-width=".108657"/><path d="m132.121 210.497c.018.203.012.407-.015.609-.104.689-.531 1.034-1.189 1.165-.449.09-.907.129-1.365.117-.458.012-.916-.027-1.365-.117-.657-.132-1.084-.476-1.188-1.165-.028-.202-.033-.406-.016-.609" stroke-width=".108657"/><path d="m131.839 208.473c.068.463.144.964.211 1.428l.012.082" stroke-width=".108657"/><path d="m131.399 209.563c.06.505.087 1.072.049 1.578" stroke-width=".108657"/><path d="m131.403 212.112c.022.196.035.387-.02.576-.817.239-1.695.22-2.534.174-.379-.021-.762-.067-1.128-.174-.055-.189-.043-.38-.02-.576" stroke-width=".108657"/><path d="m134.544 204.512c.035.649.148 1.355.043 1.947" stroke-width=".108657"/><path d="m135.252 204.604c.088.394.112.799.069 1.2" stroke-width=".108657"/><path d="m127.792 205.164c0-.104-.084-.188-.189-.188-.104 0-.188.084-.188.188v.519c0 .104.084.188.188.188.105 0 .189-.084.189-.188z" fill="#1e1e1e" stroke-width=".108657"/><path d="m127.321 205.084.094.053" stroke-width=".108657"/><path d="m127.299 205.213c.037.013.076.022.116.028" stroke-width=".108657"/><path d="m131.423 205.683c0 .104.085.188.189.188s.188-.084.188-.188v-.519c0-.104-.084-.189-.188-.189s-.189.085-.189.189z" fill="#1e1e1e" stroke-width=".108657"/><path d="m131.895 205.084-.095.053" stroke-width=".108657"/><path d="m131.916 205.213c-.037.013-.076.022-.116.028" stroke-width=".108657"/><path d="m128.859 206.961c.674-.001 1.346-.035 2.018-.102l.001-.428c.003-.022-.002-.044-.015-.062-.019-.022-.051-.019-.079-.017-.817.081-1.638.119-2.46.115-.007-.002-.014-.003-.022-.001-.007.002-.014.005-.019.01-.006.005-.01.012-.012.019s-.003.014-.001.022v.334c-.001.009 0 .018.002.026.002.009.006.017.012.024.083.079.47.06.575.06z" stroke-width=".108657"/><path d="m130.875 209.159c-.155.023-.156.241.005.243.099.001.154-.098.117-.189-.019-.047-.07-.062-.122-.054z" stroke-width=".108657"/><path d="m130.383 209.159c-.154.023-.155.241.006.243.099.001.153-.098.116-.189-.018-.047-.069-.062-.122-.054z" stroke-width=".108657"/><path d="m128.689 209.159c-.154.023-.155.241.006.243.099.001.154-.098.117-.189-.02-.047-.07-.062-.123-.054z" stroke-width=".108657"/><path d="m128.198 209.159c-.154.023-.155.241.006.243.099.001.153-.098.116-.189-.019-.047-.07-.062-.122-.054z" stroke-width=".108657"/><path d="m128.285 206.731.959-.01c.008.001.016.002.024.001.008-.002.015-.005.022-.009.006-.004.012-.01.017-.017.004-.007.007-.014.008-.022l.044-.133c.011.089.031.176.059.261.021-.091.052-.18.091-.265.014.086.047.167.097.238.026-.108.062-.213.109-.313.014.128.034.255.06.381l.065-.237c.342.016.684.004 1.024-.037" stroke-width=".065194"/><path d="m128.465 211.073c.353 0 .638-.285.638-.637 0-.353-.285-.638-.638-.638-.352 0-.637.285-.637.638 0 .352.285.637.637.637z" stroke-width=".108657"/><path d="m130.653 211.073c.353 0 .638-.285.638-.637 0-.353-.285-.638-.638-.638-.352 0-.637.285-.637.638 0 .352.285.637.637.637z" stroke-width=".108657"/><path d="m130.653 210.912c.263 0 .477-.213.477-.476s-.214-.476-.477-.476-.476.213-.476.476.213.476.476.476z" stroke-width=".081058"/><path d="m130.653 210.717c.156 0 .282-.126.282-.282s-.126-.282-.282-.282c-.155 0-.281.126-.281.282s.126.282.281.282z" stroke-width=".081058"/></g><path d="m130.653 210.564c.072 0 .13-.058.13-.129 0-.072-.058-.129-.13-.129-.071 0-.129.057-.129.129 0 .071.058.129.129.129z" fill="#1e1e1e"/><path d="m128.465 210.912c.263 0 .477-.213.477-.476s-.214-.476-.477-.476-.476.213-.476.476.213.476.476.476z" stroke="#1e1e1e" stroke-linecap="round" stroke-linejoin="round" stroke-width=".081058"/><path d="m128.466 210.717c.155 0 .281-.126.281-.282s-.126-.282-.281-.282c-.156 0-.282.126-.282.282s.126.282.282.282z" stroke="#1e1e1e" stroke-linecap="round" stroke-linejoin="round" stroke-width=".081058"/><path d="m128.466 210.564c.071 0 .129-.058.129-.129 0-.072-.058-.129-.129-.129-.072 0-.13.057-.13.129 0 .071.058.129.13.129z" fill="#1e1e1e"/><path d="m129.553 200.716v1.084" stroke="#1e1e1e" stroke-linecap="round" stroke-linejoin="round" stroke-width=".173851"/><path d="m129.545 200.674c.091 0 .164-.074.164-.164 0-.091-.073-.164-.164-.164s-.164.073-.164.164c0 .09.073.164.164.164z" stroke="#1e1e1e" stroke-linecap="round" stroke-linejoin="round" stroke-width=".108657"/><path d="m125.728 214.406c.205 0 .421.015.609-.033.04-.01.085-.03.13-.033.045-.002.087 0 .13 0 .089 0 .188.012.272-.01.091-.025.192.009.282-.01.044-.01.069-.023.119-.022h.13.142c.047 0 .084.017.13.022.048.002.096.009.142.02.031.008.055.036.085.044.098.029.206.027.304.054.086.023.176.022.261-.002.152-.045.298-.022.457-.03.046-.003.082-.022.13-.022h.152.316c.092 0 .191-.011.283 0 .049.006.092.036.141.046.062.012.137-.001.2-.001.081 0 .163.005.243 0 .037-.003.072-.016.108-.022.044-.006.087.004.131 0 .026-.003.043-.016.068-.022.03-.006.059.002.087-.004.08-.014.157-.023.237-.041.142-.033.289-.049.428-.082.068-.017.152-.005.221-.005h.208c.076 0 .166-.014.24.005.066.016.129.043.196.057.094.021.192.044.288.047.11.003.221-.005.33-.001.099.003.199.037.295.06.053.012.097.038.147.056.044.014.09.019.135.015" stroke="#1e1e1e" stroke-linecap="round" stroke-linejoin="round" stroke-width=".108657"/><path d="m131.685 205.285c.045 0 .082-.036.082-.081s-.037-.082-.082-.082-.081.037-.081.082.036.081.081.081z" fill="#fff"/><path d="m127.71 205.285c.045 0 .082-.036.082-.081s-.037-.082-.082-.082-.081.037-.081.082.036.081.081.081z" fill="#fff"/></g></svg>