<svg fill="none" height="450" viewBox="0 0 450 450" width="450" xmlns="http://www.w3.org/2000/svg" xmlns:xlink="http://www.w3.org/1999/xlink"><mask id="community-a" height="450" maskUnits="userSpaceOnUse" width="450" x="0" y="0"><path d="m.5.5h449v449h-449z" fill="#c4c4c4" stroke="#000"/></mask><g mask="url(#community-a)"><path d="m71.3799 167.062s14.5721 19.166 11.7163 49.457c-1.7575 18.174-.5126 29.74 1.8306 43.398 2.3433 13.659 0 32.605 0 32.605" stroke="#52dec6" stroke-miterlimit="10" stroke-width="1.54329"/><path d="m346.743 310.895h-234.181v-106.681c0-27.654 22.476-50.13 50.13-50.13h133.921c27.654 0 50.13 22.476 50.13 50.13z" fill="#39429c"/><path d="m225.5 191c-21.093 0-38.193-16.555-38.5-37h24.412 29.164 23.424c-.307 20.544-17.407 37-38.5 37z" fill="#fff"/><path d="m240.208 154.912-4.208-26.912m-25 26.912 1-26.912" stroke="#39429c" stroke-width="1.2403"/><path d="m212 128v-40.5242c0-9.1078 7.497-16.4758 16.765-16.4758h12.183c16.035 0 29.051 12.7917 29.051 28.5512.105 15.6568-12.963 28.4488-28.999 28.4488h-5.5" stroke="#39429c" stroke-width="1.2403"/><path d="m245.136 110.686c4.519 0 8.183-4.173 8.183-9.321 0-5.1486-3.664-9.322-8.183-9.322s-8.182 4.1734-8.182 9.322c0 5.148 3.663 9.321 8.182 9.321z" stroke="#39429c" stroke-miterlimit="10" stroke-width="1.39075"/><path d="m268.545 110.686c4.519 0 8.182-4.173 8.182-9.321 0-5.1486-3.663-9.322-8.182-9.322s-8.183 4.1734-8.183 9.322c0 5.148 3.664 9.321 8.183 9.321z" stroke="#39429c" stroke-miterlimit="10" stroke-width="1.39075"/><path d="m212 103.162s10.059 3.241 12.341-3.024c2.281-6.2656-1.348-14.3671 4.148-18.2558 5.6-3.8887 14.934-5.9411 23.437-.9722 2.801 1.6203 5.497 1.7283 7.986.9722 6.429-1.9444 4.874-11.8822-1.867-11.8822h-31.734c-7.881 0-14.311 6.6972-14.311 14.9068z" fill="#599af2"/><path d="m256.427 119.493-12.947-2.279s-.518 5.179 5.075 6.214c5.697.932 7.872-3.935 7.872-3.935z" fill="#ef6d9c"/><path d="m253.32 101.366h6.939" stroke="#39429c" stroke-miterlimit="10" stroke-width="1.39075"/><path d="m248.658 105.82c.687 0 1.243-.557 1.243-1.243 0-.687-.556-1.243-1.243-1.243-.686 0-1.242.556-1.242 1.243 0 .686.556 1.243 1.242 1.243z" fill="#39429c"/><path d="m267.198 105.82c.687 0 1.243-.557 1.243-1.243 0-.687-.556-1.243-1.243-1.243-.686 0-1.242.556-1.242 1.243 0 .686.556 1.243 1.242 1.243z" fill="#39429c"/><path d="m240.576 154h23.424c-.307 21.1-17.407 38-38.5 38s-38.193-17.003-38.5-38h24.412" stroke="#39429c" stroke-width="1.2403"/><path d="m240.165 112.656c0 3.107-2.486 5.592-5.593 5.592s-5.593-2.485-5.593-5.592c0-3.108 2.486-5.594 5.593-5.594 3.107.001 5.593 2.486 5.593 5.594z" fill="#ef6d9c"/><path d="m410.959 274.228h-161.161c-6.111 0-11.082-4.971-11.082-11.082v-76.438c0-6.11 4.971-11.082 11.082-11.082h161.161c6.111 0 11.083 4.972 11.083 11.082v76.438c0 6.111-4.972 11.082-11.083 11.082z" fill="#78eed3"/><path d="m417.381 274.228h-161.161c-6.111 0-11.083-4.971-11.083-11.082v-76.438c0-6.11 4.972-11.082 11.083-11.082h161.161c6.111 0 11.082 4.972 11.082 11.082v76.438c0 6.111-4.971 11.082-11.082 11.082z" fill="#82a8ff"/><path d="m382.891 310.896h-23.304c-4.143 0-7.872-2.796-8.908-6.835l-17.193-64.527c-1.554-5.904 2.9-11.6 8.907-11.6h23.305c4.143 0 7.871 2.796 8.907 6.835l17.193 64.527c1.554 5.904-2.9 11.6-8.907 11.6z" fill="#78eed3"/><path d="m377.816 310.894h-78.199c-1.864 0-3.418-1.553-3.418-3.417 0-1.865 1.554-3.418 3.418-3.418h78.199c1.864 0 3.418 1.553 3.418 3.418.103 1.967-1.45 3.417-3.418 3.417z" fill="#78eed3"/><path d="m333.486 239.532 9.218 34.698h-28.794z" fill="#39429c"/><path d="m281.284 310.895h-97.67c-.932 0-1.761-.725-1.761-1.761 0-.932.725-1.761 1.761-1.761h97.67c.932 0 1.761.725 1.761 1.761-.104 1.036-.829 1.761-1.761 1.761z" fill="#599af2"/><g fill="#fff"><path d="m242.651 302.195c-.829-.518-1.036-1.657-.518-2.486l6.525-9.632c.518-.829 1.657-1.036 2.486-.518.828.518 1.036 1.657.518 2.485l-6.525 9.633c-.622.828-1.761 1.036-2.486.518z"/><path d="m247.933 303.645c-.828-.414-1.243-1.554-.828-2.382l5.178-10.358c.415-.828 1.554-1.243 2.383-.828.828.414 1.242 1.553.828 2.382l-5.179 10.357c-.414.932-1.553 1.243-2.382.829z"/><path d="m254.044 304.06c-.932-.311-1.45-1.347-1.035-2.279l3.935-10.875c.311-.932 1.347-1.45 2.279-1.036.932.311 1.45 1.346 1.036 2.279l-3.936 10.875c-.311.828-1.346 1.346-2.279 1.036z"/><path d="m260.259 291.319 11.082 9.529s-3.625 3.418-7.25 1.036-5.903-6.007-5.903-6.007z"/><path d="m202.672 302.195c.829-.518 1.036-1.657.518-2.486l-6.525-9.632c-.518-.829-1.658-1.036-2.486-.518-.829.518-1.036 1.657-.518 2.485l6.525 9.633c.622.828 1.657 1.036 2.486.518z"/><path d="m197.389 303.645c.829-.414 1.243-1.554.829-2.382l-5.179-10.358c-.414-.828-1.554-1.243-2.382-.828-.829.414-1.243 1.553-.829 2.382l5.179 10.357c.414.932 1.553 1.243 2.382.829z"/><path d="m191.279 304.06c.932-.311 1.45-1.347 1.035-2.279l-3.935-10.875c-.311-.932-1.347-1.45-2.279-1.036-.932.311-1.45 1.346-1.036 2.279l3.936 10.875c.311.828 1.347 1.346 2.279 1.036z"/><path d="m185.064 291.319-11.082 9.529s3.625 3.418 7.25 1.036 5.904-6.007 5.904-6.007z"/></g><path d="m181.853 294.013-10.979-14.293c-11.082-14.397-28.172-22.786-46.297-22.786h-1.243" stroke="#52dec6" stroke-miterlimit="10" stroke-width="1.39075"/><path d="m155.959 263.354-16.779-23.822" stroke="#52dec6" stroke-miterlimit="10" stroke-width="1.39075"/><path d="m261.708 72.3652s-3.418 7.4574-11.807 5.6966c-8.286-1.7608-20.508-3.5215-24.754 1.3465-4.247 4.868-8.493 11.8074-12.947 10.9788" stroke="#39429c" stroke-miterlimit="10" stroke-width=".347656"/><path d="m212.304 95.2547s7.353 1.5536 9.632-2.4858c2.382-4.0394 2.175-9.736 6.94-12.2217 4.764-2.4858 13.257-1.5536 14.5-1.4501" stroke="#39429c" stroke-miterlimit="10" stroke-width=".347656"/><path d="m264.194 76.3018s-4.971 7.8716-11.911 5.4894" stroke="#39429c" stroke-miterlimit="10" stroke-width=".347656"/><path d="m217 103.114c-.444-.114-1.037-.114-1.481-.114-3.704 0-6.519 2.273-6.519 5 0 2.841 2.963 5 6.519 5 .444 0 1.037 0 1.481-.114z" fill="#52dec6"/><path d="m65.5713 269.18s-13.7731-18.582 0-30.046c13.7731-11.371 7.5798-31.894 0-45.206-7.5798-13.313-6.8403-34.761 8.1345-41.417 14.9747-6.656 25.2352 20.893 21.6302 43.173-3.6051 22.28-3.8824 26.163 4.899 39.383 8.782 13.22 3.143 34.113 3.143 34.113" stroke="#52dec6" stroke-miterlimit="10" stroke-width="1.39075"/><path d="m51.2464 263.354c-1.1393 3.522-1.8643 7.251-1.8643 11.186 0 19.576 15.8468 35.319 35.3187 35.319 19.5752 0 35.3192-15.847 35.3192-35.319 0-3.935-.622-7.664-1.865-11.186z" fill="#ef6d9c"/><path d="m48.0353 310.897s-1.5536-29.104-12.5325-39.462c-10.8753-10.357-4.9715-26.825-15.6397-29.933-10.66809-3.107-17.4004 6.215-10.66809 21.854 6.83589 15.64 12.53249 19.472 12.53249 23.201 0 3.832.3107 24.34.3107 24.34" fill="#599af2"/><path d="m15.6167 246.37s-2.9001 9.425 4.9715 22.786c7.8717 13.361 13.0504 14.086 15.1219 23.822 2.0714 9.633 1.3464 18.022 1.3464 18.022" stroke="#39429c" stroke-miterlimit="10" stroke-width="1.39075"/><path d="m35.8139 292.875-14.0861-6.318" stroke="#39429c" stroke-miterlimit="10" stroke-width="1.39075"/><path d="m27.2163 278.685 4.9716-11.289" stroke="#39429c" stroke-miterlimit="10" stroke-width="1.39075"/><path d="m17.1701 261.906-10.66815-7.975" stroke="#39429c" stroke-miterlimit="10" stroke-width="1.39075"/><path d="m256.426 104.266 4.868 12.014-6.214-.414z" fill="#52dec6"/><path d="m331.119 206.574c-.493-1.481-.74-3.127-.74-4.772 0-1.811.329-3.539.905-5.185" stroke="#52dec6" stroke-miterlimit="10" stroke-width=".781359"/><path d="m360.414 201.886c0 8.311-6.747 15.059-15.059 15.059-4.032 0-7.653-1.563-10.369-4.114" stroke="#52dec6" stroke-miterlimit="10" stroke-width=".781359"/><path d="m355.807 203.858c-.247.988-.576 1.975-1.152 2.881-.577.987-1.317 1.892-2.222 2.633" stroke="#52dec6" stroke-miterlimit="10" stroke-width=".508588"/><path d="m336.88 195.549c2.715-4.69 8.723-6.254 13.413-3.538 2.222 1.316 3.786 3.374 4.444 5.76" stroke="#52dec6" stroke-miterlimit="10" stroke-width=".508588"/><path d="m345.438 214.805c7.272 0 13.167-5.895 13.167-13.167 0-7.271-5.895-13.166-13.167-13.166s-13.167 5.895-13.167 13.166c0 7.272 5.895 13.167 13.167 13.167z" stroke="#52dec6" stroke-miterlimit="10" stroke-width=".508588"/><path d="m345.438 209.455c4.317 0 7.817-3.5 7.817-7.818s-3.5-7.818-7.817-7.818c-4.318 0-7.818 3.5-7.818 7.818s3.5 7.818 7.818 7.818z" fill="#78eed3"/><path d="m-60 310.144h85.0135" stroke="#599af2" stroke-linecap="round" stroke-width="1.2403"/><path d="m41.6267 311h9.37" stroke="#599af2" stroke-linecap="round" stroke-width="1.37634"/><path d="m65.7212 311h365.4308" stroke="#599af2" stroke-linecap="round" stroke-width="1.37634"/><path d="m439.184 311h28.11" stroke="#599af2" stroke-linecap="round" stroke-width="1.37634"/></g></svg>