<svg fill="none" height="210" viewBox="0 0 212 210" width="212" xmlns="http://www.w3.org/2000/svg"><path d="m0 112h163v98h-163z" fill="#11175c"/><path d="m162 112 21-18v88.128l-15 25.872" stroke="#5a63b8" stroke-linecap="round" stroke-width="1.85353"/><path d="m4 106 15.2864-16h161.7136" stroke="#5a63b8" stroke-linecap="round" stroke-width="1.85353"/><path d="m28 122v34.747 11.314 6.464 27.475" stroke="#777dba" stroke-linecap="round" stroke-width="1.85353"/><path d="m48 202c0-10.236 0-31.515 0-34.747 0-3.233 0-8.889 0-11.314l2-6.464v-27.475" stroke="#777dba" stroke-linecap="round" stroke-width="1.85353"/><path d="m74 122v34.747 11.314l-4 6.464v27.475" stroke="#777dba" stroke-linecap="round" stroke-width="1.85353"/><path d="m91 202c0-10.236 0-31.515 0-34.747 0-3.233 0-8.889 0-11.314l2-6.464v-27.475" stroke="#777dba" stroke-linecap="round" stroke-width="1.85353"/><path d="m113 122v34.747 11.314 6.464 27.475" stroke="#777dba" stroke-linecap="round" stroke-width="1.85353"/><path d="m133 202c0-10.236 0-31.515 0-34.747 0-3.233 0-8.889 0-11.314l2-6.464v-27.475" stroke="#777dba" stroke-linecap="round" stroke-width="1.85353"/><path d="m44 19h149v89h-149z" fill="#11175c"/><path d="m193 16.4043 18-13.4043v81.1702l-15 23.8298" stroke="#5a63b8" stroke-linecap="round" stroke-width="1.85353"/><path d="m46 15 14.0773-14h148.9227" stroke="#5a63b8" stroke-linecap="round" stroke-width="1.85353"/><path d="m70 29v31.7071 10.3232l-2 5.899v25.0707" stroke="#777dba" stroke-linecap="round" stroke-width="1.85353"/><path d="m87 102c0-9.3401 0-28.7576 0-31.7071s0-8.1111 0-10.3232v-5.899-25.0707" stroke="#777dba" stroke-linecap="round" stroke-width="1.85353"/><path d="m109 29v31.7071 10.3232l-2 5.899v25.0707" stroke="#777dba" stroke-linecap="round" stroke-width="1.85353"/><path d="m127 102c0-9.3401 0-28.7576 0-31.7071s0-8.1111 0-10.3232l2-5.899v-25.0707" stroke="#777dba" stroke-linecap="round" stroke-width="1.85353"/><path d="m147 29v31.7071 10.3232l-2 5.899v25.0707" stroke="#777dba" stroke-linecap="round" stroke-width="1.85353"/><path d="m165 102c0-9.3401 0-28.7576 0-31.7071s0-8.1111 0-10.3232l2-5.899v-25.0707" stroke="#777dba" stroke-linecap="round" stroke-width="1.85353"/><rect fill="#fff" height="54" rx="25" width="54" x="89" y="36"/><path d="m120.821 78.906s.708-3.4189 3.667-7.5226c2.057-1.1883 4.12-2.6444 5.867-4.3912 1.615-8.01-.837-16.6041-.837-16.6041s-8.594-2.4516-16.604-.8364c-1.747 1.7479-3.203 3.8105-4.391 5.8666-4.105 2.9584-7.523 3.6663-7.523 3.6663s2.734 1.8771 4.053 4.0071c-.562 1.6205-.826 2.6645-.826 2.6645.214 1 .847 2.1664 1.72 3.3434-.603.4781-1.309.9753-2.077 1.391-.093.0505-.186.0993-.28.1465.659 2.1735 3.57 4.9113 5.69 5.649.043-.085.088-.1688.133-.2522.428-.7887.941-1.5133 1.431-2.127 1.188.8618 2.349 1.5041 3.305 1.7707 0 0 1.046-.2636 2.666-.8254 2.129 1.3195 4.006 4.0538 4.006 4.0538zm-6.041-7.2399c-1.22-.5282-2.839-1.8287-3.943-2.9332-1.492-1.4926-2.301-2.764-2.611-3.5553.524-1.7867 2.538-7.9593 6.405-12.1089 4.665-.792 9.551.0593 11.678.5281.468 2.126 1.321 7.0133.528 11.6774-4.124 3.8473-10.207 5.848-12.057 6.3919z" fill="#54a3da"/><path d="m118.868 64.2709c1.765 0 3.195-1.4302 3.195-3.1945s-1.43-3.1946-3.195-3.1946c-1.764 0-3.194 1.4303-3.194 3.1946s1.43 3.1945 3.194 3.1945z" fill="#f1616e"/><rect fill="#fff" height="54.6687" rx="27.3343" width="54.6687" x="52.5249" y="133.92"/><g clip-rule="evenodd" fill-rule="evenodd"><path d="m82.9221 157.28h3.7088v3.72h1.8752c.8661 0 1.7568-.151 2.5768-.424.4031-.134.8553-.32 1.2528-.555-.5235-.671-.7908-1.518-.8693-2.353-.1071-1.136.1265-2.614.9096-3.503l.3899-.442.4645.367c1.1696.922 2.1534 2.21 2.3268 3.679 1.4083-.406 3.0619-.31 4.3032.393l.5096.289-.268.513c-1.0501 2.011-3.2452 2.634-5.391 2.524-3.2111 7.849-10.2019 11.564-18.6782 11.564-4.3794 0-8.397-1.606-10.685-5.419l-.0374-.062-.3334-.666c-.7733-1.678-1.0302-3.517-.856-5.354l.0523-.551h3.1717v-3.72h3.7086v-3.64h7.4178v-3.64h4.4507z" fill="#364548"/><path d="m94.938 158.656c.2487-1.896-1.1976-3.386-2.0946-4.094-1.0337 1.173-1.1943 4.247.4274 5.541-.9051.789-2.812 1.504-4.7647 1.504h-23.7693c-.1898 2.001.168 3.843.9854 5.42l.2703.485c.1712.285.3583.56.5604.825.9773.062 1.8783.083 2.7026.065h.0003c1.6199-.035 2.9416-.223 3.9434-.563.0708-.022.1474-.016.2136.017s.1168.09.1411.159c.0243.068.0203.144-.011.21s-.0875.117-.1567.143c-.1334.046-.2722.088-.4156.128h-.0005c-.7887.221-1.6346.37-2.7259.436.0649.001-.0674.01-.0678.01-.0371.002-.0838.007-.1211.009-.4295.024-.8931.029-1.367.029-.5184 0-1.0289-.01-1.5996-.038l-.0146.009c1.9804 2.185 5.0771 3.495 8.9588 3.495 8.215 0 15.183-3.574 18.2687-11.597 2.189.22 4.2929-.328 5.2498-2.161-1.5243-.864-3.4846-.588-4.6134-.032z" fill="#22a0c8"/><path d="m94.938 158.656c.2487-1.896-1.1976-3.386-2.0946-4.094-1.0337 1.173-1.1943 4.247.4274 5.541-.9051.789-2.812 1.504-4.7647 1.504h-22.3618c-.097 3.064 1.0614 5.389 3.111 6.795h.0005c1.6198-.035 2.9416-.223 3.9433-.563.0708-.022.1474-.016.2136.017s.1168.09.1411.159c.0243.068.0204.144-.0109.21s-.0875.117-.1568.143c-.1333.046-.2721.088-.4155.128h-.0005c-.7888.221-1.7073.389-2.7986.455-.0003 0-.0264-.024-.0267-.024 2.7958 1.407 6.8496 1.402 11.4974-.35 5.2114-1.965 10.0609-5.708 13.4446-9.99-.051.023-.1006.046-.1488.069z" fill="#37b1d9"/><path d="m64.7812 164.037c.1477 1.072.4672 2.075.9408 2.989l.2704.485c.1712.285.3582.561.5604.826.9774.061 1.8784.082 2.7028.065 1.6199-.036 2.9417-.223 3.9434-.564.0708-.022.1474-.015.2136.017.0662.033.1168.09.1411.159s.0204.144-.0109.21-.0875.117-.1568.143c-.1333.046-.2722.088-.4155.129h-.0005c-.7888.221-1.7025.379-2.7937.445-.0375.002-.1029.003-.1407.005-.4291.023-.888.038-1.3621.038-.5182 0-1.0483-.01-1.6187-.038 1.9804 2.184 5.0962 3.499 8.978 3.499 7.0328 0 13.1516-2.619 16.7029-8.408z" fill="#1b81a5"/><path d="m66.3584 164.037c.4204 1.882 1.4307 3.359 2.8975 4.365 1.6199-.035 2.9416-.223 3.9434-.564.0708-.022.1474-.015.2136.018.0662.032.1168.089.1411.158s.0203.144-.011.21c-.0312.066-.0875.117-.1567.143-.1334.046-.2722.088-.4156.129h-.0005c-.7887.221-1.7217.379-2.8131.445 2.7956 1.407 6.8377 1.387 11.4852-.365 2.8115-1.06 5.5175-2.638 7.9451-4.539z" fill="#1d91b4"/><path d="m67.9629 157.886h3.2144v3.155h-3.2144zm.2678.263h.2537v2.629h-.2537zm.4768 0h.2639v2.629h-.2637v-2.629zm.487 0h.2639v2.629h-.2639zm.4872 0h.2637v2.629h-.2637zm.4871 0h.2637v2.629h-.2637zm.4869 0h.2538v2.629h-.2538zm1.016-3.903h3.2146v3.155h-3.2148v-3.155zm.2679.263h.2536v2.629h-.2536zm.4769 0h.2637v2.629h-.2635v-2.629zm.4869 0h.2638v2.629h-.2638zm.4871 0h.2637v2.629h-.2637zm.4871 0h.2639v2.629h-.2639zm.4869 0h.254v2.629h-.254z" fill="#23a3c2"/><path d="m71.672 157.886h3.2146v3.154h-3.2147v-3.154zm.268.263h.2535v2.629h-.2535zm.4768 0h.2638v2.629h-.2636v-2.629zm.487 0h.2637v2.629h-.2637zm.487 0h.2638v2.629h-.2638zm.4871 0h.2639v2.629h-.2639zm.4869 0h.254v2.629h-.254z" fill="#34bbde"/><path d="m75.3809 157.886h3.2144v3.154h-3.2144zm.2677.263h.2536v2.629h-.2536zm.4769 0h.2637v2.629h-.2637zm.4871 0h.2637v2.629h-.2637zm.4871 0h.2637v2.629h-.2637zm.4869 0h.264v2.629h-.264zm.4871 0h.2536v2.629h-.2536z" fill="#23a3c2"/><path d="m75.3809 154.246h3.2144v3.155h-3.2144zm.2677.263h.2536v2.629h-.2536zm.4769 0h.2637v2.629h-.2637zm.4871 0h.2637v2.629h-.2637zm.4871 0h.2637v2.629h-.2637zm.4869 0h.264v2.629h-.264zm.4871 0h.2536v2.629h-.2536zm1.016 3.377h3.2144v3.155h-3.2144zm.2679.263h.2535v2.629h-.2535zm.4769 0h.2637v2.629h-.2637zm.4869 0h.2637v2.629h-.2637zm.4871 0h.2639v2.629h-.2639zm.4871 0h.2639v2.629h-.2639zm.487 0h.2537v2.629h-.2537z" fill="#34bbde"/><path d="m79.0894 154.246h3.2144v3.155h-3.2144zm.2679.263h.2535v2.629h-.2535zm.4769 0h.2637v2.629h-.2637zm.4869 0h.2637v2.629h-.2637zm.4871 0h.2639v2.629h-.2639zm.4871 0h.2638v2.629h-.2638zm.487 0h.2537v2.629h-.2537z" fill="#23a3c2"/><path d="m79.0894 150.606h3.2144v3.155h-3.2144zm.2679.263h.2535v2.629h-.2535zm.4769 0h.2637v2.629h-.2637zm.4869 0h.2637v2.629h-.2637zm.4871 0h.2639v2.629h-.2639zm.4871 0h.2638v2.629h-.2638zm.487 0h.2537v2.629h-.2537z" fill="#34bbde"/><path d="m82.7983 157.886h3.2145v3.154h-3.2145zm.2677.263h.2538v2.629h-.2537v-2.629zm.4768 0h.2639v2.629h-.2637v-2.629zm.4873 0h.2639v2.629h-.2639zm.4869 0h.2639v2.629h-.2639zm.4872 0h.2638v2.629h-.2638zm.487 0h.2536v2.629h-.2536z" fill="#23a3c2"/><path d="m74.6851 166.155c.1175-.001.2341.02.3431.063.1089.043.2081.107.2917.188s.15.178.1953.284.0687.221.0686.336c0 .115-.0233.229-.0687.336-.0453.106-.1118.202-.1954.283s-.1828.145-.2918.188-.2256.065-.3431.063c-.2331-.003-.4556-.096-.6193-.259s-.2555-.383-.2554-.611c0-.229.0918-.449.2556-.612s.3863-.256.6194-.259z" fill="#d3ecec"/><path d="m74.6852 166.402c.0811 0 .1584.015.2298.042-.0492.029-.0877.072-.1094.123-.0218.052-.0256.109-.0108.163.0147.054.0471.102.0923.136.0451.034.1004.053.1573.053.0982 0 .1833-.053.2274-.132.0523.123.0627.26.0297.389-.0331.13-.1077.246-.213.331-.1052.085-.2355.134-.3716.141s-.2707-.03-.384-.104c-.1134-.074-.1994-.182-.2453-.308-.046-.126-.0495-.263-.01-.391s.1199-.24.2293-.32.242-.123.3783-.123zm-15.6852-2.05h41.251c-.8978-.224-2.8414-.526-2.5209-1.681-1.6334 1.855-5.572 1.301-6.5661.387-1.1069 1.575-7.551.976-8.0004-.251-1.3878 1.598-5.6878 1.598-7.0756 0-.4497 1.227-6.8937 1.826-8.0007.251-.994.914-4.9324 1.468-6.5658-.387.3205 1.155-1.6231 1.457-2.5215 1.681" fill="#364548"/><path d="m77.0426 172.427c-2.1961-1.023-3.4014-2.413-4.0721-3.931-.8159.229-1.7963.375-2.9358.437-.4292.024-.8807.036-1.3543.036-.5463 0-1.1219-.016-1.7263-.047 2.014 1.975 4.4916 3.496 9.0792 3.524.3386 0 .6747-.007 1.0093-.019z" fill="#bdd9d7"/><path d="m73.7862 169.897c-.3038-.405-.5986-.914-.8153-1.401-.8158.229-1.7966.375-2.9362.438.7827.417 1.9021.803 3.7516.963" fill="#d3ecec"/></g></svg>