<svg width="213" height="266" viewBox="0 0 213 266" fill="none" xmlns="http://www.w3.org/2000/svg">
<path d="M15.3223 173.299L32.0229 157.312H185.845L164.749 173.299H15.3223Z" fill="#757ED3"/>
<path d="M193.838 203.496L167.194 172.411L186.733 157.312L211.601 189.285L193.838 203.496Z" stroke="#5A63B8" stroke-width="1.62375"/>
<path d="M163.718 157.311C163.718 160.445 162.11 163.516 159.021 166.397C155.929 169.279 151.412 171.912 145.763 174.14C134.468 178.594 118.809 181.367 101.472 181.367C84.1346 181.367 68.4757 178.594 57.1811 174.14C51.5314 171.912 47.0142 169.279 43.9231 166.397C40.8332 163.516 39.2259 160.445 39.2259 157.311C39.2259 154.177 40.8332 151.106 43.9231 148.225C47.0142 145.343 51.5314 142.71 57.1811 140.482C68.4757 136.028 84.1346 133.255 101.472 133.255C118.809 133.255 134.468 136.028 145.763 140.482C151.412 142.71 155.929 145.343 159.021 148.225C162.11 151.106 163.718 154.177 163.718 157.311Z" stroke="#B8CBEF" stroke-width="1.62375"/>
<path d="M78.3804 92.7361C86.0084 91.9892 94.051 91.5898 102.36 91.5898C151.411 91.5898 191.174 105.507 191.174 122.675C191.174 139.842 151.411 153.759 102.36 153.759C53.3097 153.759 13.5464 139.842 13.5464 122.675C13.5464 111.69 29.8256 102.036 54.4007 96.5071" stroke="#B8CBEF" stroke-width="1.62375"/>
<path d="M139.662 151.24C176.117 146.102 201.832 133.657 201.832 119.121C201.832 99.9911 157.297 84.4834 102.361 84.4834C47.424 84.4834 2.88916 99.9911 2.88916 119.121C2.88916 134.698 32.4205 147.874 73.052 152.23" stroke="#B8CBEF" stroke-width="1.62375" stroke-linecap="round" stroke-dasharray="8.12 8.12"/>
<path d="M128.116 26.3468C129.892 40.0781 120.39 51.6936 106.392 51.6936C92.3931 51.6936 81.0449 40.3454 81.0449 26.3468C81.0449 12.3481 92.3931 1 106.392 1C121.011 1 132.557 12.5458 131.669 28.5323" stroke="#6971C0" stroke-width="1.62375" stroke-linecap="round"/>
<g clip-path="url(#clip0)">
<path fill-rule="evenodd" clip-rule="evenodd" d="M103.066 14C101.85 14.0009 100.865 15.0307 100.866 16.2995C100.865 17.5684 101.85 18.5981 103.067 18.5991H105.267V16.3005C105.268 15.0316 104.283 14.0019 103.066 14C103.067 14 103.067 14 103.066 14V14ZM103.066 20.1333H97.1999C95.9837 20.1343 94.9986 21.164 94.9995 22.4329C94.9977 23.7017 95.9828 24.7315 97.199 24.7333H103.066C104.282 24.7324 105.267 23.7027 105.266 22.4338C105.267 21.164 104.282 20.1343 103.066 20.1333Z" fill="#36C5F0"/>
<path fill-rule="evenodd" clip-rule="evenodd" d="M117 22.4329C117.001 21.164 116.016 20.1343 114.8 20.1333C113.583 20.1343 112.598 21.164 112.599 22.4329V24.7333H114.8C116.016 24.7324 117.001 23.7027 117 22.4329ZM111.133 22.4329V16.2995C111.134 15.0316 110.15 14.0019 108.934 14C107.718 14.0009 106.733 15.0307 106.733 16.2995V22.4329C106.732 23.7017 107.717 24.7315 108.933 24.7333C110.149 24.7324 111.134 23.7027 111.133 22.4329Z" fill="#2EB67D"/>
<path fill-rule="evenodd" clip-rule="evenodd" d="M108.933 36.9999C110.149 36.999 111.134 35.9693 111.133 34.7004C111.134 33.4315 110.149 32.4018 108.933 32.4008H106.732V34.7004C106.732 35.9683 107.717 36.998 108.933 36.9999ZM108.933 30.8656H114.8C116.016 30.8647 117.001 29.835 117 28.5661C117.002 27.2972 116.017 26.2675 114.8 26.2656H108.934C107.718 26.2666 106.732 27.2963 106.733 28.5652C106.732 29.835 107.717 30.8647 108.933 30.8656Z" fill="#ECB22E"/>
<path fill-rule="evenodd" clip-rule="evenodd" d="M95 28.5661C94.9991 29.835 95.9842 30.8647 97.2004 30.8657C98.4165 30.8647 99.4016 29.835 99.4007 28.5661V26.2666H97.2004C95.9842 26.2675 94.9991 27.2973 95 28.5661ZM100.867 28.5661V34.6995C100.865 35.9683 101.85 36.9981 103.066 37C104.282 36.999 105.267 35.9693 105.267 34.7004V28.568C105.268 27.2991 104.283 26.2694 103.067 26.2675C101.85 26.2675 100.866 27.2973 100.867 28.5661C100.867 28.5661 100.867 28.5671 100.867 28.5661Z" fill="#E01E5A"/>
</g>
<path d="M42.03 47.0094C38.4837 38.501 29.1364 34.9684 21.0619 39.6302C12.9874 44.292 10.2193 54.614 14.8791 62.685C19.5389 70.756 29.8621 73.5197 37.9365 68.8579C46.369 63.9894 49.1854 53.4876 43.3516 44.5663" stroke="#6971C0" stroke-width="1.62375" stroke-linecap="round"/>
<path d="M32.0251 48.0072V48.0039H32.8686L33.1768 48.0671C33.3823 48.1082 33.5688 48.162 33.7364 48.2285C33.904 48.2951 34.0663 48.3727 34.223 48.4615C34.3799 48.5502 34.5221 48.6406 34.6497 48.7327C34.7762 48.8237 34.8897 48.9202 34.9903 49.0222C35.0898 49.1254 35.245 49.152 35.4558 49.1021C35.6667 49.0522 35.8938 48.9828 36.1371 48.8941C36.3804 48.8054 36.6211 48.7055 36.859 48.5946C37.0969 48.4837 37.2418 48.4132 37.2937 48.3833C37.3445 48.3522 37.3716 48.3356 37.3748 48.3334L37.378 48.3284L37.3942 48.32L37.4105 48.3117L37.4267 48.3034L37.4429 48.2951L37.4462 48.2901L37.451 48.2868L37.4559 48.2834L37.4591 48.2784L37.4753 48.2735L37.4916 48.2701L37.4883 48.2951L37.4835 48.32L37.4753 48.345L37.4672 48.37L37.4591 48.3866L37.451 48.4032L37.4429 48.4282C37.4375 48.4448 37.4321 48.467 37.4267 48.4948C37.4213 48.5225 37.3699 48.6334 37.2726 48.8275C37.1753 49.0217 37.0536 49.2185 36.9076 49.4182C36.7616 49.6179 36.6308 49.7687 36.5151 49.8708C36.3983 49.974 36.321 50.0461 36.2831 50.0871C36.2453 50.1292 36.1993 50.1681 36.1452 50.2036L36.0641 50.2585L36.0479 50.2668L36.0317 50.2751L36.0285 50.2801L36.0236 50.2834L36.0187 50.2868L36.0155 50.2918L35.9992 50.3001L35.983 50.3084L35.9798 50.3134L35.9749 50.3167L35.97 50.32L35.9668 50.325L35.9636 50.33L35.9587 50.3334L35.9538 50.3367L35.9506 50.3417H36.0317L36.4859 50.2418C36.7887 50.1753 37.0779 50.0949 37.3537 50.0006L37.7917 49.8508L37.8403 49.8342L37.8647 49.8259L37.8809 49.8176L37.8971 49.8092L37.9133 49.8009L37.9295 49.7926L37.962 49.7876L37.9944 49.7843V49.8176L37.9863 49.8209L37.9782 49.8259L37.975 49.8309L37.9701 49.8342L37.9652 49.8375L37.962 49.8425L37.9588 49.8475L37.9539 49.8508L37.949 49.8542L37.9458 49.8591L37.9425 49.8641L37.9376 49.8675L37.9295 49.8841L37.9214 49.9007L37.9166 49.9041C37.9144 49.9074 37.8457 50.0017 37.7106 50.1869C37.5754 50.3733 37.5024 50.4676 37.4916 50.4698C37.4808 50.4731 37.4656 50.4898 37.4462 50.5197C37.4278 50.5508 37.3131 50.6745 37.1023 50.8908C36.8914 51.1071 36.6849 51.2995 36.4826 51.4681C36.2793 51.6378 36.1766 51.8464 36.1744 52.0938C36.1712 52.34 36.1588 52.6184 36.1371 52.929C36.1155 53.2396 36.0749 53.5752 36.0155 53.9357C35.956 54.2962 35.8641 54.7039 35.7397 55.1586C35.6154 55.6134 35.464 56.0572 35.2855 56.4898C35.1071 56.9224 34.9205 57.3106 34.7259 57.6545C34.5312 57.9984 34.3528 58.2895 34.1906 58.528C34.0284 58.7665 33.8635 58.9911 33.6959 59.2019C33.5283 59.4127 33.3163 59.6501 33.06 59.9141C32.8026 60.177 32.6621 60.3212 32.6383 60.3467C32.6134 60.3711 32.5074 60.462 32.3203 60.6195C32.1343 60.7782 31.9343 60.9368 31.7202 61.0954C31.5071 61.2529 31.3114 61.3844 31.133 61.4898C30.9545 61.5951 30.7393 61.7155 30.4874 61.8508C30.2365 61.9873 29.965 62.1137 29.6731 62.2302C29.3811 62.3467 29.0729 62.4548 28.7485 62.5547C28.4241 62.6545 28.1105 62.7321 27.8077 62.7876C27.5049 62.8431 27.1615 62.8902 26.7776 62.929L26.2018 62.9873V62.9956H25.1474V62.9873L25.0095 62.9789C24.9176 62.9734 24.8419 62.9679 24.7824 62.9623C24.723 62.9568 24.4986 62.9263 24.1093 62.8708C23.72 62.8153 23.4145 62.7599 23.1928 62.7044C22.9711 62.6489 22.6413 62.5436 22.2033 62.3883C21.7653 62.233 21.3906 62.076 21.0792 61.9174C20.7688 61.7599 20.5742 61.66 20.4952 61.6179C20.4174 61.5768 20.3298 61.5258 20.2325 61.4648L20.0865 61.3733L20.0832 61.3683L20.0784 61.365L20.0735 61.3616L20.0703 61.3567L20.054 61.3483L20.0378 61.34L20.0346 61.335L20.0297 61.3317L20.0248 61.3284L20.0216 61.3234L20.0184 61.3184L20.0135 61.3151H20.0054V61.2818L20.0216 61.2851L20.0378 61.2901L20.1108 61.2984C20.1595 61.304 20.2919 61.3123 20.5082 61.3234C20.7245 61.3345 20.9543 61.3345 21.1976 61.3234C21.4409 61.3123 21.6897 61.2873 21.9438 61.2485C22.1979 61.2097 22.498 61.1431 22.844 61.0488C23.1901 60.9545 23.508 60.8425 23.7978 60.7127C24.0866 60.5818 24.292 60.4842 24.4142 60.4199C24.5354 60.3567 24.7203 60.2391 24.969 60.0671L25.3421 59.8092L25.3453 59.8042L25.3502 59.8009L25.3551 59.7976L25.3583 59.7926L25.3615 59.7876L25.3664 59.7843L25.3713 59.7809L25.3745 59.776L25.3907 59.771L25.407 59.7676L25.4102 59.751L25.4151 59.7344L25.4199 59.731L25.4232 59.726L25.2934 59.7177C25.2069 59.7122 25.1231 59.7066 25.042 59.7011C24.9609 59.6955 24.8338 59.6706 24.6608 59.6262C24.4878 59.5818 24.3012 59.5153 24.1012 59.4265C23.9011 59.3378 23.7065 59.2324 23.5172 59.1104C23.328 58.9884 23.1912 58.8869 23.1068 58.8059C23.0236 58.726 22.9154 58.6129 22.7824 58.4665C22.6505 58.3189 22.5358 58.1675 22.4385 58.0122C22.3412 57.8569 22.2482 57.6778 22.1595 57.4748L22.0249 57.172L22.0168 57.147L22.0087 57.122L22.0038 57.1054L22.0005 57.0888L22.0249 57.0921L22.0492 57.0971L22.2276 57.122C22.3466 57.1387 22.5331 57.1442 22.7873 57.1387C23.0414 57.1331 23.2171 57.122 23.3144 57.1054C23.4118 57.0888 23.4713 57.0777 23.4929 57.0721L23.5253 57.0638L23.5659 57.0555L23.6064 57.0472L23.6097 57.0422L23.6145 57.0388L23.6194 57.0355L23.6226 57.0305L23.5902 57.0222L23.5578 57.0139L23.5253 57.0056L23.4929 56.9973L23.4604 56.9889C23.4388 56.9834 23.401 56.9723 23.3469 56.9557C23.2928 56.939 23.1468 56.878 22.9089 56.7726C22.671 56.6673 22.4818 56.5646 22.3412 56.4648C22.2003 56.3647 22.0659 56.2552 21.9389 56.137C21.8124 56.0172 21.6734 55.863 21.522 55.6745C21.3706 55.4859 21.2355 55.2668 21.1165 55.0172C20.9976 54.7676 20.9083 54.5291 20.8489 54.3017C20.7896 54.0757 20.7505 53.8446 20.7321 53.6112L20.7029 53.2618L20.7191 53.2651L20.7353 53.2701L20.7515 53.2784L20.7678 53.2868L20.784 53.2951L20.8002 53.3034L21.0516 53.4199C21.2193 53.4975 21.4274 53.5641 21.6761 53.6195C21.9249 53.675 22.0735 53.7055 22.1222 53.7111L22.1952 53.7194H22.3412L22.338 53.7144L22.3331 53.7111L22.3282 53.7077L22.325 53.7027L22.3217 53.6978L22.3169 53.6944L22.312 53.6911L22.3087 53.6861L22.2925 53.6778L22.2763 53.6695L22.2731 53.6645L22.2682 53.6611L22.2633 53.6578L22.2601 53.6528L22.2439 53.6445L22.2276 53.6362L22.2244 53.6312C22.2212 53.629 22.1747 53.5935 22.0849 53.5247C21.9962 53.4548 21.9032 53.3644 21.8059 53.2535C21.7086 53.1426 21.6112 53.0261 21.5139 52.9041C21.4164 52.7818 21.3296 52.6509 21.2544 52.5131C21.1787 52.3744 21.0987 52.198 21.0143 51.9839C20.9311 51.771 20.8678 51.5563 20.8245 51.34C20.7813 51.1237 20.757 50.9102 20.7515 50.6994C20.7461 50.4886 20.7515 50.3084 20.7678 50.1586C20.784 50.0089 20.8164 49.8397 20.8651 49.6512C20.9137 49.4626 20.984 49.2629 21.076 49.0522L21.2138 48.736L21.2219 48.7111L21.2301 48.6861L21.2349 48.6828L21.2382 48.6778L21.2414 48.6728L21.2463 48.6695L21.2512 48.6728L21.2544 48.6778L21.2576 48.6828L21.2625 48.6861L21.2674 48.6894L21.2706 48.6944L21.2739 48.6994L21.2787 48.7027L21.2868 48.7194L21.2949 48.736L21.2998 48.7393L21.303 48.7443L21.522 48.9939C21.668 49.1603 21.841 49.3461 22.0411 49.5513C22.2412 49.7565 22.352 49.863 22.3736 49.8708C22.3953 49.8797 22.4223 49.9052 22.4547 49.9473C22.4872 49.9884 22.5953 50.0866 22.7792 50.2418C22.963 50.3971 23.2036 50.5774 23.501 50.7826C23.7984 50.9878 24.1282 51.1903 24.4905 51.3899C24.8527 51.5896 25.2421 51.7698 25.6584 51.9307C26.0747 52.0915 26.3667 52.1969 26.5343 52.2468C26.7019 52.2968 26.9885 52.3605 27.394 52.4382C27.7995 52.5158 28.1051 52.5658 28.3105 52.5879C28.516 52.6101 28.6566 52.6229 28.7323 52.6262L28.8458 52.6295L28.8426 52.6046L28.8377 52.5796L28.8052 52.3716C28.7836 52.233 28.7728 52.0388 28.7728 51.7893C28.7728 51.5397 28.7917 51.3095 28.8296 51.0987C28.8674 50.888 28.9242 50.6745 28.9999 50.4581C29.0756 50.2418 29.1497 50.0682 29.2221 49.9374C29.2957 49.8076 29.3919 49.6595 29.5109 49.4931C29.6298 49.3267 29.7839 49.1548 29.9732 48.9773C30.1624 48.7998 30.3787 48.6417 30.622 48.5031C30.8653 48.3644 31.0897 48.259 31.2952 48.1869C31.5006 48.1148 31.6737 48.0677 31.8142 48.0455C31.9548 48.0233 32.0251 48.0106 32.0251 48.0072Z" fill="#1DA1F2"/>
<path d="M164.261 70.9393C169.096 77.4473 178.368 77.7698 184.961 71.177C191.554 64.5842 192.211 54.5526 186.429 48.7707C180.648 42.9889 170.616 43.6463 164.023 50.239C157.138 57.1242 156.469 67.3305 163.49 73.5151" stroke="#6971C0" stroke-width="1.62375" stroke-linecap="round"/>
<path d="M174.991 65.894C171.741 65.894 169.106 63.2591 169.106 60.0088C169.106 56.7585 171.741 54.1236 174.991 54.1236C178.241 54.1236 180.876 56.7585 180.876 60.0088C180.876 63.2591 178.241 65.894 174.991 65.894ZM174.991 52.0176C170.578 52.0176 167 55.5955 167 60.0088C167 64.4223 170.578 68 174.991 68C179.405 68 182.982 64.4223 182.982 60.0088C182.982 55.5955 179.405 52.0176 174.991 52.0176H174.991Z" fill="#F22F46"/>
<path d="M175.32 58.019C175.32 57.1014 176.064 56.3574 176.981 56.3574C177.899 56.3574 178.643 57.1014 178.643 58.019C178.643 58.9367 177.899 59.6806 176.981 59.6806C176.064 59.6806 175.32 58.9367 175.32 58.019ZM175.32 61.9994C175.32 61.0817 176.064 60.3377 176.981 60.3377C177.899 60.3377 178.643 61.0817 178.643 61.9994C178.643 62.917 177.899 63.661 176.981 63.661C176.064 63.661 175.32 62.917 175.32 61.9994ZM171.339 61.9994C171.339 61.0817 172.083 60.3377 173.001 60.3377C173.919 60.3377 174.663 61.0817 174.663 61.9994C174.663 62.917 173.919 63.661 173.001 63.661C172.083 63.661 171.339 62.917 171.339 61.9994ZM171.339 58.019C171.339 57.1014 172.083 56.3575 173.001 56.3575C173.919 56.3575 174.663 57.1014 174.663 58.019C174.663 58.9368 173.919 59.6807 173.001 59.6807C172.083 59.6807 171.339 58.9368 171.339 58.019Z" fill="#F22F46"/>
<path d="M79.0996 120.156C72.9961 128.107 62.1106 129.11 54.8315 121.831C47.5524 114.552 47.4591 102.844 54.6231 95.6796C61.7871 88.5156 73.4956 88.6089 80.7747 95.888C88.3767 103.49 88.4716 115.402 79.8284 123.122" stroke="#6971C0" stroke-width="1.62375" stroke-linecap="round"/>
<path d="M151.742 117.347C150.988 131.557 136.669 130.873 130.782 124.987C124.895 119.1 124.815 109.635 130.603 103.847C136.391 98.0593 145.855 98.1394 151.742 104.026C157.89 110.174 157.971 119.803 150.988 126.04" stroke="#6971C0" stroke-width="1.62375" stroke-linecap="round"/>
<path d="M146.994 113.622C146.994 113.09 146.949 112.701 146.854 112.298H140.63V114.702H144.283C144.209 115.299 143.812 116.199 142.928 116.803L142.915 116.884L144.883 118.374L145.02 118.387C146.272 117.257 146.994 115.594 146.994 113.622Z" fill="#4285F4"/>
<path d="M140.629 119.955C142.419 119.955 143.922 119.379 145.019 118.386L142.927 116.803C142.367 117.184 141.616 117.451 140.629 117.451C138.876 117.451 137.389 116.321 136.858 114.759L136.78 114.765L134.734 116.313L134.708 116.385C135.798 118.501 138.037 119.955 140.629 119.955Z" fill="#34A853"/>
<path d="M136.858 114.759C136.718 114.356 136.637 113.925 136.637 113.478C136.637 113.032 136.718 112.6 136.851 112.197L136.847 112.111L134.775 110.539L134.708 110.571C134.258 111.449 134 112.435 134 113.478C134 114.522 134.258 115.508 134.708 116.386L136.858 114.759Z" fill="#FBBC05"/>
<path d="M140.629 109.505C141.874 109.505 142.714 110.03 143.192 110.469L145.063 108.684C143.914 107.641 142.419 107 140.629 107C138.037 107 135.798 108.454 134.708 110.57L136.851 112.197C137.389 110.635 138.876 109.505 140.629 109.505Z" fill="#EB4335"/>
<rect x="17.1001" y="173.786" width="152.073" height="91.2436" fill="#11175C"/>
<path d="M169.173 171.283L187.422 157.564V240.64L172.215 265.029" stroke="#5A63B8" stroke-width="1.85353" stroke-linecap="round"/>
<path d="M19.1284 169.731L33.4878 155.537H185.394" stroke="#5A63B8" stroke-width="1.85353" stroke-linecap="round"/>
<path d="M43.7942 183.959C43.7942 193.558 43.7942 213.513 43.7942 216.545C43.7942 219.576 43.7942 224.88 43.7942 227.154L41.7666 233.216V258.981" stroke="#777DBA" stroke-width="1.85353" stroke-linecap="round"/>
<path d="M61.7085 258.945C61.7085 249.346 61.7085 229.391 61.7085 226.36C61.7085 223.329 61.7085 218.024 61.7085 215.751V209.688V183.923" stroke="#777DBA" stroke-width="1.85353" stroke-linecap="round"/>
<path d="M84.0125 183.926C84.0125 193.525 84.0125 213.48 84.0125 216.511C84.0125 219.543 84.0125 224.847 84.0125 227.121L81.9849 233.183V258.948" stroke="#777DBA" stroke-width="1.85353" stroke-linecap="round"/>
<path d="M102.261 258.945C102.261 249.346 102.261 229.391 102.261 226.36C102.261 223.329 102.261 218.024 102.261 215.751L104.289 209.688V183.923" stroke="#777DBA" stroke-width="1.85353" stroke-linecap="round"/>
<path d="M122.537 183.926C122.537 193.525 122.537 213.48 122.537 216.511C122.537 219.543 122.537 224.847 122.537 227.121L120.51 233.183V258.948" stroke="#777DBA" stroke-width="1.85353" stroke-linecap="round"/>
<path d="M140.785 258.945C140.785 249.346 140.785 229.391 140.785 226.36C140.785 223.329 140.785 218.024 140.785 215.751L142.813 209.688V183.923" stroke="#777DBA" stroke-width="1.85353" stroke-linecap="round"/>
<path d="M152.983 208.825L167.194 173.3H17.0983L2 208.825H152.983Z" stroke="#9AA2F1" stroke-width="1.62375"/>
<g clip-path="url(#clip1)">
<path d="M59.469 106.299C59.1659 106.348 58.857 106.349 58.5536 106.302C58.2567 106.248 57.949 106.082 57.781 105.831C57.1307 105.804 56.5364 105.274 56.4358 104.63C55.9681 104.391 55.5573 103.878 55.3098 103.415C55.1982 103.187 55.1271 102.942 55.0996 102.691C55.4423 102.307 55.9701 101.966 56.5603 102.434C56.5895 102.366 56.6319 102.306 56.6849 102.255C56.7379 102.204 56.8006 102.164 56.8692 102.138C57.0067 102.087 57.153 102.062 57.2998 102.067C57.4933 102.067 57.7241 102.125 57.8571 102.266C58.4426 101.836 59.3126 101.684 60.0223 101.84" fill="#3F3A3B"/>
<path d="M74.5318 106.299C74.8349 106.348 75.1438 106.349 75.4472 106.302C75.7441 106.248 76.0518 106.082 76.2197 105.831C76.8701 105.804 77.4643 105.274 77.565 104.63C78.0327 104.391 78.4435 103.878 78.691 103.415C78.8026 103.187 78.8737 102.942 78.9012 102.691C78.5585 102.307 78.0307 101.966 77.4405 102.434C77.4113 102.366 77.3689 102.306 77.3159 102.255C77.2629 102.204 77.2002 102.164 77.1316 102.138C76.9941 102.087 76.8478 102.062 76.7009 102.067C76.5075 102.067 76.2767 102.125 76.1437 102.266C75.5582 101.836 74.6882 101.684 73.9785 101.84" fill="#3F3A3B"/>
<path d="M67.0004 98.3716C65.7912 98.3525 64.5366 98.4094 63.3784 98.7895C62.141 99.1959 61.1746 99.8793 60.486 100.965C60.1473 101.5 59.7696 102.335 59.6355 102.956C59.3776 104.153 59.2912 105.527 59.5443 106.73C59.9236 108.532 61.9125 109.433 63.5727 109.672C64.6936 109.833 65.8235 109.925 66.9558 109.946C68.124 109.968 69.2699 109.839 70.4269 109.672C72.087 109.434 74.0755 108.532 74.4552 106.73C74.7084 105.527 74.622 104.153 74.3641 102.956C74.2303 102.335 73.8522 101.5 73.5135 100.965C72.8249 99.8793 71.8586 99.1959 70.6211 98.7895C69.4629 98.4094 68.2087 98.3517 66.9992 98.3716" fill="#F48BA9"/>
<path d="M70.2003 108.316C71.2248 108.01 72.2302 107.367 72.873 106.511C72.8882 104.959 72.6175 103.323 72.2227 101.82C71.6679 101.603 71.1022 101.414 70.5279 101.255C69.1319 100.861 67.6816 100.693 66.2325 100.759C64.699 100.833 63.2 101.261 61.7779 101.82C61.3827 103.323 61.1124 104.958 61.1276 106.511C61.7692 107.366 62.7757 108.01 63.8002 108.316C65.8158 108.918 68.1876 108.917 70.2003 108.316Z" fill="#FFE6E6"/>
<path d="M68.1016 98.3809C68.0327 97.8236 67.6538 97.3182 67.0002 97.2979C66.3467 97.3182 65.9678 97.8228 65.8989 98.3809" fill="#3F3A3B"/>
<path d="M65.73 106.751C66.9641 106.749 68.1961 106.687 69.4259 106.565L69.4283 105.781C69.4332 105.741 69.4233 105.701 69.4005 105.668C69.3662 105.628 69.3065 105.632 69.2556 105.637C67.7585 105.785 66.2548 105.855 64.7504 105.847C64.7374 105.843 64.7235 105.842 64.7102 105.845C64.6969 105.848 64.6845 105.854 64.6745 105.864C64.6644 105.873 64.657 105.885 64.6529 105.898C64.6489 105.911 64.6483 105.925 64.6513 105.938V106.55C64.6493 106.567 64.6504 106.583 64.6547 106.599C64.659 106.614 64.6664 106.629 64.6764 106.642C64.8292 106.787 65.5385 106.751 65.73 106.751Z" fill="white"/>
<path d="M66.9865 95.2358C67.1525 95.2358 67.287 95.1012 67.287 94.9353C67.287 94.7693 67.1525 94.6348 66.9865 94.6348C66.8206 94.6348 66.686 94.7693 66.686 94.9353C66.686 95.1012 66.8206 95.2358 66.9865 95.2358Z" fill="#DCC6EA"/>
<path d="M62.6686 109.545C62.6686 109.545 60.7303 110.417 60.5062 110.577C60.2821 110.737 60.5858 110.651 60.8198 110.756C61.0539 110.862 61.2692 110.969 61.3289 111.221C61.3886 111.472 61.3516 111.423 61.3516 111.423L62.6153 110.854L62.8083 109.545H62.6686Z" fill="#F48BA9"/>
<path d="M60.2378 112.024C60.2378 112.024 60.643 112.103 60.9005 111.961C61.158 111.819 61.3514 111.518 61.3514 111.518L61.7733 111.811L62.405 112.285C62.405 112.285 61.9588 112.303 61.8478 112.611C61.7829 112.781 61.7387 112.959 61.716 113.14L60.8706 112.643L60.2378 112.024Z" fill="#F48BA9"/>
<path d="M60.3468 110.724C60.2067 110.774 60.0813 110.859 59.9818 110.97C59.9205 111.035 59.8397 111.098 59.8091 111.183C59.7338 111.393 59.8258 111.609 59.9121 111.798C59.9711 111.927 60.0455 111.973 60.186 111.997C60.3535 112.026 60.5442 112.063 60.7126 112.042C61.0226 112.002 61.2761 111.73 61.3148 111.426C61.3374 111.246 61.2447 110.967 61.0783 110.876C60.8539 110.757 60.6001 110.704 60.3468 110.724Z" fill="#3F3A3B"/>
<path d="M62.8082 109.545L62.4047 112.285C62.4047 112.285 62.2128 113.523 62.2518 113.828C62.2908 114.132 62.4667 115.452 62.9368 115.764C63.4069 116.075 64.0385 116.55 65.5526 116.635C67.0666 116.72 68.0828 116.741 69.239 116.485C70.3952 116.229 70.9421 116.024 71.2267 115.502C71.5113 114.98 71.6848 114.832 71.7043 114.254C71.7238 113.676 71.7091 113.271 71.7091 113.271L71.5312 111.838L71.1889 109.545C71.1889 109.545 68.5257 110.033 67.0002 109.974C65.4746 109.914 62.8082 109.545 62.8082 109.545Z" fill="#F48BA9"/>
<path d="M71.2822 109.565C71.2822 109.565 72.6355 110.153 73.1111 110.382C73.3843 110.511 73.6452 110.664 73.8908 110.839C73.8908 110.839 73.3336 110.625 73.0924 110.784C72.9439 110.885 72.8139 111.01 72.7079 111.155L72.6124 111.423L71.3853 110.854L71.2822 109.565Z" fill="#F48BA9"/>
<path d="M71.6323 112.243L72.5876 111.544C72.5876 111.544 72.8909 111.927 73.1543 111.982C73.4178 112.037 73.8079 112.002 73.8079 112.002L73.4735 112.369L72.3285 113.195L72.1991 112.728L71.8906 112.369L71.6323 112.243Z" fill="#F48BA9"/>
<path d="M73.4413 110.77C73.218 110.77 72.941 110.79 72.7778 110.962C72.646 111.102 72.6142 111.39 72.6651 111.568C72.6986 111.684 72.7268 111.775 72.8307 111.846C72.9336 111.917 73.0521 111.963 73.1762 111.978C73.333 111.996 73.4874 112.021 73.6466 112.009C73.7541 112.002 73.8532 111.992 73.9455 111.933C74.059 111.861 74.096 111.768 74.1378 111.645C74.1955 111.475 74.2242 111.287 74.1378 111.125C74.0435 110.946 73.7915 110.835 73.6136 110.764" fill="#3F3A3B"/>
<path d="M63.603 116.246C63.603 116.246 63.6325 117.031 63.6468 117.138C63.6513 117.195 63.6683 117.249 63.6966 117.298C63.6966 117.298 65.5207 117.668 67.2855 117.613C69.0503 117.558 69.2358 117.454 69.2358 117.454L70.3633 117.205C70.3633 117.205 70.4294 116.746 70.4246 116.63C70.4199 116.514 70.3052 116.246 70.3052 116.246C69.4157 116.545 68.4842 116.701 67.5458 116.707C66.0051 116.714 64.6586 116.528 64.3334 116.448C64.0082 116.369 63.603 116.246 63.603 116.246Z" fill="#F48BA9"/>
<path d="M63.8433 117.295C63.8433 117.295 63.8954 118.321 64.168 118.743C64.4407 119.166 64.8845 119.847 65.5611 120.059C66.2377 120.271 66.3635 120.308 66.8411 120.324C67.3187 120.34 68.1816 120.261 68.7683 119.79C69.355 119.32 69.5385 119.011 69.5385 119.011C69.5385 119.011 69.9178 118.449 69.9365 118.136C69.9552 117.822 70.0467 117.295 70.0467 117.295C70.0467 117.295 68.5144 117.71 66.8097 117.617C65.105 117.523 64.2094 117.39 64.2094 117.39L63.8433 117.295Z" fill="#3F3A3B"/>
<path d="M62.224 112.339C62.0114 112.488 61.7599 112.617 61.7463 112.913C61.732 113.226 61.7611 113.532 61.9394 113.795C62.0118 113.902 62.1085 113.994 62.2395 114.011C62.296 113.948 62.2793 113.808 62.2837 113.725C62.2912 113.559 62.2908 113.391 62.2948 113.226C62.649 113.207 63.0172 113.158 63.3476 113.043C63.3583 112.876 63.3165 112.704 63.3078 112.537C63.303 112.444 63.3189 112.389 63.2377 112.348C63.1231 112.289 62.8795 112.284 62.7553 112.274C62.6311 112.263 62.5165 112.295 62.3927 112.299" fill="#3F3A3B"/>
<path d="M71.7567 112.308C71.5975 112.238 71.3459 112.278 71.1692 112.278C71.0331 112.278 70.8213 112.284 70.7115 112.38C70.6275 112.454 70.6793 112.548 70.692 112.65C70.7067 112.77 70.7004 112.923 70.7537 113.034C70.7808 113.091 70.7457 113.082 70.8082 113.104C70.8639 113.124 70.9917 113.094 71.0554 113.094C71.2264 113.095 71.397 113.111 71.5652 113.141C71.7515 113.174 71.7197 113.327 71.7491 113.499C71.7722 113.635 71.7324 113.873 71.808 113.986C71.9374 113.866 72.0954 113.747 72.1746 113.585C72.257 113.416 72.2713 113.214 72.2642 113.028C72.2522 112.73 72.048 112.453 71.7567 112.308Z" fill="#3F3A3B"/>
<path d="M64.642 110.806C64.443 110.682 64.2519 110.894 64.2933 111.095C64.3028 111.132 64.3208 111.166 64.3459 111.195C64.3709 111.223 64.4024 111.246 64.4377 111.26C64.473 111.274 64.5112 111.28 64.5491 111.276C64.587 111.273 64.6236 111.261 64.6559 111.241C64.8032 111.139 64.7542 110.9 64.642 110.806Z" fill="#FFE6E6"/>
<path d="M65.4977 110.826C65.5136 110.751 65.28 110.833 65.2386 110.886C65.1705 110.971 65.1689 111.146 65.243 111.22C65.3536 111.332 65.5817 111.304 65.6577 111.164C65.7266 111.035 65.6768 110.871 65.4977 110.826Z" fill="#FFE6E6"/>
<path d="M68.642 110.837C68.5943 110.696 68.2213 110.846 68.2934 111.041C68.34 111.167 68.5035 111.231 68.6273 111.196C68.8251 111.137 68.7599 110.95 68.642 110.837Z" fill="#FFE6E6"/>
<path d="M69.5076 110.766C69.3297 110.748 69.0531 110.965 69.2433 111.141C69.3229 111.215 69.5048 111.209 69.5773 111.134C69.6624 111.046 69.6457 110.771 69.5076 110.766Z" fill="#FFE6E6"/>
<path d="M63.6143 111.544C63.6143 111.544 63.5374 112.863 63.4976 113.228C63.4578 113.592 63.5275 114.407 63.5275 114.407C63.5275 114.407 65.4081 114.856 66.6519 114.816C67.8957 114.777 69.2888 114.704 69.7465 114.601C70.2042 114.498 70.5051 114.407 70.5051 114.407L70.4442 112.565L70.3833 111.544C70.3833 111.544 65.9653 111.593 65.8658 111.573C65.7663 111.553 63.6143 111.544 63.6143 111.544Z" fill="#3F3A3B"/>
<path d="M65.01 114.283C65.6551 114.283 66.1782 113.76 66.1782 113.114C66.1782 112.469 65.6551 111.946 65.01 111.946C64.3648 111.946 63.8418 112.469 63.8418 113.114C63.8418 113.76 64.3648 114.283 65.01 114.283Z" fill="white"/>
<path d="M69.0168 114.283C69.662 114.283 70.185 113.76 70.185 113.114C70.185 112.469 69.662 111.946 69.0168 111.946C68.3716 111.946 67.8486 112.469 67.8486 113.114C67.8486 113.76 68.3716 114.283 69.0168 114.283Z" fill="white"/>
<path opacity="0.2" d="M66.2172 97.6479C66.3446 97.5504 67.2759 96.8801 67.1951 97.4577C66.7378 97.5814 66.6025 97.9054 66.9257 98.2537C66.5774 98.2744 66.1615 98.4129 65.8228 98.3604C65.8832 98.0954 66.0098 97.8501 66.1909 97.6475" fill="black"/>
<path opacity="0.2" d="M67.3316 98.3905C66.7696 98.642 65.5178 99.5638 65.6862 100.315C65.726 100.491 65.8895 100.703 66.0213 100.832C65.964 100.776 65.031 101.193 64.8981 101.244C64.4642 101.41 64.0193 101.559 63.6157 101.793C63.0159 102.141 62.3719 102.443 62.151 103.146C62.022 103.557 61.8962 103.987 61.8915 104.417C61.8867 104.846 61.7362 105.417 61.9241 105.8C62.4781 106.928 63.5862 107.731 64.758 108.129C65.3294 108.316 65.9151 108.457 66.5093 108.55C66.8225 108.6 67.2133 108.545 67.33 108.892C67.2754 108.73 66.6291 109.21 66.6569 109.479C66.6903 109.8 67.0462 109.973 67.3304 110.044C67.0227 110.219 66.6577 110.351 66.43 110.655C66.3007 110.827 65.9071 111.451 66.0014 111.65C65.7626 111.805 65.427 111.855 65.1843 111.915C65.3896 111.968 65.5114 112.071 65.6523 112.215C65.3968 112.218 65.1544 112.118 64.9184 112.277C65.0843 112.284 65.2462 112.331 65.3904 112.413C65.2018 112.473 64.6935 112.409 64.6402 112.692C64.7432 112.709 64.8113 112.625 64.904 112.603C64.9701 112.594 65.037 112.594 65.1031 112.603C64.8244 112.74 64.594 112.889 64.6768 113.251C64.7421 113.537 64.9729 113.731 65.2595 113.557C65.1043 113.664 64.9522 113.665 64.7715 113.645C64.6549 113.632 64.4662 113.578 64.5327 113.772C64.6426 114.087 65.2444 114.044 65.4637 113.905C65.3689 114.04 65.193 114.06 65.0633 114.139C65.1098 114.305 65.5409 114.167 65.6324 114.099C65.5269 114.175 64.7512 114.452 65.2579 114.637C65.4123 114.693 65.5807 114.721 65.7355 114.774C66.1825 114.928 66.688 114.8 67.1489 114.76C67.4498 114.733 67.7435 114.72 68.0476 114.714C67.7834 114.815 67.5347 114.953 67.3089 115.124C67.0064 115.351 66.5435 115.754 66.518 116.147C66.4949 116.501 66.6645 116.772 67.0517 116.779C66.407 116.766 66.389 117.363 66.8277 117.602C66.9053 117.874 67.3522 117.709 67.5688 117.767C67.2571 117.981 66.6497 117.844 66.3632 118.104C65.9373 118.492 66.7329 118.87 66.9323 119.082C66.8197 119.095 66.3962 119.137 66.3512 119.259C66.2828 119.444 66.6697 119.617 66.8026 119.657C67.2802 119.805 67.7455 119.621 68.1988 119.562C68.0157 119.67 67.1083 119.932 67.4884 120.273C66.7158 120.65 65.5779 120.014 64.906 119.67C64.1036 119.257 63.8473 118.109 63.7988 117.284C63.3502 117.275 63.7092 116.456 63.5906 116.207C63.5237 116.068 63.3394 116.074 63.1926 115.987C63.0206 115.886 62.9466 115.773 62.8224 115.611C62.6401 115.372 62.4371 115.113 62.3667 114.817C62.3014 114.542 62.307 114.257 62.2799 113.978C62.2596 113.769 62.1104 113.415 62.2373 113.221C62.4033 112.968 62.9589 113.217 63.2196 113.132C63.4258 113.065 63.3478 112.909 63.3586 112.704C63.3709 112.466 63.3311 112.426 63.0799 112.341C62.8905 112.277 62.6055 112.214 62.4061 112.259C62.385 111.929 62.4208 111.639 62.4674 111.311C62.4957 111.112 62.547 110.92 62.5725 110.724C62.6262 110.338 62.8543 109.888 62.818 109.504C62.5092 109.398 62.1812 109.362 61.8807 109.247C61.7279 109.183 61.5826 109.103 61.4473 109.008C61.0369 108.74 60.6711 108.643 60.3591 108.222C60.18 107.981 59.9866 107.779 59.8417 107.51C59.7483 107.343 59.674 107.166 59.6204 106.983C59.3959 106.181 59.3963 105.293 59.4516 104.469C59.5085 103.617 59.6709 102.772 60.0419 101.998C60.3794 101.294 60.6707 100.46 61.3299 99.9678C61.5332 99.8162 61.751 99.7012 61.9464 99.538C62.1506 99.3676 62.2947 99.1865 62.5402 99.0763C62.9363 98.8988 63.3912 98.6998 63.8254 98.6584C64.3866 98.605 64.9084 98.4148 65.4784 98.4152C66.0933 98.4152 66.6999 98.3555 67.3204 98.3555" fill="black"/>
<path opacity="0.2" d="M59.6168 102.677C59.5145 102.746 59.5312 102.849 59.493 102.955C59.4389 103.105 59.3497 103.245 59.288 103.393C59.1573 103.702 58.9924 103.996 58.7965 104.269C58.6986 104.408 58.4382 104.831 58.2138 104.746C57.9821 104.658 57.9264 103.973 57.9041 103.762C57.8774 103.507 57.8794 103.255 57.8607 102.997C57.7732 103.254 57.5256 104.726 57.0746 104.465C56.7618 104.283 56.796 103.672 56.7359 103.37C56.6914 103.141 56.6651 102.865 56.5469 102.659C56.3837 102.814 56.4498 103.406 56.4314 103.629C56.4064 103.93 56.3634 103.842 56.1162 103.713C55.8328 103.565 55.6474 103.329 55.4989 103.04C55.4034 102.855 55.4456 102.642 55.4348 102.443C55.3508 102.446 55.1522 102.577 55.1045 102.663C55.0249 102.808 55.1176 102.991 55.1602 103.132C55.2398 103.396 55.268 103.538 55.4575 103.733C55.6012 103.881 55.6991 104.009 55.8734 104.12C56.0266 104.224 56.1728 104.337 56.3112 104.46C56.5103 104.627 56.4108 104.622 56.4521 104.87C56.5055 105.189 56.8251 105.459 57.0838 105.615C57.3051 105.748 57.5475 105.788 57.7672 105.882C58.0024 105.982 58.1799 106.218 58.4438 106.283C58.7617 106.355 59.0871 106.388 59.413 106.383C59.4488 105.762 59.3971 105.133 59.3951 104.512C59.3982 104.207 59.423 103.902 59.4691 103.601C59.4974 103.396 59.5905 103.182 59.5941 102.979" fill="black"/>
<path opacity="0.2" d="M65.2289 105.88C65.4124 105.968 65.82 105.88 66.0449 105.88H66.6367C66.4266 105.891 66.2073 105.947 66.0027 105.999C65.8518 106.039 65.5095 106.064 65.3981 106.168C65.1453 106.404 65.6198 106.694 65.8443 106.74C65.6815 106.803 64.8277 106.848 64.6856 106.677C64.6204 106.598 64.6267 106.17 64.6307 106.058C64.6375 105.876 64.6705 105.77 64.8695 105.8" fill="black"/>
<path opacity="0.2" d="M68.811 105.781C69.0498 105.861 69.1458 105.838 69.1493 106.145C69.1521 106.391 69.0514 106.523 68.8707 106.673C69.0451 106.697 69.2572 106.664 69.4232 106.633C69.4391 106.333 69.4598 106.025 69.4427 105.724C69.3257 105.674 69.1609 105.702 68.811 105.781Z" fill="black"/>
<path opacity="0.2" d="M63.2388 103.113C63.0688 103.153 62.9494 103.247 62.7643 103.235C62.7775 103.318 62.8475 103.378 62.8985 103.448C62.824 103.439 62.7886 103.47 62.7393 103.511C63.0274 103.739 62.7751 104.322 62.8654 104.646C62.9697 105.018 63.5556 105.116 63.7216 104.73C63.794 104.562 63.7311 104.584 63.6487 104.415C63.5019 104.113 63.4414 103.726 63.4581 103.392" fill="black"/>
<path opacity="0.2" d="M70.4429 103.193C70.1599 103.499 70.1997 104.062 70.224 104.467C70.2479 104.865 70.7785 105.255 71.0599 104.82C71.1757 104.64 71.0702 104.565 71.0085 104.397C70.8792 104.048 71.0415 103.544 70.7621 103.253" fill="black"/>
<path opacity="0.2" d="M74.423 102.716C74.4143 103.057 74.7084 103.332 74.7912 103.65C74.8625 103.925 74.9222 104.168 75.0997 104.403C75.2115 104.551 75.4463 104.853 75.6569 104.826C75.9315 104.791 76.0179 104.313 76.0756 104.101C76.1552 103.803 76.1552 103.492 76.2185 103.2C76.2766 103.446 76.3861 104.456 76.7972 104.325C77.1952 104.198 77.3114 103.268 77.5029 102.936C77.5029 103.315 77.7234 103.635 78.1174 103.41C78.4494 103.22 78.562 102.788 78.9373 102.658C79.0086 103.107 78.556 103.586 78.3069 103.906C78.1182 104.149 77.8659 104.351 77.6669 104.547C77.5972 104.615 77.5757 104.706 77.5164 104.806C77.2836 105.204 77.0981 105.572 76.6647 105.801C76.5337 105.871 76.3697 105.819 76.2742 105.864C76.1393 105.927 76.086 106.088 75.9459 106.158C75.7838 106.231 75.6121 106.28 75.436 106.304C75.1821 106.344 74.6822 106.532 74.462 106.341C74.6276 106.11 74.5791 105.82 74.5815 105.547C74.5846 105.242 74.6073 104.946 74.5866 104.641C74.5496 104.08 74.5098 103.456 74.423 102.716Z" fill="black"/>
<path opacity="0.2" d="M74.5027 106.478C74.2706 107.11 73.766 107.659 73.3086 108.129C72.7172 108.737 71.8977 109.2 71.0973 109.482C70.6395 109.644 70.1392 109.764 69.6724 109.88C70.2857 110.036 71.1152 109.634 71.3178 110.422C71.3178 110.134 71.2648 109.852 71.2811 109.564C71.514 109.567 71.703 109.41 71.9116 109.323C72.1293 109.233 72.3423 109.15 72.554 109.043C72.9174 108.858 73.2306 108.669 73.5283 108.386C74.0649 107.879 74.2265 107.299 74.5027 106.478Z" fill="black"/>
<path opacity="0.2" d="M71.3779 110.994C71.3528 111.273 71.4504 111.561 71.4575 111.83C71.4627 112.035 71.3628 112.117 71.2207 112.243C71.3325 112.252 71.5264 112.298 71.5929 112.223C71.7055 112.096 71.5451 111.492 71.4973 111.351" fill="black"/>
<path opacity="0.2" d="M71.2788 110.198C71.4424 110.473 72.0203 110.599 72.3061 110.716C72.4506 110.775 72.5847 110.847 72.7415 110.855C72.8876 110.863 73.0468 110.798 73.1821 110.855C73.0627 110.887 73.0898 111.056 73.0898 111.173C73.0898 111.364 73.083 111.501 73.2888 111.582C73.4631 111.651 73.811 111.648 73.9654 111.536C74.0956 111.443 74.0546 111.331 74.1501 111.218C74.2297 111.439 74.2357 111.717 74.0172 111.855C73.9344 111.907 73.854 111.965 73.7561 111.985C73.6137 112.01 73.4691 112.017 73.325 112.008C73.1945 112.002 73.0774 111.995 72.9616 112.067C72.8259 112.152 72.7228 112.286 72.5998 112.385C72.4768 112.485 72.3164 112.555 72.1934 112.658C72.2452 112.354 71.7747 112.333 71.5964 112.255C71.9785 112.043 72.4406 111.71 72.7009 111.349C72.3825 111.247 72.0573 111.202 71.7457 111.064C71.6334 111.015 71.3946 110.936 71.3393 110.809C71.2716 110.66 71.3867 110.482 71.2788 110.198Z" fill="black"/>
<path opacity="0.2" d="M70.7215 112.507C70.9002 112.939 71.6544 112.949 72.0115 113.168C72.0393 113.338 72.2391 113.507 72.1894 113.656C72.1372 113.814 71.8841 114.018 71.7181 113.997C71.8646 113.743 71.7902 113.312 71.537 113.224C71.2839 113.136 70.9539 113.11 70.6845 113.082C70.6745 112.926 70.6049 112.384 70.7215 112.507Z" fill="black"/>
<path opacity="0.2" d="M70.9006 113.104C71.0256 113.217 71.2405 113.205 71.3682 113.323C71.496 113.44 71.4877 113.589 71.502 113.74C71.5418 114.123 71.4721 114.508 71.502 114.895C71.7543 114.415 71.7806 113.697 71.7531 113.148C71.5939 113.13 71.4347 113.126 71.2791 113.102C71.252 113.096 70.8759 113.081 70.9006 113.104Z" fill="black"/>
<path opacity="0.2" d="M68.2139 116.706C68.6835 116.706 69.1532 116.712 69.6177 116.684C69.882 116.669 70.2147 116.554 70.4786 116.645C70.5029 116.491 70.469 116.308 70.4599 116.152C70.1904 116.107 69.833 116.339 69.5763 116.408C69.2642 116.491 68.9092 116.535 68.6119 116.627" fill="black"/>
<path opacity="0.2" d="M64.9474 120.5C64.7581 120.518 64.5673 120.515 64.3787 120.491C64.2453 120.472 64.0204 120.418 63.8975 120.471C63.9615 120.787 64.9789 120.742 65.2284 120.766C65.6352 120.806 66.0197 120.748 66.4225 120.686C66.9307 120.606 67.4458 120.667 67.9576 120.667C68.4854 120.667 69.016 120.54 69.5027 120.352C69.0928 120.308 68.6637 120.415 68.245 120.374C67.8868 120.338 67.4888 120.273 67.1305 120.288C66.7831 120.304 66.4539 120.388 66.1057 120.388C65.7164 120.388 65.3303 120.47 64.9474 120.5Z" fill="black"/>
<path opacity="0.2" d="M62.1243 109.721C61.8285 109.858 61.5352 110.029 61.2486 110.185C61.0894 110.272 60.9234 110.35 60.7591 110.429C60.6862 110.465 60.6194 110.511 60.5465 110.549C60.5378 110.553 60.3511 110.64 60.377 110.658C60.6058 110.817 60.9549 110.719 61.1869 110.901C61.3513 111.03 61.3668 111.2 61.4126 111.391C61.6761 111.417 62.0861 111.175 62.3249 111.061C62.4618 110.995 62.5605 110.95 62.623 110.827C62.691 110.692 62.6628 110.519 62.7093 110.376C62.7515 110.251 62.7949 110.223 62.8025 110.071C62.8112 109.893 62.8705 109.721 62.8606 109.546C62.6819 109.553 62.2779 109.65 62.1243 109.721Z" fill="black"/>
<path opacity="0.2" d="M60.9502 110.855C61.0664 110.895 61.2065 111.068 61.2057 111.191C60.9613 111.27 60.6433 111.158 60.7113 111.562C60.7663 111.89 61.1961 111.905 61.2686 111.599C60.9629 111.966 60.2413 112.252 59.9125 111.766C59.5193 111.184 60.1302 110.811 60.65 110.716" fill="black"/>
<path opacity="0.2" d="M61.1891 111.851C61.3085 112.034 61.4279 112.189 61.6185 112.288C61.8573 112.413 61.9676 112.339 62.2179 112.348C62.0691 112.37 61.8748 112.45 61.8685 112.623C62.1021 112.748 62.3779 112.628 62.6223 112.696C62.7417 112.728 62.8293 112.79 62.9555 112.82C63.0816 112.85 63.2086 112.875 63.3085 112.961C63.1051 112.967 62.4189 113.027 62.2852 113.215C62.1729 113.375 62.3521 113.767 62.2597 113.978C62.1264 113.916 61.8963 113.856 61.8291 113.704C61.7702 113.57 61.8092 113.28 61.7833 113.127C61.4704 113.137 61.1763 112.873 60.9602 112.667C60.7301 112.448 60.4714 112.309 60.2378 112.092C60.4292 112.087 61.1393 112.076 61.1891 111.851Z" fill="black"/>
<path opacity="0.2" d="M64.343 110.756C64.1798 110.807 64.0051 111.008 64.0815 111.184C64.1826 111.416 64.5695 111.429 64.6602 111.195C64.5615 111.215 64.4779 111.251 64.3975 111.17C64.3287 111.1 64.29 110.892 64.343 110.756Z" fill="black"/>
<path opacity="0.2" d="M65.2586 110.796C65.0919 110.775 65.0334 111.127 65.0692 111.244C65.1388 111.47 65.5974 111.372 65.636 111.164C65.5524 111.179 65.4549 111.224 65.3645 111.204C65.22 111.169 65.1568 110.967 65.2586 110.796Z" fill="black"/>
<path opacity="0.2" d="M68.3934 110.785C68.1864 110.752 68.0638 110.984 68.1371 111.154C68.2397 111.389 68.5828 111.365 68.6983 111.154C68.4049 111.273 68.2493 111.093 68.3934 110.785Z" fill="black"/>
<path opacity="0.2" d="M69.2689 110.786C69.0591 110.754 68.9485 111.045 69.0225 111.203C69.1451 111.466 69.5566 111.38 69.6657 111.155C69.5618 111.192 69.4062 111.257 69.3027 111.178C69.2144 111.11 69.1917 110.931 69.2689 110.786Z" fill="black"/>
<path opacity="0.2" d="M67.9777 112.567C67.8483 112.853 67.8314 113.177 67.9304 113.475C68.0207 113.738 68.2846 113.918 68.4876 114.08C68.6161 114.182 68.8458 114.319 69.0201 114.261C69.1245 114.221 69.2232 114.167 69.3139 114.102C69.3831 114.045 69.3986 113.955 69.4651 113.896C69.2949 113.969 69.109 113.998 68.9246 113.98C68.7917 113.971 68.5513 113.912 68.4705 113.793C68.3682 113.641 68.4736 113.6 68.6026 113.633C68.767 113.677 69.0006 113.766 69.1598 113.659C69.0241 113.663 68.8645 113.685 68.7523 113.593C68.652 113.512 68.5449 113.29 68.5397 113.162C68.5254 112.798 69.0118 112.68 69.282 112.662C69.0898 112.393 68.7742 112.731 68.5819 112.742C68.5385 112.438 69.1188 112.344 69.3246 112.346C69.2283 112.297 69.0659 112.319 68.9923 112.242C69.2178 112.159 69.4553 112.114 69.6956 112.107C69.4902 112.107 69.294 112.019 69.0902 112.002C68.9902 111.995 68.8898 112 68.7909 112.016C68.6957 112.029 68.6368 112.079 68.5485 112.116C68.4764 112.146 68.4048 112.15 68.3343 112.191C68.1826 112.281 68.059 112.411 67.9777 112.567Z" fill="black"/>
<path opacity="0.2" d="M72.4323 102.796C72.3766 102.525 72.4486 102.1 72.2799 101.868C72.1346 101.669 71.7055 101.598 71.4838 101.538C71.1332 101.443 70.7825 101.221 70.4092 101.242C70.5541 101.294 70.6623 101.425 70.7905 101.506C70.9186 101.586 71.0448 101.702 71.1849 101.767C71.325 101.831 71.4707 101.878 71.606 101.953C71.7413 102.028 71.893 102.087 72.0088 102.192C72.1354 102.307 72.1605 102.444 72.1991 102.602C72.2596 102.85 72.2902 103.117 72.3268 103.371C72.3559 103.572 72.3666 103.773 72.3873 103.975C72.4068 104.148 72.4582 104.311 72.4669 104.49C72.4956 105.123 72.6007 105.773 72.4347 106.397C72.3896 106.58 72.3314 106.76 72.2608 106.936C72.205 107.067 72.0832 107.174 72.0387 107.302C72.1445 107.219 72.2588 107.156 72.3479 107.051C72.4733 106.901 72.6389 106.797 72.7416 106.626C72.8212 106.496 72.8212 106.374 72.8359 106.222C72.8562 106.04 72.8009 105.86 72.8208 105.68C72.8375 105.488 72.836 105.295 72.8164 105.103C72.7822 104.665 72.7181 104.227 72.6715 103.79C72.6361 103.456 72.5 103.128 72.4323 102.796Z" fill="black"/>
<path opacity="0.2" d="M72.5526 100.517C72.4521 100.493 72.3488 100.484 72.2457 100.489C72.2158 100.635 72.4618 100.692 72.4017 100.836C72.3774 100.894 72.3165 100.88 72.3134 100.966C72.3102 101.059 72.4021 101.103 72.4216 101.181C72.2035 101.276 72.35 101.37 72.385 101.531C72.4419 101.484 72.4065 101.389 72.4499 101.332C72.4933 101.275 72.5673 101.271 72.6302 101.252C72.6513 101.153 72.5259 101.109 72.5231 101.03C72.5195 100.931 72.6668 100.951 72.74 100.934C72.7177 100.865 72.5506 100.752 72.5713 100.667C72.5872 100.603 72.7536 100.586 72.5526 100.517Z" fill="black"/>
<path opacity="0.2" d="M68.3267 112.096C67.8204 112.258 67.5438 112.663 67.5167 113.187C67.505 113.47 67.5867 113.748 67.7492 113.98C67.9358 114.246 68.386 114.378 68.6965 114.417C69.0415 114.461 69.3472 114.334 69.6119 114.142C69.11 114.28 68.3709 114.259 68.0958 113.723C67.8399 113.22 67.9597 112.71 68.3267 112.096Z" fill="black"/>
<path d="M70.8957 98.8896C70.8694 98.88 70.8432 98.8713 70.8161 98.8637C70.6199 98.8084 70.4276 98.8219 70.2298 98.7582C69.9978 98.6838 69.7773 98.5704 69.5337 98.5361C69.9548 98.8183 70.3536 99.0985 70.7862 99.3572C71.363 99.7019 71.8808 100.123 72.4324 100.509C72.8567 100.806 73.084 101.1 73.2934 101.562C73.373 101.74 73.4526 101.926 73.5302 102.11C73.7861 102.73 74.0591 103.389 74.2016 104.042C74.2876 104.436 74.3481 104.824 74.4066 105.219C74.4337 105.404 74.4647 105.599 74.5097 105.776C74.6864 105.242 74.6434 104.667 74.5893 104.12C74.5567 103.792 74.5459 103.425 74.4464 103.109C74.3592 102.832 74.2247 102.56 74.1053 102.294C73.7773 101.565 73.5083 100.861 72.9841 100.249C72.8416 100.083 72.7007 100.029 72.5176 99.9049C72.3043 99.7596 72.1483 99.5614 71.9624 99.3875C71.7964 99.2315 71.6117 99.2167 71.3988 99.13C71.2269 99.0587 71.0696 98.9541 70.8957 98.8896Z" fill="white"/>
<path d="M74.6624 101.741C74.4884 101.735 74.2174 101.771 74.123 101.94C74.2886 102.059 74.609 102.002 74.8172 102.04C75.011 102.075 75.2805 102.111 75.4604 102.197C75.8341 102.375 75.9209 102.804 76.1712 103.072C76.1889 102.861 76.1836 102.649 76.1553 102.439C76.1235 102.249 76.1119 102.314 75.9846 102.217C75.8078 102.081 75.6622 101.949 75.4476 101.871C75.29 101.814 75.1137 101.8 74.6624 101.741Z" fill="white"/>
<path d="M76.7119 102.039C76.6096 102.042 76.2486 102.14 76.2343 102.258C76.2128 102.43 76.5849 102.352 76.7024 102.357C77.0928 102.376 77.3519 102.583 77.4841 102.949C77.5012 102.741 77.5489 102.361 77.3595 102.217C77.2178 102.11 76.9149 102.089 76.7119 102.039Z" fill="white"/>
<path d="M78.3039 102.239C78.1873 102.203 77.9556 102.189 77.8362 102.242C77.6273 102.332 77.6157 102.493 77.8263 102.538C78.1809 102.613 78.4368 102.508 78.7564 102.714C78.8794 102.532 78.5057 102.323 78.4034 102.219" fill="white"/>
<path d="M68.7554 101.539C68.6002 101.525 68.4633 101.52 68.3745 101.515C68.0473 101.495 67.2131 101.562 67.5407 102.088C67.7532 102.429 68.4469 102.298 68.788 102.253C69.1431 102.207 69.4878 102.194 69.8432 102.176C69.9395 101.705 69.2525 101.581 68.7554 101.539Z" fill="white"/>
<path d="M67.3783 97.363C67.2143 97.3029 67.0547 97.3686 67.1793 97.517C67.2772 97.6336 67.4499 97.6762 67.5451 97.8115C67.6454 97.952 67.7839 98.3966 68.0314 98.2549C68.0716 98.0197 67.727 97.5469 67.3783 97.363Z" fill="white"/>
<path d="M67.06 94.6563C66.89 94.6042 66.7539 94.6464 66.8809 94.7857C66.9255 94.8342 66.9911 94.7916 67.0401 94.8752C67.0751 94.9353 67.0544 95.0253 67.0433 95.091C67.3052 95.1554 67.1913 94.7208 67.0799 94.6364" fill="white"/>
<path d="M69.9853 111.552C69.8337 111.519 69.6625 111.484 69.4977 111.492C69.1841 111.509 69.282 111.627 69.5224 111.696C69.7047 111.749 69.9304 111.801 70.0772 111.93C70.2241 112.058 70.2675 112.264 70.3785 112.426C70.3165 112.335 70.5377 111.463 70.3033 111.452" fill="white"/>
<path d="M72.0948 109.9C71.9806 109.835 71.1161 109.35 71.2029 109.698C71.5842 109.857 71.9372 110.089 72.3137 110.266C72.5864 110.395 73.0326 110.764 73.3454 110.733C73.3693 110.557 73.0807 110.362 72.9474 110.278C72.8483 110.217 72.7364 110.187 72.6377 110.124C72.539 110.06 72.4614 109.953 72.0948 109.9Z" fill="white"/>
<path d="M73.8263 110.736C73.6818 110.729 73.4765 110.669 73.3662 110.776C73.5386 110.959 73.7821 110.868 73.9059 111.126C73.9943 111.31 73.9971 111.573 74.0285 111.768C74.2331 111.768 74.2558 111.489 74.2442 111.333C74.2267 111.096 74.0679 111.024 73.8263 110.736Z" fill="white"/>
<path d="M73.4963 112.051C73.2221 112.156 72.8969 112.424 72.8384 112.722C72.9789 112.676 73.1269 112.652 73.2567 112.577C73.3864 112.503 73.482 112.384 73.6018 112.299C73.6245 112.283 73.9703 112.054 73.8983 112.027C73.7761 111.983 73.6352 111.998 73.4963 112.051Z" fill="white"/>
<path d="M71.0036 115.182L70.9865 115.179C70.8647 115.159 70.6486 115.409 70.5526 115.473C70.4567 115.537 70.1304 115.665 70.1248 115.791C70.112 116.066 70.5574 115.769 70.6422 115.71C70.727 115.651 71.2536 115.245 71.0036 115.182Z" fill="white"/>
<path d="M71.6771 112.348C71.613 112.328 71.4295 112.245 71.4383 112.368C71.4439 112.448 71.6536 112.53 71.7169 112.572C71.8145 112.632 71.902 112.706 71.9764 112.793C72.06 112.904 72.0807 113.047 72.185 113.145C72.2928 113.065 72.1961 112.773 72.1599 112.667C72.107 112.514 71.9736 112.456 71.8964 112.327" fill="white"/>
<path d="M71.1466 110.398C71.0773 110.621 71.1068 110.887 71.0992 111.119C71.0898 111.384 71.1024 111.648 71.137 111.911C71.1505 112.008 71.1525 112.153 71.2329 112.189C71.3372 112.236 71.4761 112.221 71.5864 112.235C71.6099 112.073 71.5748 111.949 71.5362 111.798C71.4857 111.599 71.4741 111.379 71.4447 111.175C71.3899 110.823 71.3147 110.475 71.2194 110.132C71.2194 110.228 71.1744 110.309 71.1466 110.398Z" fill="white"/>
<path d="M59.279 101.841C59.08 101.769 58.1741 101.9 58.1877 102.195C58.4503 102.29 58.8774 102.12 59.1505 102.079C59.3097 102.055 59.8024 102.046 59.8131 101.844C59.7765 101.828 59.7369 101.82 59.6969 101.82" fill="white"/>
<path d="M57.3487 102.099C57.1895 102.047 56.4942 102.169 56.7362 102.338C56.8667 102.429 57.1605 102.306 57.3089 102.298C57.4474 102.29 57.5863 102.295 57.7237 102.315C57.7559 102.168 57.5935 102.092 57.4681 102.099" fill="white"/>
<path d="M56.0247 102.415C56.1511 102.4 56.2794 102.41 56.4016 102.446C56.2997 102.236 56.1305 102.229 55.924 102.256C55.797 102.27 55.6725 102.301 55.5538 102.348C55.5268 102.36 55.327 102.494 55.3218 102.493C55.6271 102.595 55.7341 102.45 56.0247 102.415Z" fill="white"/>
<path d="M70.3837 116.527C70.2297 116.534 70.1815 116.833 70.115 116.955C70.045 117.085 69.8603 117.237 69.8695 117.38C70.3746 117.476 70.3837 116.907 70.3837 116.527Z" fill="white"/>
<path d="M69.7513 118.745C70.0072 118.361 70.1525 117.962 70.0653 117.422C69.805 117.36 69.6781 118.17 69.5822 118.373C69.4098 118.738 69.1045 119.057 68.8399 119.359C68.6755 119.549 68.5031 119.751 68.3555 119.946C68.8012 119.997 69.243 119.405 69.4838 119.105C69.8512 118.647 70.0251 118.007 70.0251 117.423" fill="white"/>
<path d="M74.582 102.338C74.8527 102.277 75.265 102.191 75.5174 102.338" stroke="#1E1E1E" stroke-width="0.119405" stroke-linecap="round" stroke-linejoin="round"/>
<path d="M75.6768 102.557H75.7166" stroke="#1E1E1E" stroke-width="0.119405" stroke-linecap="round" stroke-linejoin="round"/>
<path d="M75.7563 102.755C75.7641 102.755 75.7718 102.754 75.7788 102.75C75.7857 102.747 75.7917 102.742 75.7961 102.735" stroke="#1E1E1E" stroke-width="0.119405" stroke-linecap="round" stroke-linejoin="round"/>
<path d="M76.4727 102.576C76.6231 102.51 76.768 102.517 76.9304 102.517" stroke="#1E1E1E" stroke-width="0.119405" stroke-linecap="round" stroke-linejoin="round"/>
<path d="M77.8062 102.576C78.0494 102.53 78.301 102.565 78.5226 102.676" stroke="#1E1E1E" stroke-width="0.119405" stroke-linecap="round" stroke-linejoin="round"/>
<path d="M78.5024 102.854H78.6019" stroke="#1E1E1E" stroke-width="0.119405" stroke-linecap="round" stroke-linejoin="round"/>
<path d="M74.9604 106.019H75.1993" stroke="#1E1E1E" stroke-width="0.119405" stroke-linecap="round" stroke-linejoin="round"/>
<path d="M76.7314 105.343C76.7758 105.307 76.8223 105.273 76.8708 105.243" stroke="#1E1E1E" stroke-width="0.119405" stroke-linecap="round" stroke-linejoin="round"/>
<path d="M77.9854 103.909C78.016 103.887 78.0428 103.86 78.065 103.829" stroke="#1E1E1E" stroke-width="0.119405" stroke-linecap="round" stroke-linejoin="round"/>
<path d="M77.1691 102.557L77.1094 102.636" stroke="#1E1E1E" stroke-width="0.119405" stroke-linecap="round" stroke-linejoin="round"/>
<path d="M77.3281 102.676C77.3079 102.685 77.2902 102.699 77.2764 102.716C77.2625 102.733 77.253 102.754 77.2485 102.775" stroke="#1E1E1E" stroke-width="0.119405" stroke-linecap="round" stroke-linejoin="round"/>
<path d="M72.3135 100.665C72.3441 100.643 72.3903 100.653 72.4329 100.685" stroke="#1E1E1E" stroke-width="0.119405" stroke-linecap="round" stroke-linejoin="round"/>
<path d="M72.2539 100.944C72.2865 101.024 72.3785 101.045 72.4529 101.064" stroke="#1E1E1E" stroke-width="0.119405" stroke-linecap="round" stroke-linejoin="round"/>
<path d="M66.5225 97.6802C66.7485 97.5138 67.026 97.5679 67.2787 97.6006" stroke="#1E1E1E" stroke-width="0.119405" stroke-linecap="round" stroke-linejoin="round"/>
<path d="M67.418 97.7605C67.4335 97.7416 67.4542 97.7277 67.4777 97.7207" stroke="#1E1E1E" stroke-width="0.119405" stroke-linecap="round" stroke-linejoin="round"/>
<path d="M67.5371 97.9193C67.5449 97.9195 67.5526 97.9179 67.5595 97.9144C67.5665 97.9109 67.5724 97.9058 67.5769 97.8994" stroke="#1E1E1E" stroke-width="0.119405" stroke-linecap="round" stroke-linejoin="round"/>
<path d="M66.96 94.835C67.0483 94.835 67.0893 94.907 67.0993 94.9942" stroke="#1E1E1E" stroke-width="0.119405" stroke-linecap="round" stroke-linejoin="round"/>
<path d="M58.96 102.139V102.218" stroke="#1E1E1E" stroke-width="0.119405" stroke-linecap="round" stroke-linejoin="round"/>
<path d="M59.2188 102.079V102.218" stroke="#1E1E1E" stroke-width="0.119405" stroke-linecap="round" stroke-linejoin="round"/>
<path d="M58.2634 102.456C58.2068 103.446 57.9589 104.645 58.3231 105.6" stroke="#1E1E1E" stroke-width="0.119405" stroke-linecap="round" stroke-linejoin="round"/>
<path d="M58.7806 105.502C58.7702 105.556 58.7772 105.612 58.8005 105.661" stroke="#1E1E1E" stroke-width="0.119405" stroke-linecap="round" stroke-linejoin="round"/>
<path d="M58.96 105.642V105.741" stroke="#1E1E1E" stroke-width="0.119405" stroke-linecap="round" stroke-linejoin="round"/>
<path d="M56.8502 102.636C56.7273 103.076 56.7109 103.511 56.7109 103.974C56.7109 104.479 56.8837 104.819 57.1289 105.243" stroke="#1E1E1E" stroke-width="0.119405" stroke-linecap="round" stroke-linejoin="round"/>
<path d="M57.2485 102.456V102.615" stroke="#1E1E1E" stroke-width="0.119405" stroke-linecap="round" stroke-linejoin="round"/>
<path d="M57.3877 102.497V102.696" stroke="#1E1E1E" stroke-width="0.119405" stroke-linecap="round" stroke-linejoin="round"/>
<path d="M55.9948 102.477C55.9837 102.486 55.9759 102.499 55.9724 102.513C55.9688 102.527 55.9697 102.542 55.9749 102.556" stroke="#1E1E1E" stroke-width="0.119405" stroke-linecap="round" stroke-linejoin="round"/>
<path d="M56.1542 102.557C56.1535 102.584 56.1467 102.612 56.1343 102.636" stroke="#1E1E1E" stroke-width="0.119405" stroke-linecap="round" stroke-linejoin="round"/>
<path d="M55.4375 102.755C55.4773 103.162 55.744 103.777 56.0942 104.009" stroke="#1E1E1E" stroke-width="0.119405" stroke-linecap="round" stroke-linejoin="round"/>
<path d="M60.1538 106.974C60.1555 106.994 60.1618 107.013 60.1721 107.03C60.1825 107.048 60.1966 107.062 60.2135 107.073" stroke="#1E1E1E" stroke-width="0.119405" stroke-linecap="round" stroke-linejoin="round"/>
<path d="M60.353 106.775C60.3678 106.863 60.4052 106.96 60.4724 107.014" stroke="#1E1E1E" stroke-width="0.119405" stroke-linecap="round" stroke-linejoin="round"/>
<path d="M70.98 110.655H71.0795" stroke="#1E1E1E" stroke-width="0.119405" stroke-linecap="round" stroke-linejoin="round"/>
<path d="M70.9399 110.994C70.957 110.99 70.9746 110.99 70.9917 110.994C71.0088 110.997 71.025 111.004 71.0394 111.014" stroke="#1E1E1E" stroke-width="0.119405" stroke-linecap="round" stroke-linejoin="round"/>
<path d="M69.9058 116.726C69.9499 116.708 69.9977 116.701 70.0451 116.706" stroke="#1E1E1E" stroke-width="0.119405" stroke-linecap="round" stroke-linejoin="round"/>
<path d="M69.8857 116.904H69.9454" stroke="#1E1E1E" stroke-width="0.119405" stroke-linecap="round" stroke-linejoin="round"/>
<path d="M63.9353 116.646C63.9325 116.748 63.9529 116.85 63.995 116.944" stroke="#1E1E1E" stroke-width="0.119405" stroke-linecap="round" stroke-linejoin="round"/>
<path d="M64.7109 117.203C65.4377 117.323 66.2369 117.342 66.9796 117.342" stroke="#1E1E1E" stroke-width="0.119405" stroke-linecap="round" stroke-linejoin="round"/>
<path d="M71.0996 112.587C71.1732 112.554 71.301 112.567 71.3981 112.567" stroke="#1E1E1E" stroke-width="0.119405" stroke-linecap="round" stroke-linejoin="round"/>
<path d="M71.2388 112.726H71.3582" stroke="#1E1E1E" stroke-width="0.119405" stroke-linecap="round" stroke-linejoin="round"/>
<path d="M62.562 112.606C62.5835 112.623 62.6961 112.578 62.7809 112.586" stroke="#1E1E1E" stroke-width="0.119405" stroke-linecap="round" stroke-linejoin="round"/>
<path d="M62.562 112.825H62.7013" stroke="#1E1E1E" stroke-width="0.119405" stroke-linecap="round" stroke-linejoin="round"/>
<path d="M60.3132 111.034C60.0868 111.154 59.9268 111.72 60.3132 111.691" stroke="#1E1E1E" stroke-width="0.119405" stroke-linecap="round" stroke-linejoin="round"/>
<path d="M60.5719 111.551C60.5445 111.581 60.5405 111.612 60.5719 111.63" stroke="#1E1E1E" stroke-width="0.119405" stroke-linecap="round" stroke-linejoin="round"/>
<path d="M60.7312 111.571C60.7241 111.594 60.7312 111.608 60.7511 111.611" stroke="#1E1E1E" stroke-width="0.119405" stroke-linecap="round" stroke-linejoin="round"/>
<path d="M61.4678 110.437C61.7002 110.273 62.1237 110.163 62.4031 110.139" stroke="#1E1E1E" stroke-width="0.119405" stroke-linecap="round" stroke-linejoin="round"/>
<path d="M61.8057 110.597C61.8304 110.585 61.8576 110.578 61.8853 110.577" stroke="#1E1E1E" stroke-width="0.119405" stroke-linecap="round" stroke-linejoin="round"/>
<path d="M60.9897 112.229C61.064 112.32 61.1512 112.401 61.2485 112.467" stroke="#1E1E1E" stroke-width="0.119405" stroke-linecap="round" stroke-linejoin="round"/>
<path d="M61.3281 112.248L61.3463 112.266" stroke="#1E1E1E" stroke-width="0.119405" stroke-linecap="round" stroke-linejoin="round"/>
<path d="M72.2935 110.298C72.339 110.314 72.3856 110.327 72.4328 110.338" stroke="#1E1E1E" stroke-width="0.119405" stroke-linecap="round" stroke-linejoin="round"/>
<path d="M73.627 111.154C73.742 111.247 73.8463 111.452 73.7066 111.572" stroke="#1E1E1E" stroke-width="0.119405" stroke-linecap="round" stroke-linejoin="round"/>
<path d="M73.0101 112.268C72.9755 112.299 72.9389 112.336 72.9106 112.367" stroke="#1E1E1E" stroke-width="0.119405" stroke-linecap="round" stroke-linejoin="round"/>
<path d="M72.6715 112.486C72.6445 112.498 72.623 112.519 72.6118 112.546" stroke="#1E1E1E" stroke-width="0.119405" stroke-linecap="round" stroke-linejoin="round"/>
<path d="M69.1886 118.318C68.7592 119.323 67.8919 119.772 66.8403 119.771" stroke="#1E1E1E" stroke-width="0.119405" stroke-linecap="round" stroke-linejoin="round"/>
<path d="M70.1841 118.637C70.1622 118.78 70.0556 118.985 69.9453 119.075" stroke="#1E1E1E" stroke-width="0.119405" stroke-linecap="round" stroke-linejoin="round"/>
<path d="M70.4625 118.815C70.4472 118.857 70.4272 118.897 70.4028 118.935" stroke="#1E1E1E" stroke-width="0.119405" stroke-linecap="round" stroke-linejoin="round"/>
<path d="M63.7759 118.994C63.8921 119.162 64.0545 119.502 64.2336 119.591" stroke="#1E1E1E" stroke-width="0.119405" stroke-linecap="round" stroke-linejoin="round"/>
<path d="M63.5972 119.353C63.6336 119.389 63.6669 119.429 63.6967 119.472" stroke="#1E1E1E" stroke-width="0.119405" stroke-linecap="round" stroke-linejoin="round"/>
<path d="M64.8687 120.169H64.8506" stroke="#1E1E1E" stroke-width="0.119405" stroke-linecap="round" stroke-linejoin="round"/>
<path d="M64.5303 120.129H64.5122" stroke="#1E1E1E" stroke-width="0.119405" stroke-linecap="round" stroke-linejoin="round"/>
<path d="M69.4459 119.93C69.4473 119.943 69.4413 119.949 69.4277 119.948" stroke="#1E1E1E" stroke-width="0.119405" stroke-linecap="round" stroke-linejoin="round"/>
<path d="M72.1343 99.0938C72.5227 99.3063 72.8869 99.6454 73.1492 99.9893" stroke="#1E1E1E" stroke-width="0.119405" stroke-linecap="round" stroke-linejoin="round"/>
<path d="M72.8311 99.0938C72.8836 99.1367 72.9337 99.2024 72.9903 99.253" stroke="#1E1E1E" stroke-width="0.119405" stroke-linecap="round" stroke-linejoin="round"/>
<path d="M66.3031 95.2324C66.255 95.2607 66.1809 95.2977 66.124 95.3319" stroke="#1E1E1E" stroke-width="0.119405" stroke-linecap="round" stroke-linejoin="round"/>
<path d="M66.2636 94.656C66.2047 94.6437 66.1442 94.6297 66.0845 94.6162" stroke="#1E1E1E" stroke-width="0.119405" stroke-linecap="round" stroke-linejoin="round"/>
<path d="M66.8809 94.2178V94.0586" stroke="#1E1E1E" stroke-width="0.119405" stroke-linecap="round" stroke-linejoin="round"/>
<path d="M67.5571 94.5164C67.5898 94.5028 67.6236 94.4893 67.6566 94.4766" stroke="#1E1E1E" stroke-width="0.119405" stroke-linecap="round" stroke-linejoin="round"/>
<path d="M67.7764 95.2324C67.8122 95.2555 67.8533 95.2692 67.8958 95.2722" stroke="#1E1E1E" stroke-width="0.119405" stroke-linecap="round" stroke-linejoin="round"/>
<path d="M56.731 101.74C56.9722 101.663 57.3602 101.483 57.5668 101.74" stroke="#1E1E1E" stroke-width="0.119405" stroke-linecap="round" stroke-linejoin="round"/>
<path d="M56.9697 101.422H57.1886" stroke="#1E1E1E" stroke-width="0.119405" stroke-linecap="round" stroke-linejoin="round"/>
<path d="M78.3833 104.466C78.5696 104.31 78.7698 104.068 78.8211 103.829" stroke="#1E1E1E" stroke-width="0.119405" stroke-linecap="round" stroke-linejoin="round"/>
<path d="M78.7217 104.467C78.787 104.427 78.8335 104.347 78.9008 104.308" stroke="#1E1E1E" stroke-width="0.119405" stroke-linecap="round" stroke-linejoin="round"/>
<path d="M74.5225 111.034C74.5718 111.182 74.5623 111.303 74.5225 111.452" stroke="#1E1E1E" stroke-width="0.119405" stroke-linecap="round" stroke-linejoin="round"/>
<path d="M74.7412 111.113C74.7448 111.174 74.7516 111.233 74.7611 111.292" stroke="#1E1E1E" stroke-width="0.119405" stroke-linecap="round" stroke-linejoin="round"/>
<path d="M67.0004 98.3716C65.7912 98.3525 64.5366 98.4094 63.3784 98.7895C62.141 99.1959 61.1746 99.8793 60.486 100.965C60.1473 101.5 59.7696 102.335 59.6355 102.956C59.3776 104.153 59.2912 105.527 59.5443 106.73C59.9236 108.532 61.9125 109.433 63.5727 109.672C64.6936 109.833 65.8235 109.925 66.9558 109.946C68.124 109.968 69.2699 109.839 70.4269 109.672C72.087 109.434 74.0755 108.532 74.4552 106.73C74.7084 105.527 74.622 104.153 74.3641 102.956C74.2303 102.335 73.8522 101.5 73.5135 100.965C72.8249 99.8793 71.8586 99.1959 70.6211 98.7895C69.4629 98.4094 68.2087 98.3517 66.9992 98.3716" stroke="#1E1E1E" stroke-width="0.199008" stroke-linecap="round" stroke-linejoin="round"/>
<path d="M60.0236 101.839C59.3143 101.683 58.4443 101.835 57.8584 102.265" stroke="#1E1E1E" stroke-width="0.199008" stroke-linecap="round" stroke-linejoin="round"/>
<path d="M57.8583 102.265C57.7241 102.125 57.4933 102.066 57.301 102.066C57.1542 102.062 57.0079 102.086 56.8704 102.138C56.8018 102.164 56.7391 102.203 56.6861 102.254C56.633 102.305 56.5907 102.366 56.5615 102.433" stroke="#1E1E1E" stroke-width="0.199008" stroke-linecap="round" stroke-linejoin="round"/>
<path d="M56.5603 102.434C55.9701 101.966 55.4423 102.306 55.0996 102.691" stroke="#1E1E1E" stroke-width="0.199008" stroke-linecap="round" stroke-linejoin="round"/>
<path d="M55.0996 102.69C55.1268 102.942 55.1977 103.187 55.309 103.414C55.5565 103.878 55.9673 104.39 56.435 104.63" stroke="#1E1E1E" stroke-width="0.199008" stroke-linecap="round" stroke-linejoin="round"/>
<path d="M56.4351 104.63C56.5358 105.273 57.1296 105.804 57.7804 105.831" stroke="#1E1E1E" stroke-width="0.199008" stroke-linecap="round" stroke-linejoin="round"/>
<path d="M57.7803 105.831C57.9478 106.082 58.2559 106.248 58.5528 106.302C58.8562 106.349 59.1652 106.348 59.4683 106.299" stroke="#1E1E1E" stroke-width="0.199008" stroke-linecap="round" stroke-linejoin="round"/>
<path d="M61.0777 111.876C61.6277 111.546 61.2711 110.76 60.6996 110.74C60.2188 110.725 59.8136 110.86 59.765 111.395C59.7196 111.893 60.2331 112.086 60.6494 112.028C60.8007 112.006 60.9462 111.954 61.0777 111.876V111.876Z" stroke="#1E1E1E" stroke-width="0.199008" stroke-linecap="round" stroke-linejoin="round"/>
<path d="M60.0273 110.889C60.8743 110.383 61.8622 109.782 62.8135 109.519" stroke="#1E1E1E" stroke-width="0.199008" stroke-linecap="round" stroke-linejoin="round"/>
<path d="M61.3511 111.423C61.7368 111.23 62.2191 111.025 62.6148 110.854" stroke="#1E1E1E" stroke-width="0.199008" stroke-linecap="round" stroke-linejoin="round"/>
<path d="M59.9248 111.838C60.5266 112.387 61.0986 112.864 61.7159 113.194" stroke="#1E1E1E" stroke-width="0.199008" stroke-linecap="round" stroke-linejoin="round"/>
<path d="M61.3511 111.518C61.4203 111.557 61.5338 111.644 61.5998 111.69C61.8621 111.869 62.1451 112.082 62.4074 112.262" stroke="#1E1E1E" stroke-width="0.199008" stroke-linecap="round" stroke-linejoin="round"/>
<path d="M62.2777 113.227C62.6069 113.125 62.9508 113.078 63.2954 113.089C63.3492 112.911 63.379 112.727 63.3842 112.542C63.3877 112.511 63.3822 112.48 63.3682 112.452C63.354 112.432 63.3353 112.416 63.3137 112.405C63.051 112.25 62.7383 112.203 62.4417 112.275C61.9059 112.407 61.6209 112.802 61.7419 113.343C61.8136 113.663 62.0253 113.975 62.2904 114.04" stroke="#1E1E1E" stroke-width="0.199008" stroke-linecap="round" stroke-linejoin="round"/>
<path d="M62.8124 109.519C62.689 110.368 62.5501 111.285 62.4267 112.134L62.4048 112.285" stroke="#1E1E1E" stroke-width="0.199008" stroke-linecap="round" stroke-linejoin="round"/>
<path d="M63.6173 111.518C63.5078 112.441 63.4581 113.48 63.5278 114.407" stroke="#1E1E1E" stroke-width="0.199008" stroke-linecap="round" stroke-linejoin="round"/>
<path d="M63.6172 111.518C65.8803 111.587 68.1196 111.587 70.3835 111.518" stroke="#1E1E1E" stroke-width="0.199008" stroke-linecap="round" stroke-linejoin="round"/>
<path d="M63.5278 114.407C64.6395 114.761 65.8288 114.817 66.987 114.788C68.1452 114.759 69.352 114.763 70.4728 114.407" stroke="#1E1E1E" stroke-width="0.199008" stroke-linecap="round" stroke-linejoin="round"/>
<path d="M70.0218 117.326C70.0234 117.362 70.0242 117.4 70.0242 117.437C70.0242 119.052 68.6406 120.361 66.9339 120.361C65.2273 120.361 63.8438 119.052 63.8438 117.437C63.8438 117.389 63.8449 117.342 63.8473 117.295" stroke="#1E1E1E" stroke-width="0.199008" stroke-linecap="round" stroke-linejoin="round"/>
<path d="M57.8581 102.265C57.7944 103.454 57.587 104.747 57.7785 105.831" stroke="#1E1E1E" stroke-width="0.199008" stroke-linecap="round" stroke-linejoin="round"/>
<path d="M56.5604 102.434C56.3992 103.154 56.3569 103.896 56.4351 104.63" stroke="#1E1E1E" stroke-width="0.199008" stroke-linecap="round" stroke-linejoin="round"/>
<path d="M68.1016 98.3809C68.0327 97.8236 67.6538 97.3182 67.0002 97.2979C66.3467 97.3182 65.9678 97.8228 65.8989 98.3809" stroke="#1E1E1E" stroke-width="0.199008" stroke-linecap="round" stroke-linejoin="round"/>
<path d="M73.9771 101.839C74.6863 101.683 75.5564 101.835 76.1423 102.265" stroke="#1E1E1E" stroke-width="0.199008" stroke-linecap="round" stroke-linejoin="round"/>
<path d="M76.1421 102.265C76.2762 102.125 76.5071 102.066 76.6993 102.066C76.8462 102.062 76.9924 102.086 77.13 102.138C77.1986 102.164 77.2612 102.203 77.3143 102.254C77.3673 102.305 77.4097 102.366 77.4388 102.433" stroke="#1E1E1E" stroke-width="0.199008" stroke-linecap="round" stroke-linejoin="round"/>
<path d="M77.4404 102.434C78.0307 101.966 78.5585 102.306 78.9012 102.691" stroke="#1E1E1E" stroke-width="0.199008" stroke-linecap="round" stroke-linejoin="round"/>
<path d="M78.9008 102.69C78.8735 102.942 78.8027 103.187 78.6914 103.414C78.4439 103.878 78.0331 104.39 77.5654 104.63" stroke="#1E1E1E" stroke-width="0.199008" stroke-linecap="round" stroke-linejoin="round"/>
<path d="M77.5655 104.63C77.4648 105.273 76.871 105.804 76.2202 105.831" stroke="#1E1E1E" stroke-width="0.199008" stroke-linecap="round" stroke-linejoin="round"/>
<path d="M76.2202 105.831C76.0527 106.082 75.7446 106.248 75.4477 106.302C75.1443 106.349 74.8353 106.348 74.5322 106.299" stroke="#1E1E1E" stroke-width="0.199008" stroke-linecap="round" stroke-linejoin="round"/>
<path d="M70.2003 108.316C71.2248 108.01 72.2302 107.367 72.873 106.511C72.8882 104.959 72.6175 103.323 72.2227 101.82C71.6679 101.603 71.1022 101.414 70.5279 101.255C69.1319 100.861 67.6816 100.693 66.2325 100.759C64.699 100.833 63.2 101.261 61.7779 101.82C61.3827 103.323 61.1124 104.958 61.1276 106.511C61.7692 107.366 62.7757 108.01 63.8002 108.316C65.8158 108.918 68.1876 108.917 70.2003 108.316Z" stroke="#1E1E1E" stroke-width="0.199008" stroke-linecap="round" stroke-linejoin="round"/>
<path d="M72.9234 111.876C72.3734 111.546 72.73 110.76 73.3015 110.74C73.7823 110.725 74.1875 110.86 74.2361 111.395C74.2815 111.893 73.768 112.086 73.3517 112.028C73.2004 112.006 73.0549 111.954 72.9234 111.876V111.876Z" stroke="#1E1E1E" stroke-width="0.199008" stroke-linecap="round" stroke-linejoin="round"/>
<path d="M73.9736 110.889C73.1266 110.383 72.1388 109.782 71.1875 109.519" stroke="#1E1E1E" stroke-width="0.199008" stroke-linecap="round" stroke-linejoin="round"/>
<path d="M72.6494 111.423C72.2638 111.23 71.7814 111.025 71.3857 110.854" stroke="#1E1E1E" stroke-width="0.199008" stroke-linecap="round" stroke-linejoin="round"/>
<path d="M74.0757 111.838C73.4739 112.387 72.902 112.864 72.2847 113.194" stroke="#1E1E1E" stroke-width="0.199008" stroke-linecap="round" stroke-linejoin="round"/>
<path d="M72.6496 111.518C72.5803 111.557 72.4669 111.644 72.4008 111.69C72.1385 111.869 71.8556 112.082 71.5933 112.262" stroke="#1E1E1E" stroke-width="0.199008" stroke-linecap="round" stroke-linejoin="round"/>
<path d="M71.7233 113.227C71.3941 113.125 71.0501 113.078 70.7055 113.089C70.6518 112.911 70.6219 112.727 70.6168 112.542C70.6132 112.511 70.6187 112.48 70.6327 112.452C70.647 112.432 70.6657 112.416 70.6872 112.405C70.9499 112.25 71.2627 112.203 71.5593 112.275C72.095 112.407 72.38 112.802 72.259 113.343C72.1874 113.663 71.9756 113.975 71.7105 114.04" stroke="#1E1E1E" stroke-width="0.199008" stroke-linecap="round" stroke-linejoin="round"/>
<path d="M71.7056 113.227C71.7372 113.598 71.7274 113.972 71.6765 114.341C71.4867 115.604 70.7046 116.235 69.5002 116.476C68.6774 116.64 67.8389 116.711 67.0002 116.69C66.1614 116.711 65.3228 116.64 64.4999 116.476C63.2959 116.234 62.5134 115.603 62.3235 114.341C62.2726 113.972 62.2629 113.598 62.2945 113.227" stroke="#1E1E1E" stroke-width="0.199008" stroke-linecap="round" stroke-linejoin="round"/>
<path d="M71.1885 109.519C71.3119 110.368 71.4508 111.285 71.5742 112.134L71.596 112.285" stroke="#1E1E1E" stroke-width="0.199008" stroke-linecap="round" stroke-linejoin="round"/>
<path d="M70.3833 111.518C70.4928 112.441 70.5425 113.48 70.4729 114.407" stroke="#1E1E1E" stroke-width="0.199008" stroke-linecap="round" stroke-linejoin="round"/>
<path d="M70.3905 116.186C70.4303 116.544 70.455 116.894 70.3535 117.24C68.8569 117.678 67.249 117.642 65.7126 117.559C65.0173 117.521 64.3172 117.436 63.6469 117.24C63.5454 116.894 63.5673 116.543 63.6099 116.186" stroke="#1E1E1E" stroke-width="0.199008" stroke-linecap="round" stroke-linejoin="round"/>
<path d="M76.1421 102.265C76.2058 103.454 76.4131 104.747 76.2217 105.831" stroke="#1E1E1E" stroke-width="0.199008" stroke-linecap="round" stroke-linejoin="round"/>
<path d="M77.4404 102.434C77.6017 103.154 77.644 103.896 77.5658 104.63" stroke="#1E1E1E" stroke-width="0.199008" stroke-linecap="round" stroke-linejoin="round"/>
<path d="M63.7761 103.459C63.7761 103.269 63.6216 103.114 63.431 103.114C63.2404 103.114 63.0859 103.269 63.0859 103.459V104.41C63.0859 104.6 63.2404 104.755 63.431 104.755C63.6216 104.755 63.7761 104.6 63.7761 104.41V103.459Z" fill="#1E1E1E" stroke="#1E1E1E" stroke-width="0.199008" stroke-linecap="round" stroke-linejoin="round"/>
<path d="M62.9136 103.313L63.0863 103.411" stroke="#1E1E1E" stroke-width="0.199008" stroke-linecap="round" stroke-linejoin="round"/>
<path d="M62.8735 103.55C62.9425 103.574 63.0137 103.591 63.0861 103.601" stroke="#1E1E1E" stroke-width="0.199008" stroke-linecap="round" stroke-linejoin="round"/>
<path d="M70.4275 104.41C70.4275 104.6 70.582 104.755 70.7726 104.755C70.9632 104.755 71.1177 104.6 71.1177 104.41V103.459C71.1177 103.269 70.9632 103.114 70.7726 103.114C70.582 103.114 70.4275 103.269 70.4275 103.459V104.41Z" fill="#1E1E1E" stroke="#1E1E1E" stroke-width="0.199008" stroke-linecap="round" stroke-linejoin="round"/>
<path d="M71.2904 103.313L71.1177 103.411" stroke="#1E1E1E" stroke-width="0.199008" stroke-linecap="round" stroke-linejoin="round"/>
<path d="M71.3297 103.55C71.2608 103.574 71.1896 103.591 71.1172 103.601" stroke="#1E1E1E" stroke-width="0.199008" stroke-linecap="round" stroke-linejoin="round"/>
<path d="M65.73 106.751C66.9641 106.749 68.1961 106.687 69.4259 106.565L69.4283 105.781C69.4332 105.741 69.4233 105.701 69.4005 105.668C69.3662 105.628 69.3065 105.632 69.2556 105.637C67.7585 105.785 66.2548 105.855 64.7504 105.847C64.7374 105.843 64.7235 105.842 64.7102 105.845C64.6969 105.848 64.6845 105.854 64.6745 105.864C64.6644 105.873 64.657 105.885 64.6529 105.898C64.6489 105.911 64.6483 105.925 64.6513 105.938V106.55C64.6493 106.567 64.6504 106.583 64.6547 106.599C64.659 106.614 64.6664 106.629 64.6764 106.642C64.8292 106.787 65.5385 106.751 65.73 106.751Z" stroke="#1E1E1E" stroke-width="0.199008" stroke-linecap="round" stroke-linejoin="round"/>
<path d="M69.422 110.777C69.1399 110.82 69.1379 111.218 69.4324 111.221C69.6131 111.223 69.7134 111.042 69.6457 110.876C69.6107 110.789 69.518 110.763 69.422 110.777Z" stroke="#1E1E1E" stroke-width="0.199008" stroke-linecap="round" stroke-linejoin="round"/>
<path d="M68.5221 110.777C68.24 110.82 68.238 111.218 68.5325 111.221C68.7132 111.223 68.8135 111.042 68.7458 110.876C68.7116 110.789 68.6181 110.763 68.5221 110.777Z" stroke="#1E1E1E" stroke-width="0.199008" stroke-linecap="round" stroke-linejoin="round"/>
<path d="M65.4196 110.777C65.1374 110.82 65.1354 111.218 65.43 111.221C65.6107 111.223 65.711 111.042 65.6433 110.876C65.6071 110.789 65.5151 110.763 65.4196 110.777Z" stroke="#1E1E1E" stroke-width="0.199008" stroke-linecap="round" stroke-linejoin="round"/>
<path d="M64.5197 110.777C64.2375 110.82 64.2355 111.218 64.5301 111.221C64.7108 111.223 64.8111 111.042 64.7434 110.876C64.708 110.789 64.6152 110.763 64.5197 110.777Z" stroke="#1E1E1E" stroke-width="0.199008" stroke-linecap="round" stroke-linejoin="round"/>
<path d="M64.6787 106.33L66.4356 106.311C66.4498 106.314 66.4645 106.315 66.479 106.312C66.4935 106.31 66.5073 106.305 66.5195 106.297C66.5318 106.289 66.5423 106.278 66.5503 106.266C66.5583 106.254 66.5637 106.24 66.5661 106.225L66.6457 105.983C66.6664 106.145 66.7029 106.305 66.7548 106.46C66.7932 106.293 66.8488 106.131 66.9207 105.975C66.9468 106.132 67.0079 106.28 67.0994 106.41C67.146 106.213 67.2127 106.021 67.2985 105.837C67.3233 106.071 67.3601 106.304 67.4087 106.535L67.5281 106.1C68.1535 106.131 68.7804 106.108 69.402 106.033" stroke="#1E1E1E" stroke-width="0.119405" stroke-linecap="round" stroke-linejoin="round"/>
<path d="M65.01 114.283C65.6551 114.283 66.1782 113.76 66.1782 113.114C66.1782 112.469 65.6551 111.946 65.01 111.946C64.3648 111.946 63.8418 112.469 63.8418 113.114C63.8418 113.76 64.3648 114.283 65.01 114.283Z" stroke="#1E1E1E" stroke-width="0.199008" stroke-linecap="round" stroke-linejoin="round"/>
<path d="M69.0168 114.283C69.662 114.283 70.185 113.76 70.185 113.114C70.185 112.469 69.662 111.946 69.0168 111.946C68.3716 111.946 67.8486 112.469 67.8486 113.114C67.8486 113.76 68.3716 114.283 69.0168 114.283Z" stroke="#1E1E1E" stroke-width="0.199008" stroke-linecap="round" stroke-linejoin="round"/>
<path d="M69.0171 113.986C69.4987 113.986 69.8891 113.596 69.8891 113.114C69.8891 112.633 69.4987 112.242 69.0171 112.242C68.5355 112.242 68.145 112.633 68.145 113.114C68.145 113.596 68.5355 113.986 69.0171 113.986Z" stroke="#1E1E1E" stroke-width="0.14846" stroke-linecap="round" stroke-linejoin="round"/>
<path d="M69.0168 113.63C69.3017 113.63 69.5326 113.399 69.5326 113.114C69.5326 112.83 69.3017 112.599 69.0168 112.599C68.7319 112.599 68.501 112.83 68.501 113.114C68.501 113.399 68.7319 113.63 69.0168 113.63Z" stroke="#1E1E1E" stroke-width="0.14846" stroke-linecap="round" stroke-linejoin="round"/>
<path d="M69.0172 113.351C69.1478 113.351 69.2536 113.245 69.2536 113.114C69.2536 112.984 69.1478 112.878 69.0172 112.878C68.8866 112.878 68.7808 112.984 68.7808 113.114C68.7808 113.245 68.8866 113.351 69.0172 113.351Z" fill="#1E1E1E"/>
<path d="M65.0097 113.986C65.4914 113.986 65.8818 113.596 65.8818 113.114C65.8818 112.633 65.4914 112.242 65.0097 112.242C64.5281 112.242 64.1377 112.633 64.1377 113.114C64.1377 113.596 64.5281 113.986 65.0097 113.986Z" stroke="#1E1E1E" stroke-width="0.14846" stroke-linecap="round" stroke-linejoin="round"/>
<path d="M65.01 113.63C65.2949 113.63 65.5258 113.399 65.5258 113.114C65.5258 112.83 65.2949 112.599 65.01 112.599C64.7251 112.599 64.4941 112.83 64.4941 113.114C64.4941 113.399 64.7251 113.63 65.01 113.63Z" stroke="#1E1E1E" stroke-width="0.14846" stroke-linecap="round" stroke-linejoin="round"/>
<path d="M65.0099 113.351C65.1404 113.351 65.2463 113.245 65.2463 113.114C65.2463 112.984 65.1404 112.878 65.0099 112.878C64.8793 112.878 64.7734 112.984 64.7734 113.114C64.7734 113.245 64.8793 113.351 65.0099 113.351Z" fill="#1E1E1E"/>
<path d="M67.0005 95.3135V97.2988" stroke="#1E1E1E" stroke-width="0.318413" stroke-linecap="round" stroke-linejoin="round"/>
<path d="M66.9865 95.2358C67.1525 95.2358 67.287 95.1012 67.287 94.9353C67.287 94.7693 67.1525 94.6348 66.9865 94.6348C66.8206 94.6348 66.686 94.7693 66.686 94.9353C66.686 95.1012 66.8206 95.2358 66.9865 95.2358Z" stroke="#1E1E1E" stroke-width="0.199008" stroke-linecap="round" stroke-linejoin="round"/>
<path d="M59.9951 120.388C60.3708 120.388 60.7653 120.415 61.1096 120.328C61.1836 120.31 61.2664 120.272 61.3484 120.268C61.4304 120.263 61.5076 120.268 61.5872 120.268C61.7496 120.268 61.9303 120.289 62.0847 120.248C62.2519 120.203 62.4358 120.265 62.6021 120.23C62.6817 120.212 62.7271 120.188 62.8194 120.19C62.899 120.19 62.9786 120.19 63.0583 120.19C63.1446 120.19 63.2306 120.19 63.317 120.19C63.4033 120.19 63.4706 120.222 63.5558 120.23C63.6436 120.234 63.7309 120.246 63.8165 120.267C63.8718 120.282 63.9164 120.332 63.9717 120.349C64.1516 120.401 64.3478 120.397 64.5289 120.447C64.6856 120.488 64.8506 120.487 65.0065 120.443C65.2852 120.361 65.5526 120.403 65.8424 120.388C65.9276 120.383 65.9928 120.348 66.0812 120.348C66.1695 120.348 66.2671 120.348 66.3598 120.348H66.9385C67.1065 120.348 67.288 120.327 67.4559 120.348C67.5459 120.358 67.6259 120.414 67.7146 120.431C67.8281 120.453 67.9654 120.429 68.0816 120.429C68.2289 120.429 68.3793 120.439 68.5258 120.429C68.5943 120.425 68.6575 120.4 68.7248 120.39C68.8044 120.38 68.884 120.397 68.9636 120.39C69.011 120.384 69.0432 120.361 69.0894 120.35C69.1427 120.339 69.1965 120.353 69.2486 120.343C69.3939 120.316 69.536 120.3 69.682 120.267C69.9419 120.207 70.2118 120.178 70.4661 120.116C70.5907 120.085 70.7447 120.107 70.8713 120.107H71.2514C71.3915 120.107 71.5559 120.083 71.692 120.116C71.8114 120.146 71.9273 120.196 72.0502 120.222C72.2218 120.26 72.4021 120.302 72.5784 120.308C72.7794 120.312 72.9816 120.298 73.1826 120.305C73.3641 120.312 73.5468 120.373 73.7231 120.415C73.819 120.438 73.8998 120.484 73.9918 120.517C74.0716 120.543 74.1558 120.552 74.2393 120.545" stroke="#1E1E1E" stroke-width="0.199008" stroke-linecap="round" stroke-linejoin="round"/>
<path d="M70.9061 103.68C70.9885 103.68 71.0553 103.614 71.0553 103.531C71.0553 103.449 70.9885 103.382 70.9061 103.382C70.8237 103.382 70.7568 103.449 70.7568 103.531C70.7568 103.614 70.8237 103.68 70.9061 103.68Z" fill="white"/>
<path d="M63.6268 103.68C63.7092 103.68 63.7761 103.614 63.7761 103.531C63.7761 103.449 63.7092 103.382 63.6268 103.382C63.5444 103.382 63.4775 103.449 63.4775 103.531C63.4775 103.614 63.5444 103.68 63.6268 103.68Z" fill="white"/>
</g>
<defs>
<clipPath id="clip0">
<rect width="22" height="23" fill="white" transform="translate(95 14)"/>
</clipPath>
<clipPath id="clip1">
<rect width="24" height="26.7794" fill="white" transform="translate(55 94)"/>
</clipPath>
</defs>
</svg>
