<svg fill="none" height="266" viewBox="0 0 213 266" width="213" xmlns="http://www.w3.org/2000/svg" xmlns:xlink="http://www.w3.org/1999/xlink"><clipPath id="services-a"><path d="m95 14h22v23h-22z"/></clipPath><clipPath id="services-b"><path d="m55 94h24v26.7794h-24z"/></clipPath><path d="m15.3223 173.299 16.7006-15.987h153.8221l-21.096 15.987z" fill="#757ed3"/><path d="m193.838 203.496-26.644-31.085 19.539-15.099 24.868 31.973z" stroke="#5a63b8" stroke-width="1.62375"/><path d="m163.718 157.311c0 3.134-1.608 6.205-4.697 9.086-3.092 2.882-7.609 5.515-13.258 7.743-11.295 4.454-26.954 7.227-44.291 7.227-17.3374 0-32.9963-2.773-44.2909-7.227-5.6497-2.228-10.1669-4.861-13.258-7.743-3.0899-2.881-4.6972-5.952-4.6972-9.086s1.6073-6.205 4.6972-9.086c3.0911-2.882 7.6083-5.515 13.258-7.743 11.2946-4.454 26.9535-7.227 44.2909-7.227 17.337 0 32.996 2.773 44.291 7.227 5.649 2.228 10.166 4.861 13.258 7.743 3.089 2.881 4.697 5.952 4.697 9.086z" stroke="#b8cbef" stroke-width="1.62375"/><path d="m78.3804 92.7361c7.628-.7469 15.6706-1.1463 23.9796-1.1463 49.051 0 88.814 13.9172 88.814 31.0852 0 17.167-39.763 31.084-88.814 31.084-49.0503 0-88.8136-13.917-88.8136-31.084 0-10.985 16.2792-20.639 40.8543-26.1679" stroke="#b8cbef" stroke-width="1.62375"/><path d="m139.662 151.24c36.455-5.138 62.17-17.583 62.17-32.119 0-19.1299-44.535-34.6376-99.471-34.6376-54.937 0-99.47184 15.5077-99.47184 34.6376 0 15.577 29.53134 28.753 70.16284 33.109" stroke="#b8cbef" stroke-dasharray="8.12 8.12" stroke-linecap="round" stroke-width="1.62375"/><path d="m128.116 26.3468c1.776 13.7313-7.726 25.3468-21.724 25.3468-13.9989 0-25.3471-11.3482-25.3471-25.3468 0-13.9987 11.3482-25.3468 25.3471-25.3468 14.619 0 26.165 11.5458 25.277 27.5323" stroke="#6971c0" stroke-linecap="round" stroke-width="1.62375"/><g clip-path="url(#services-a)" clip-rule="evenodd" fill-rule="evenodd"><path d="m103.066 14c-1.216.0009-2.201 1.0307-2.2 2.2995-.001 1.2689.984 2.2986 2.201 2.2996h2.2v-2.2986c.001-1.2689-.984-2.2986-2.201-2.3005.001 0 .001 0 0 0zm0 6.1333h-5.8661c-1.2162.001-2.2013 1.0307-2.2004 2.2996-.0018 1.2688.9833 2.2986 2.1995 2.3004h5.867c1.216-.0009 2.201-1.0306 2.2-2.2995.001-1.2698-.984-2.2995-2.2-2.3005z" fill="#36c5f0"/><path d="m117 22.4329c.001-1.2689-.984-2.2986-2.2-2.2996-1.217.001-2.202 1.0307-2.201 2.2996v2.3004h2.201c1.216-.0009 2.201-1.0306 2.2-2.3004zm-5.867 0v-6.1334c.001-1.2679-.983-2.2976-2.199-2.2995-1.216.0009-2.201 1.0307-2.201 2.2995v6.1334c-.001 1.2688.984 2.2986 2.2 2.3004 1.216-.0009 2.201-1.0306 2.2-2.3004z" fill="#2eb67d"/><path d="m108.933 36.9999c1.216-.0009 2.201-1.0306 2.2-2.2995.001-1.2689-.984-2.2986-2.2-2.2996h-2.201v2.2996c0 1.2679.985 2.2976 2.201 2.2995zm0-6.1343h5.867c1.216-.0009 2.201-1.0306 2.2-2.2995.002-1.2689-.983-2.2986-2.2-2.3005h-5.866c-1.216.001-2.202 1.0307-2.201 2.2996-.001 1.2698.984 2.2995 2.2 2.3004z" fill="#ecb22e"/><path d="m95 28.5661c-.0009 1.2689.9842 2.2986 2.2004 2.2996 1.2161-.001 2.2012-1.0307 2.2003-2.2996v-2.2995h-2.2003c-1.2162.0009-2.2013 1.0307-2.2004 2.2995zm5.867 0v6.1334c-.002 1.2688.983 2.2986 2.199 2.3005 1.216-.001 2.201-1.0307 2.201-2.2996v-6.1324c.001-1.2689-.984-2.2986-2.2-2.3005-1.217 0-2.201 1.0298-2.2 2.2986 0 0 0 .001 0 0z" fill="#e01e5a"/></g><path d="m42.03 47.0094c-3.5463-8.5084-12.8936-12.041-20.9681-7.3792s-10.8426 14.9838-6.1828 23.0548 14.983 10.8347 23.0574 6.1729c8.4325-4.8685 11.2489-15.3703 5.4151-24.2916" stroke="#6971c0" stroke-linecap="round" stroke-width="1.62375"/><path d="m32.0251 48.0072v-.0033h.8435l.3082.0632c.2055.0411.392.0949.5596.1614.1676.0666.3299.1442.4866.233.1569.0887.2991.1791.4267.2712.1265.091.24.1875.3406.2895.0995.1032.2547.1298.4655.0799.2109-.0499.438-.1193.6813-.208s.484-.1886.7219-.2995.3828-.1814.4347-.2113c.0508-.0311.0779-.0477.0811-.0499l.0032-.005.0162-.0084.0163-.0083.0162-.0083.0162-.0083.0033-.005.0048-.0033.0049-.0034.0032-.005.0162-.0049.0163-.0034-.0033.025-.0048.0249-.0082.025-.0081.025-.0081.0166-.0081.0166-.0081.025c-.0054.0166-.0108.0388-.0162.0666-.0054.0277-.0568.1386-.1541.3327-.0973.1942-.219.391-.365.5907s-.2768.3505-.3925.4526c-.1168.1032-.1941.1753-.232.2163-.0378.0421-.0838.081-.1379.1165l-.0811.0549-.0162.0083-.0162.0083-.0032.005-.0049.0033-.0049.0034-.0032.005-.0163.0083-.0162.0083-.0032.005-.0049.0033-.0049.0033-.0032.005-.0032.005-.0049.0034-.0049.0033-.0032.005h.0811l.4542-.0999c.3028-.0665.592-.1469.8678-.2412l.438-.1498.0486-.0166.0244-.0083.0162-.0083.0162-.0084.0162-.0083.0162-.0083.0325-.005.0324-.0033v.0333l-.0081.0033-.0081.005-.0032.005-.0049.0033-.0049.0033-.0032.005-.0032.005-.0049.0033-.0049.0034-.0032.0049-.0033.005-.0049.0034-.0081.0166-.0081.0166-.0048.0034c-.0022.0033-.0709.0976-.206.2828-.1352.1864-.2082.2807-.219.2829-.0108.0033-.026.02-.0454.0499-.0184.0311-.1331.1548-.3439.3711-.2109.2163-.4174.4087-.6197.5773-.2033.1697-.306.3783-.3082.6257-.0032.2462-.0156.5246-.0373.8352-.0216.3106-.0622.6462-.1216 1.0067-.0595.3605-.1514.7682-.2758 1.2229-.1243.4548-.2757.8986-.4542 1.3312-.1784.4326-.365.8208-.5596 1.1647-.1947.3439-.3731.635-.5353.8735s-.3271.4631-.4947.6739-.3796.4482-.6359.7122c-.2574.2629-.3979.4071-.4217.4326-.0249.0244-.1309.1153-.318.2728-.186.1587-.386.3173-.6001.4759-.2131.1575-.4088.289-.5872.3944-.1785.1053-.3937.2257-.6456.361-.2509.1365-.5224.2629-.8143.3794-.292.1165-.6002.2246-.9246.3245-.3244.0998-.638.1774-.9408.2329s-.6462.1026-1.0301.1414l-.5758.0583v.0083h-1.0544v-.0083l-.1379-.0084c-.0919-.0055-.1676-.011-.2271-.0166-.0594-.0055-.2838-.036-.6731-.0915s-.6948-.1109-.9165-.1664-.5515-.1608-.9895-.3161-.8127-.3123-1.1241-.4709c-.3104-.1575-.505-.2574-.584-.2995-.0778-.0411-.1654-.0921-.2627-.1531l-.146-.0915-.0033-.005-.0048-.0033-.0049-.0034-.0032-.0049-.0163-.0084-.0162-.0083-.0032-.005-.0049-.0033-.0049-.0033-.0032-.005-.0032-.005-.0049-.0033h-.0081v-.0333l.0162.0033.0162.005.073.0083c.0487.0056.1811.0139.3974.025s.4461.0111.6894 0 .4921-.0361.7462-.0749.5542-.1054.9002-.1997c.3461-.0943.664-.2063.9538-.3361.2888-.1309.4942-.2285.6164-.2928.1212-.0632.3061-.1808.5548-.3528l.3731-.2579.0032-.005.0049-.0033.0049-.0033.0032-.005.0032-.005.0049-.0033.0049-.0034.0032-.0049.0162-.005.0163-.0034.0032-.0166.0049-.0166.0048-.0034.0033-.005-.1298-.0083c-.0865-.0055-.1703-.0111-.2514-.0166-.0811-.0056-.2082-.0305-.3812-.0749s-.3596-.1109-.5596-.1997c-.2001-.0887-.3947-.1941-.584-.3161-.1892-.122-.326-.2235-.4104-.3045-.0832-.0799-.1914-.193-.3244-.3394-.1319-.1476-.2466-.299-.3439-.4543s-.1903-.3344-.279-.5374l-.1346-.3028-.0081-.025-.0081-.025-.0049-.0166-.0033-.0166.0244.0033.0243.005.1784.0249c.119.0167.3055.0222.5597.0167.2541-.0056.4298-.0167.5271-.0333.0974-.0166.1569-.0277.1785-.0333l.0324-.0083.0406-.0083.0405-.0083.0033-.005.0048-.0034.0049-.0033.0032-.005-.0324-.0083-.0324-.0083-.0325-.0083-.0324-.0083-.0325-.0084c-.0216-.0055-.0594-.0166-.1135-.0332-.0541-.0167-.2001-.0777-.438-.1831-.2379-.1053-.4271-.208-.5677-.3078-.1409-.1001-.2753-.2096-.4023-.3278-.1265-.1198-.2655-.274-.4169-.4625-.1514-.1886-.2865-.4077-.4055-.6573-.1189-.2496-.2082-.4881-.2676-.7155-.0593-.226-.0984-.4571-.1168-.6905l-.0292-.3494.0162.0033.0162.005.0162.0083.0163.0084.0162.0083.0162.0083.2514.1165c.1677.0776.3758.1442.6245.1996.2488.0555.3974.086.4461.0916l.073.0083h.146l-.0032-.005-.0049-.0033-.0049-.0034-.0032-.005-.0033-.0049-.0048-.0034-.0049-.0033-.0033-.005-.0162-.0083-.0162-.0083-.0032-.005-.0049-.0034-.0049-.0033-.0032-.005-.0162-.0083-.0163-.0083-.0032-.005c-.0032-.0022-.0497-.0377-.1395-.1065-.0887-.0699-.1817-.1603-.279-.2712s-.1947-.2274-.292-.3494c-.0975-.1223-.1843-.2532-.2595-.391-.0757-.1387-.1557-.3151-.2401-.5292-.0832-.2129-.1465-.4276-.1898-.6439-.0432-.2163-.0675-.4298-.073-.6406-.0054-.2108 0-.391.0163-.5408.0162-.1497.0486-.3189.0973-.5074.0486-.1886.1189-.3883.2109-.599l.1378-.3162.0081-.0249.0082-.025.0048-.0033.0033-.005.0032-.005.0049-.0033.0049.0033.0032.005.0032.005.0049.0033.0049.0033.0032.005.0033.005.0048.0033.0081.0167.0081.0166.0049.0033.0032.005.219.2496c.146.1664.319.3522.5191.5574s.3109.3117.3325.3195c.0217.0089.0487.0344.0811.0765.0325.0411.1406.1393.3245.2945.1838.1553.4244.3356.7218.5408s.6272.4077.9895.6073c.3622.1997.7516.3799 1.1679.5408.4163.1608.7083.2662.8759.3161.1676.05.4542.1137.8597.1914.4055.0776.7111.1276.9165.1497.2055.0222.3461.035.4218.0383l.1135.0033-.0032-.0249-.0049-.025-.0325-.208c-.0216-.1386-.0324-.3328-.0324-.5823 0-.2496.0189-.4798.0568-.6906.0378-.2107.0946-.4242.1703-.6406.0757-.2163.1498-.3899.2222-.5207.0736-.1298.1698-.2779.2888-.4443.1189-.1664.273-.3383.4623-.5158.1892-.1775.4055-.3356.6488-.4742.2433-.1387.4677-.2441.6732-.3162.2054-.0721.3785-.1192.519-.1414.1406-.0222.2109-.0349.2109-.0383z" fill="#1da1f2"/><path d="m164.261 70.9393c4.835 6.508 14.107 6.8305 20.7.2377s7.25-16.6244 1.468-22.4063c-5.781-5.7818-15.813-5.1244-22.406 1.4683-6.885 6.8852-7.554 17.0915-.533 23.2761" stroke="#6971c0" stroke-linecap="round" stroke-width="1.62375"/><path d="m174.991 65.894c-3.25 0-5.885-2.6349-5.885-5.8852s2.635-5.8852 5.885-5.8852 5.885 2.6349 5.885 5.8852-2.635 5.8852-5.885 5.8852zm0-13.8764c-4.413 0-7.991 3.5779-7.991 7.9912 0 4.4135 3.578 7.9912 7.991 7.9912 4.414 0 7.991-3.5777 7.991-7.9912 0-4.4133-3.577-7.9912-7.991-7.9912z" fill="#f22f46"/><path d="m175.32 58.019c0-.9176.744-1.6616 1.661-1.6616.918 0 1.662.744 1.662 1.6616 0 .9177-.744 1.6616-1.662 1.6616-.917 0-1.661-.7439-1.661-1.6616zm0 3.9804c0-.9177.744-1.6617 1.661-1.6617.918 0 1.662.744 1.662 1.6617 0 .9176-.744 1.6616-1.662 1.6616-.917 0-1.661-.744-1.661-1.6616zm-3.981 0c0-.9177.744-1.6617 1.662-1.6617s1.662.744 1.662 1.6617c0 .9176-.744 1.6616-1.662 1.6616s-1.662-.744-1.662-1.6616zm0-3.9804c0-.9176.744-1.6615 1.662-1.6615s1.662.7439 1.662 1.6615c0 .9178-.744 1.6617-1.662 1.6617s-1.662-.7439-1.662-1.6617z" fill="#f22f46"/><path d="m79.0996 120.156c-6.1035 7.951-16.989 8.954-24.2681 1.675s-7.3724-18.987-.2084-26.1514c7.164-7.164 18.8725-7.0707 26.1516.2084 7.602 7.602 7.6969 19.514-.9463 27.234" stroke="#6971c0" stroke-linecap="round" stroke-width="1.62375"/><path d="m151.742 117.347c-.754 14.21-15.073 13.526-20.96 7.64-5.887-5.887-5.967-15.352-.179-21.14 5.788-5.7877 15.252-5.7076 21.139.179 6.148 6.148 6.229 15.777-.754 22.014" stroke="#6971c0" stroke-linecap="round" stroke-width="1.62375"/><path d="m146.994 113.622c0-.532-.045-.921-.14-1.324h-6.224v2.404h3.653c-.074.597-.471 1.497-1.355 2.101l-.013.081 1.968 1.49.137.013c1.252-1.13 1.974-2.793 1.974-4.765z" fill="#4285f4"/><path d="m140.629 119.955c1.79 0 3.293-.576 4.39-1.569l-2.092-1.583c-.56.381-1.311.648-2.298.648-1.753 0-3.24-1.13-3.771-2.692l-.078.006-2.046 1.548-.026.072c1.09 2.116 3.329 3.57 5.921 3.57z" fill="#34a853"/><path d="m136.858 114.759c-.14-.403-.221-.834-.221-1.281 0-.446.081-.878.214-1.281l-.004-.086-2.072-1.572-.067.032c-.45.878-.708 1.864-.708 2.907 0 1.044.258 2.03.708 2.908z" fill="#fbbc05"/><path d="m140.629 109.505c1.245 0 2.085.525 2.563.964l1.871-1.785c-1.149-1.043-2.644-1.684-4.434-1.684-2.592 0-4.831 1.454-5.921 3.57l2.143 1.627c.538-1.562 2.025-2.692 3.778-2.692z" fill="#eb4335"/><path d="m17.1001 173.786h152.073v91.2436h-152.073z" fill="#11175c"/><g stroke-linecap="round" stroke-width="1.85353"><path d="m169.173 171.283 18.249-13.719v83.076l-15.207 24.389" stroke="#5a63b8"/><path d="m19.1284 169.731 14.3594-14.194h151.9062" stroke="#5a63b8"/><path d="m43.7942 183.959v32.586 10.609l-2.0276 6.062v25.765" stroke="#777dba"/><path d="m61.7085 258.945c0-9.599 0-29.554 0-32.585s0-8.336 0-10.609v-6.063-25.765" stroke="#777dba"/><path d="m84.0125 183.926v32.585 10.61l-2.0276 6.062v25.765" stroke="#777dba"/><path d="m102.261 258.945c0-9.599 0-29.554 0-32.585s0-8.336 0-10.609l2.028-6.063v-25.765" stroke="#777dba"/><path d="m122.537 183.926v32.585 10.61l-2.027 6.062v25.765" stroke="#777dba"/><path d="m140.785 258.945c0-9.599 0-29.554 0-32.585s0-8.336 0-10.609l2.028-6.063v-25.765" stroke="#777dba"/></g><path d="m152.983 208.825 14.211-35.525h-150.0957l-15.0983 35.525z" stroke="#9aa2f1" stroke-width="1.62375"/><g clip-path="url(#services-b)"><path d="m59.469 106.299c-.3031.049-.612.05-.9154.003-.2969-.054-.6046-.22-.7726-.471-.6503-.027-1.2446-.557-1.3452-1.201-.4677-.239-.8785-.752-1.126-1.215-.1116-.228-.1827-.473-.2102-.724.3427-.384.8705-.725 1.4607-.257.0292-.068.0716-.128.1246-.179s.1157-.091.1843-.117c.1375-.051.2838-.076.4306-.071.1935 0 .4243.058.5573.199.5855-.43 1.4555-.582 2.1652-.426" fill="#3f3a3b"/><path d="m74.5318 106.299c.3031.049.612.05.9154.003.2969-.054.6046-.22.7725-.471.6504-.027 1.2446-.557 1.3453-1.201.4677-.239.8785-.752 1.126-1.215.1116-.228.1827-.473.2102-.724-.3427-.384-.8705-.725-1.4607-.257-.0292-.068-.0716-.128-.1246-.179s-.1157-.091-.1843-.117c-.1375-.051-.2838-.076-.4307-.071-.1934 0-.4242.058-.5572.199-.5855-.43-1.4555-.582-2.1652-.426" fill="#3f3a3b"/><path d="m67.0004 98.3716c-1.2092-.0191-2.4638.0378-3.622.4179-1.2374.4064-2.2038 1.0898-2.8924 2.1755-.3387.535-.7164 1.37-.8505 1.991-.2579 1.197-.3443 2.571-.0912 3.774.3793 1.802 2.3682 2.703 4.0284 2.942 1.1209.161 2.2508.253 3.3831.274 1.1682.022 2.3141-.107 3.4711-.274 1.6601-.238 3.6486-1.14 4.0283-2.942.2532-1.203.1668-2.577-.0911-3.774-.1338-.621-.5119-1.456-.8506-1.991-.6886-1.0857-1.6549-1.7691-2.8924-2.1755-1.1582-.3801-2.4124-.4378-3.6219-.4179" fill="#f48ba9"/><path d="m70.2003 108.316c1.0245-.306 2.0299-.949 2.6727-1.805.0152-1.552-.2555-3.188-.6503-4.691-.5548-.217-1.1205-.406-1.6948-.565-1.396-.394-2.8463-.562-4.2954-.496-1.5335.074-3.0325.502-4.4546 1.061-.3952 1.503-.6655 3.138-.6503 4.691.6416.855 1.6481 1.499 2.6726 1.805 2.0156.602 4.3874.601 6.4001 0z" fill="#ffe6e6"/><path d="m68.1016 98.3809c-.0689-.5573-.4478-1.0627-1.1014-1.083-.6535.0203-1.0324.5249-1.1013 1.083" fill="#3f3a3b"/><path d="m65.73 106.751c1.2341-.002 2.4661-.064 3.6959-.186l.0024-.784c.0049-.04-.005-.08-.0278-.113-.0343-.04-.094-.036-.1449-.031-1.4971.148-3.0008.218-4.5052.21-.013-.004-.0269-.005-.0402-.002s-.0257.009-.0357.019c-.0101.009-.0175.021-.0216.034-.004.013-.0046.027-.0016.04v.612c-.002.017-.0009.033.0034.049.0043.015.0117.03.0217.043.1528.145.8621.109 1.0536.109z" fill="#fff"/><path d="m66.9865 95.2358c.166 0 .3005-.1346.3005-.3005 0-.166-.1345-.3005-.3005-.3005-.1659 0-.3005.1345-.3005.3005 0 .1659.1346.3005.3005.3005z" fill="#dcc6ea"/><path d="m62.6686 109.545s-1.9383.872-2.1624 1.032.0796.074.3136.179c.2341.106.4494.213.5091.465.0597.251.0227.202.0227.202l1.2637-.569.193-1.309z" fill="#f48ba9"/><path d="m60.2378 112.024s.4052.079.6627-.063.4509-.443.4509-.443l.4219.293.6317.474s-.4462.018-.5572.326c-.0649.17-.1091.348-.1318.529l-.8454-.497z" fill="#f48ba9"/><path d="m60.3468 110.724c-.1401.05-.2655.135-.365.246-.0613.065-.1421.128-.1727.213-.0753.21.0167.426.103.615.059.129.1334.175.2739.199.1675.029.3582.066.5266.045.31-.04.5635-.312.6022-.616.0226-.18-.0701-.459-.2365-.55-.2244-.119-.4782-.172-.7315-.152z" fill="#3f3a3b"/><path d="m62.8082 109.545-.4035 2.74s-.1919 1.238-.1529 1.543c.039.304.2149 1.624.685 1.936.4701.311 1.1017.786 2.6158.871 1.514.085 2.5302.106 3.6864-.15s1.7031-.461 1.9877-.983.4581-.67.4776-1.248.0048-.983.0048-.983l-.1779-1.433-.3423-2.293s-2.6632.488-4.1887.429c-1.5256-.06-4.192-.429-4.192-.429z" fill="#f48ba9"/><path d="m71.2822 109.565s1.3533.588 1.8289.817c.2732.129.5341.282.7797.457 0 0-.5572-.214-.7984-.055-.1485.101-.2785.226-.3845.371l-.0955.268-1.2271-.569z" fill="#f48ba9"/><path d="m71.6323 112.243.9553-.699s.3033.383.5667.438c.2635.055.6536.02.6536.02l-.3344.367-1.145.826-.1294-.467-.3085-.359z" fill="#f48ba9"/><path d="m73.4413 110.77c-.2233 0-.5003.02-.6635.192-.1318.14-.1636.428-.1127.606.0335.116.0617.207.1656.278.1029.071.2214.117.3455.132.1568.018.3112.043.4704.031.1075-.007.2066-.017.2989-.076.1135-.072.1505-.165.1923-.288.0577-.17.0864-.358 0-.52-.0943-.179-.3463-.29-.5242-.361" fill="#3f3a3b"/><path d="m63.603 116.246s.0295.785.0438.892c.0045.057.0215.111.0498.16 0 0 1.8241.37 3.5889.315s1.9503-.159 1.9503-.159l1.1275-.249s.0661-.459.0613-.575c-.0047-.116-.1194-.384-.1194-.384-.8895.299-1.821.455-2.7594.461-1.5407.007-2.8872-.179-3.2124-.259-.3252-.079-.7304-.202-.7304-.202z" fill="#f48ba9"/><path d="m63.8433 117.295s.0521 1.026.3247 1.448c.2727.423.7165 1.104 1.3931 1.316s.8024.249 1.28.265 1.3405-.063 1.9272-.534c.5867-.47.7702-.779.7702-.779s.3793-.562.398-.875c.0187-.314.1102-.841.1102-.841s-1.5323.415-3.237.322c-1.7047-.094-2.6003-.227-2.6003-.227z" fill="#3f3a3b"/><path d="m62.224 112.339c-.2126.149-.4641.278-.4777.574-.0143.313.0148.619.1931.882.0724.107.1691.199.3001.216.0565-.063.0398-.203.0442-.286.0075-.166.0071-.334.0111-.499.3542-.019.7224-.068 1.0528-.183.0107-.167-.0311-.339-.0398-.506-.0048-.093.0111-.148-.0701-.189-.1146-.059-.3582-.064-.4824-.074-.1242-.011-.2388.021-.3626.025" fill="#3f3a3b"/><path d="m71.7567 112.308c-.1592-.07-.4108-.03-.5875-.03-.1361 0-.3479.006-.4577.102-.084.074-.0322.168-.0195.27.0147.12.0084.273.0617.384.0271.057-.008.048.0545.07.0557.02.1835-.01.2472-.01.171.001.3416.017.5098.047.1863.033.1545.186.1839.358.0231.136-.0167.374.0589.487.1294-.12.2874-.239.3666-.401.0824-.169.0967-.371.0896-.557-.012-.298-.2162-.575-.5075-.72z" fill="#3f3a3b"/><path d="m64.642 110.806c-.199-.124-.3901.088-.3487.289.0095.037.0275.071.0526.1.025.028.0565.051.0918.065s.0735.02.1114.016c.0379-.003.0745-.015.1068-.035.1473-.102.0983-.341-.0139-.435z" fill="#ffe6e6"/><path d="m65.4977 110.826c.0159-.075-.2177.007-.2591.06-.0681.085-.0697.26.0044.334.1106.112.3387.084.4147-.056.0689-.129.0191-.293-.16-.338z" fill="#ffe6e6"/><path d="m68.642 110.837c-.0477-.141-.4207.009-.3486.204.0466.126.2101.19.3339.155.1978-.059.1326-.246.0147-.359z" fill="#ffe6e6"/><path d="m69.5076 110.766c-.1779-.018-.4545.199-.2643.375.0796.074.2615.068.334-.007.0851-.088.0684-.363-.0697-.368z" fill="#ffe6e6"/><path d="m63.6143 111.544s-.0769 1.319-.1167 1.684c-.0398.364.0299 1.179.0299 1.179s1.8806.449 3.1244.409c1.2438-.039 2.6369-.112 3.0946-.215s.7586-.194.7586-.194l-.0609-1.842-.0609-1.021s-4.418.049-4.5175.029-2.2515-.029-2.2515-.029z" fill="#3f3a3b"/><path d="m65.01 114.283c.6451 0 1.1682-.523 1.1682-1.169 0-.645-.5231-1.168-1.1682-1.168-.6452 0-1.1682.523-1.1682 1.168 0 .646.523 1.169 1.1682 1.169z" fill="#fff"/><path d="m69.0168 114.283c.6452 0 1.1682-.523 1.1682-1.169 0-.645-.523-1.168-1.1682-1.168s-1.1682.523-1.1682 1.168c0 .646.523 1.169 1.1682 1.169z" fill="#fff"/><path d="m66.2172 97.6479c.1274-.0975 1.0587-.7678.9779-.1902-.4573.1237-.5926.4477-.2694.796-.3483.0207-.7642.1592-1.1029.1067.0604-.265.187-.5103.3681-.7129" fill="#000" opacity=".2"/><path d="m67.3316 98.3905c-.562.2515-1.8138 1.1733-1.6454 1.9245.0398.176.2033.388.3351.517-.0573-.056-.9903.361-1.1232.412-.4339.166-.8788.315-1.2824.549-.5998.348-1.2438.65-1.4647 1.353-.129.411-.2548.841-.2595 1.271-.0048.429-.1553 1 .0326 1.383.554 1.128 1.6621 1.931 2.8339 2.329.5714.187 1.1571.328 1.7513.421.3132.05.704-.005.8207.342-.0546-.162-.7009.318-.6731.587.0334.321.3893.494.6735.565-.3077.175-.6727.307-.9004.611-.1293.172-.5229.796-.4286.995-.2388.155-.5744.205-.8171.265.2053.053.3271.156.468.3-.2555.003-.4979-.097-.7339.062.1659.007.3278.054.472.136-.1886.06-.6969-.004-.7502.279.103.017.1711-.067.2638-.089.0661-.009.133-.009.1991 0-.2787.137-.5091.286-.4263.648.0653.286.2961.48.5827.306-.1552.107-.3073.108-.488.088-.1166-.013-.3053-.067-.2388.127.1099.315.7117.272.931.133-.0948.135-.2707.155-.4004.234.0465.166.4776.028.5691-.04-.1055.076-.8812.353-.3745.538.1544.056.3228.084.4776.137.447.154.9525.026 1.4134-.014.3009-.027.5946-.04.8987-.046-.2642.101-.5129.239-.7387.41-.3025.227-.7654.63-.7909 1.023-.0231.354.1465.625.5337.632-.6447-.013-.6627.584-.224.823.0776.272.5245.107.7411.165-.3117.214-.9191.077-1.2056.337-.4259.388.3697.766.5691.978-.1126.013-.5361.055-.5811.177-.0684.185.3185.358.4514.398.4776.148.9429-.036 1.3962-.095-.1831.108-1.0905.37-.7104.711-.7726.377-1.9105-.259-2.5824-.603-.8024-.413-1.0587-1.561-1.1072-2.386-.4486-.009-.0896-.828-.2082-1.077-.0669-.139-.2512-.133-.398-.22-.172-.101-.246-.214-.3702-.376-.1823-.239-.3853-.498-.4557-.794-.0653-.275-.0597-.56-.0868-.839-.0203-.209-.1695-.563-.0426-.757.166-.253.7216-.004.9823-.089.2062-.067.1282-.223.139-.428.0123-.238-.0275-.278-.2787-.363-.1894-.064-.4744-.127-.6738-.082-.0211-.33.0147-.62.0613-.948.0283-.199.0796-.391.1051-.587.0537-.386.2818-.836.2455-1.22-.3088-.106-.6368-.142-.9373-.257-.1528-.064-.2981-.144-.4334-.239-.4104-.268-.7762-.365-1.0882-.786-.1791-.241-.3725-.443-.5174-.712-.0934-.167-.1677-.344-.2213-.527-.2245-.802-.2241-1.69-.1688-2.514.0569-.852.2193-1.697.5903-2.471.3375-.704.6288-1.538 1.288-2.0302.2033-.1516.4211-.2666.6165-.4298.2042-.1704.3483-.3515.5938-.4617.3961-.1775.851-.3765 1.2852-.4179.5612-.0534 1.083-.2436 1.653-.2432.6149 0 1.2215-.0597 1.842-.0597" fill="#000" opacity=".2"/><path d="m59.6168 102.677c-.1023.069-.0856.172-.1238.278-.0541.15-.1433.29-.205.438-.1307.309-.2956.603-.4915.876-.0979.139-.3583.562-.5827.477-.2317-.088-.2874-.773-.3097-.984-.0267-.255-.0247-.507-.0434-.765-.0875.257-.3351 1.729-.7861 1.468-.3128-.182-.2786-.793-.3387-1.095-.0445-.229-.0708-.505-.189-.711-.1632.155-.0971.747-.1155.97-.025.301-.068.213-.3152.084-.2834-.148-.4688-.384-.6173-.673-.0955-.185-.0533-.398-.0641-.597-.084.003-.2826.134-.3303.22-.0796.145.0131.328.0557.469.0796.264.1078.406.2973.601.1437.148.2416.276.4159.387.1532.104.2994.217.4378.34.1991.167.0996.162.1409.41.0534.319.373.589.6317.745.2213.133.4637.173.6834.267.2352.1.4127.336.6766.401.3179.072.6433.105.9692.1.0358-.621-.0159-1.25-.0179-1.871.0031-.305.0279-.61.074-.911.0283-.205.1214-.419.125-.622" fill="#000" opacity=".2"/><path d="m65.2289 105.88c.1835.088.5911 0 .816 0h.5918c-.2101.011-.4294.067-.634.119-.1509.04-.4932.065-.6046.169-.2528.236.2217.526.4462.572-.1628.063-1.0166.108-1.1587-.063-.0652-.079-.0589-.507-.0549-.619.0068-.182.0398-.288.2388-.258" fill="#000" opacity=".2"/><path d="m68.811 105.781c.2388.08.3348.057.3383.364.0028.246-.0979.378-.2786.528.1744.024.3865-.009.5525-.04.0159-.3.0366-.608.0195-.909-.117-.05-.2818-.022-.6317.057z" fill="#000" opacity=".2"/><path d="m63.2388 103.113c-.17.04-.2894.134-.4745.122.0132.083.0832.143.1342.213-.0745-.009-.1099.022-.1592.063.2881.228.0358.811.1261 1.135.1043.372.6902.47.8562.084.0724-.168.0095-.146-.0729-.315-.1468-.302-.2073-.689-.1906-1.023" fill="#000" opacity=".2"/><path d="m70.4429 103.193c-.283.306-.2432.869-.2189 1.274.0239.398.5545.788.8359.353.1158-.18.0103-.255-.0514-.423-.1293-.349.033-.853-.2464-1.144" fill="#000" opacity=".2"/><path d="m74.423 102.716c-.0087.341.2854.616.3682.934.0713.275.131.518.3085.753.1118.148.3466.45.5572.423.2746-.035.361-.513.4187-.725.0796-.298.0796-.609.1429-.901.0581.246.1676 1.256.5787 1.125.398-.127.5142-1.057.7057-1.389 0 .379.2205.699.6145.474.332-.19.4446-.622.8199-.752.0713.449-.3813.928-.6304 1.248-.1887.243-.441.445-.64.641-.0697.068-.0912.159-.1505.259-.2328.398-.4183.766-.8517.995-.131.07-.295.018-.3905.063-.1349.063-.1882.224-.3283.294-.1621.073-.3338.122-.5099.146-.2539.04-.7538.228-.974.037.1656-.231.1171-.521.1195-.794.0031-.305.0258-.601.0051-.906-.037-.561-.0768-1.185-.1636-1.925z" fill="#000" opacity=".2"/><path d="m74.5027 106.478c-.2321.632-.7367 1.181-1.1941 1.651-.5914.608-1.4109 1.071-2.2113 1.353-.4578.162-.9581.282-1.4249.398.6133.156 1.4428-.246 1.6454.542 0-.288-.053-.57-.0367-.858.2329.003.4219-.154.6305-.241.2177-.09.4307-.173.6424-.28.3634-.185.6766-.374.9743-.657.5366-.507.6982-1.087.9744-1.908z" fill="#000" opacity=".2"/><path d="m71.3779 110.994c-.0251.279.0725.567.0796.836.0052.205-.0947.287-.2368.413.1118.009.3057.055.3722-.02.1126-.127-.0478-.731-.0956-.872" fill="#000" opacity=".2"/><path d="m71.2788 110.198c.1636.275.7415.401 1.0273.518.1445.059.2786.131.4354.139.1461.008.3053-.057.4406 0-.1194.032-.0923.201-.0923.318 0 .191-.0068.328.199.409.1743.069.5222.066.6766-.046.1302-.093.0892-.205.1847-.318.0796.221.0856.499-.1329.637-.0828.052-.1632.11-.2611.13-.1424.025-.287.032-.4311.023-.1305-.006-.2476-.013-.3634.059-.1357.085-.2388.219-.3618.318-.123.1-.2834.17-.4064.273.0518-.304-.4187-.325-.597-.403.3821-.212.8442-.545 1.1045-.906-.3184-.102-.6436-.147-.9552-.285-.1123-.049-.3511-.128-.4064-.255-.0677-.149.0474-.327-.0605-.611z" fill="#000" opacity=".2"/><path d="m70.7215 112.507c.1787.432.9329.442 1.29.661.0278.17.2276.339.1779.488-.0522.158-.3053.362-.4713.341.1465-.254.0721-.685-.1811-.773-.2531-.088-.5831-.114-.8525-.142-.01-.156-.0796-.698.037-.575z" fill="#000" opacity=".2"/><path d="m70.9006 113.104c.125.113.3399.101.4676.219.1278.117.1195.266.1338.417.0398.383-.0299.768 0 1.155.2523-.48.2786-1.198.2511-1.747-.1592-.018-.3184-.022-.474-.046-.0271-.006-.4032-.021-.3785.002z" fill="#000" opacity=".2"/><path d="m68.2139 116.706c.4696 0 .9393.006 1.4038-.022.2643-.015.597-.13.8609-.039.0243-.154-.0096-.337-.0187-.493-.2695-.045-.6269.187-.8836.256-.3121.083-.6671.127-.9644.219" fill="#000" opacity=".2"/><path d="m64.9474 120.5c-.1893.018-.3801.015-.5687-.009-.1334-.019-.3583-.073-.4812-.02.064.316 1.0814.271 1.3309.295.4068.04.7913-.018 1.1941-.08.5082-.08 1.0233-.019 1.5351-.019.5278 0 1.0584-.127 1.5451-.315-.4099-.044-.839.063-1.2577.022-.3582-.036-.7562-.101-1.1145-.086-.3474.016-.6766.1-1.0248.1-.3893 0-.7754.082-1.1583.112z" fill="#000" opacity=".2"/><path d="m62.1243 109.721c-.2958.137-.5891.308-.8757.464-.1592.087-.3252.165-.4895.244-.0729.036-.1397.082-.2126.12-.0087.004-.1954.091-.1695.109.2288.159.5779.061.8099.243.1644.129.1799.299.2257.49.2635.026.6735-.216.9123-.33.1369-.066.2356-.111.2981-.234.068-.135.0398-.308.0863-.451.0422-.125.0856-.153.0932-.305.0087-.178.068-.35.0581-.525-.1787.007-.5827.104-.7363.175z" fill="#000" opacity=".2"/><path d="m60.9502 110.855c.1162.04.2563.213.2555.336-.2444.079-.5624-.033-.4944.371.055.328.4848.343.5573.037-.3057.367-1.0273.653-1.3561.167-.3932-.582.2177-.955.7375-1.05" fill="#000" opacity=".2"/><path d="m61.1891 111.851c.1194.183.2388.338.4294.437.2388.125.3491.051.5994.06-.1488.022-.3431.102-.3494.275.2336.125.5094.005.7538.073.1194.032.207.094.3332.124.1261.03.2531.055.353.141-.2034.006-.8896.066-1.0233.254-.1123.16.0669.552-.0255.763-.1333-.062-.3634-.122-.4306-.274-.0589-.134-.0199-.424-.0458-.577-.3129.01-.607-.254-.8231-.46-.2301-.219-.4888-.358-.7224-.575.1914-.005.9015-.016.9513-.241z" fill="#000" opacity=".2"/><path d="m64.343 110.756c-.1632.051-.3379.252-.2615.428.1011.232.488.245.5787.011-.0987.02-.1823.056-.2627-.025-.0688-.07-.1075-.278-.0545-.414z" fill="#000" opacity=".2"/><path d="m65.2586 110.796c-.1667-.021-.2252.331-.1894.448.0696.226.5282.128.5668-.08-.0836.015-.1811.06-.2715.04-.1445-.035-.2077-.237-.1059-.408z" fill="#000" opacity=".2"/><path d="m68.3934 110.785c-.207-.033-.3296.199-.2563.369.1026.235.4457.211.5612 0-.2934.119-.449-.061-.3049-.369z" fill="#000" opacity=".2"/><path d="m69.2689 110.786c-.2098-.032-.3204.259-.2464.417.1226.263.5341.177.6432-.048-.1039.037-.2595.102-.363.023-.0883-.068-.111-.247-.0338-.392z" fill="#000" opacity=".2"/><path d="m67.9777 112.567c-.1294.286-.1463.61-.0473.908.0903.263.3542.443.5572.605.1285.102.3582.239.5325.181.1044-.04.2031-.094.2938-.159.0692-.057.0847-.147.1512-.206-.1702.073-.3561.102-.5405.084-.1329-.009-.3733-.068-.4541-.187-.1023-.152.0031-.193.1321-.16.1644.044.398.133.5572.026-.1357.004-.2953.026-.4075-.066-.1003-.081-.2074-.303-.2126-.431-.0143-.364.4721-.482.7423-.5-.1922-.269-.5078.069-.7001.08-.0434-.304.5369-.398.7427-.396-.0963-.049-.2587-.027-.3323-.104.2255-.083.463-.128.7033-.135-.2054 0-.4016-.088-.6054-.105-.1-.007-.2004-.002-.2993.014-.0952.013-.1541.063-.2424.1-.0721.03-.1437.034-.2142.075-.1517.09-.2753.22-.3566.376z" fill="#000" opacity=".2"/><path d="m72.4323 102.796c-.0557-.271.0163-.696-.1524-.928-.1453-.199-.5744-.27-.7961-.33-.3506-.095-.7013-.317-1.0746-.296.1449.052.2531.183.3813.264.1281.08.2543.196.3944.261.1401.064.2858.111.4211.186s.287.134.4028.239c.1266.115.1517.252.1903.41.0605.248.0911.515.1277.769.0291.201.0398.402.0605.604.0195.173.0709.336.0796.515.0287.633.1338 1.283-.0322 1.907-.0451.183-.1033.363-.1739.539-.0558.131-.1776.238-.2221.366.1058-.083.2201-.146.3092-.251.1254-.15.291-.254.3937-.425.0796-.13.0796-.252.0943-.404.0203-.182-.035-.362-.0151-.542.0167-.192.0152-.385-.0044-.577-.0342-.438-.0983-.876-.1449-1.313-.0354-.334-.1715-.662-.2392-.994z" fill="#000" opacity=".2"/><path d="m72.5526 100.517c-.1005-.024-.2038-.033-.3069-.028-.0299.146.2161.203.156.347-.0243.058-.0852.044-.0883.13-.0032.093.0887.137.1082.215-.2181.095-.0716.189-.0366.35.0569-.047.0215-.142.0649-.199s.1174-.061.1803-.08c.0211-.099-.1043-.143-.1071-.222-.0036-.099.1437-.079.2169-.096-.0223-.069-.1894-.182-.1687-.267.0159-.064.1823-.081-.0187-.15z" fill="#000" opacity=".2"/><path d="m68.3267 112.096c-.5063.162-.7829.567-.81 1.091-.0117.283.07.561.2325.793.1866.266.6368.398.9473.437.345.044.6507-.083.9154-.275-.5019.138-1.241.117-1.5161-.419-.2559-.503-.1361-1.013.2309-1.627z" fill="#000" opacity=".2"/><path d="m70.8957 98.8896c-.0263-.0096-.0525-.0183-.0796-.0259-.1962-.0553-.3885-.0418-.5863-.1055-.232-.0744-.4525-.1878-.6961-.2221.4211.2822.8199.5624 1.2525.8211.5768.3447 1.0946.7658 1.6462 1.1518.4243.297.6516.591.861 1.053.0796.178.1592.364.2368.548.2559.62.5289 1.279.6714 1.932.086.394.1465.782.205 1.177.0271.185.0581.38.1031.557.1767-.534.1337-1.109.0796-1.656-.0326-.328-.0434-.695-.1429-1.011-.0872-.277-.2217-.549-.3411-.815-.328-.729-.597-1.433-1.1212-2.045-.1425-.166-.2834-.22-.4665-.3441-.2133-.1453-.3693-.3435-.5552-.5174-.166-.156-.3507-.1708-.5636-.2575-.1719-.0713-.3292-.1759-.5031-.2404z" fill="#fff"/><path d="m74.6624 101.741c-.174-.006-.445.03-.5394.199.1656.119.486.062.6942.1.1938.035.4633.071.6432.157.3737.178.4605.607.7108.875.0177-.211.0124-.423-.0159-.633-.0318-.19-.0434-.125-.1707-.222-.1768-.136-.3224-.268-.537-.346-.1576-.057-.3339-.071-.7852-.13z" fill="#fff"/><path d="m76.7119 102.039c-.1023.003-.4633.101-.4776.219-.0215.172.3506.094.4681.099.3904.019.6495.226.7817.592.0171-.208.0648-.588-.1246-.732-.1417-.107-.4446-.128-.6476-.178z" fill="#fff"/><path d="m78.3039 102.239c-.1166-.036-.3483-.05-.4677.003-.2089.09-.2205.251-.0099.296.3546.075.6105-.03.9301.176.123-.182-.2507-.391-.353-.495" fill="#fff"/><path d="m68.7554 101.539c-.1552-.014-.2921-.019-.3809-.024-.3272-.02-1.1614.047-.8338.573.2125.341.9062.21 1.2473.165.3551-.046.6998-.059 1.0552-.077.0963-.471-.5907-.595-1.0878-.637z" fill="#fff"/><path d="m67.3783 97.363c-.164-.0601-.3236.0056-.199.154.0979.1166.2706.1592.3658.2945.1003.1405.2388.5851.4863.4434.0402-.2352-.3044-.708-.6531-.8919z" fill="#fff"/><path d="m67.06 94.6563c-.17-.0521-.3061-.0099-.1791.1294.0446.0485.1102.0059.1592.0895.035.0601.0143.1501.0032.2158.2619.0644.148-.3702.0366-.4546" fill="#fff"/><path d="m69.9853 111.552c-.1516-.033-.3228-.068-.4876-.06-.3136.017-.2157.135.0247.204.1823.053.408.105.5548.234.1469.128.1903.334.3013.496-.062-.091.1592-.963-.0752-.974" fill="#fff"/><path d="m72.0948 109.9c-.1142-.065-.9787-.55-.8919-.202.3813.159.7343.391 1.1108.568.2727.129.7189.498 1.0317.467.0239-.176-.2647-.371-.398-.455-.0991-.061-.211-.091-.3097-.154-.0987-.064-.1763-.171-.5429-.224z" fill="#fff"/><path d="m73.8263 110.736c-.1445-.007-.3498-.067-.4601.04.1724.183.4159.092.5397.35.0884.184.0912.447.1226.642.2046 0 .2273-.279.2157-.435-.0175-.237-.1763-.309-.4179-.597z" fill="#fff"/><path d="m73.4963 112.051c-.2742.105-.5994.373-.6579.671.1405-.046.2885-.07.4183-.145.1297-.074.2253-.193.3451-.278.0227-.016.3685-.245.2965-.272-.1222-.044-.2631-.029-.402.024z" fill="#fff"/><path d="m71.0036 115.182-.0171-.003c-.1218-.02-.3379.23-.4339.294-.0959.064-.4222.192-.4278.318-.0128.275.4326-.022.5174-.081s.6114-.465.3614-.528z" fill="#fff"/><path d="m71.6771 112.348c-.0641-.02-.2476-.103-.2388.02.0056.08.2153.162.2786.204.0976.06.1851.134.2595.221.0836.111.1043.254.2086.352.1078-.08.0111-.372-.0251-.478-.0529-.153-.1863-.211-.2635-.34" fill="#fff"/><path d="m71.1466 110.398c-.0693.223-.0398.489-.0474.721-.0094.265.0032.529.0378.792.0135.097.0155.242.0959.278.1043.047.2432.032.3535.046.0235-.162-.0116-.286-.0502-.437-.0505-.199-.0621-.419-.0915-.623-.0548-.352-.13-.7-.2253-1.043 0 .096-.045.177-.0728.266z" fill="#fff"/><path d="m59.279 101.841c-.199-.072-1.1049.059-1.0913.354.2626.095.6897-.075.9628-.116.1592-.024.6519-.033.6626-.235-.0366-.016-.0762-.024-.1162-.024" fill="#fff"/><path d="m57.3487 102.099c-.1592-.052-.8545.07-.6125.239.1305.091.4243-.032.5727-.04.1385-.008.2774-.003.4148.017.0322-.147-.1302-.223-.2556-.216" fill="#fff"/><path d="m56.0247 102.415c.1264-.015.2547-.005.3769.031-.1019-.21-.2711-.217-.4776-.19-.127.014-.2515.045-.3702.092-.027.012-.2268.146-.232.145.3053.102.4123-.043.7029-.078z" fill="#fff"/><path d="m70.3837 116.527c-.154.007-.2022.306-.2687.428-.07.13-.2547.282-.2455.425.5051.096.5142-.473.5142-.853z" fill="#fff"/><path d="m69.7513 118.745c.2559-.384.4012-.783.314-1.323-.2603-.062-.3872.748-.4831.951-.1724.365-.4777.684-.7423.986-.1644.19-.3368.392-.4844.587.4457.051.8875-.541 1.1283-.841.3674-.458.5413-1.098.5413-1.682" fill="#fff"/><g stroke="#1e1e1e" stroke-linecap="round" stroke-linejoin="round"><path d="m74.582 102.338c.2707-.061.683-.147.9354 0" stroke-width=".119405"/><path d="m75.6768 102.557h.0398" stroke-width=".119405"/><path d="m75.7563 102.755c.0078 0 .0155-.001.0225-.005.0069-.003.0129-.008.0173-.015" stroke-width=".119405"/><path d="m76.4727 102.576c.1504-.066.2953-.059.4577-.059" stroke-width=".119405"/><path d="m77.8062 102.576c.2432-.046.4948-.011.7164.1" stroke-width=".119405"/><path d="m78.5024 102.854h.0995" stroke-width=".119405"/><path d="m74.9604 106.019h.2389" stroke-width=".119405"/><path d="m76.7314 105.343c.0444-.036.0909-.07.1394-.1" stroke-width=".119405"/><path d="m77.9854 103.909c.0306-.022.0574-.049.0796-.08" stroke-width=".119405"/><path d="m77.1691 102.557-.0597.079" stroke-width=".119405"/><path d="m77.3281 102.676c-.0202.009-.0379.023-.0517.04-.0139.017-.0234.038-.0279.059" stroke-width=".119405"/><path d="m72.3135 100.665c.0306-.022.0768-.012.1194.02" stroke-width=".119405"/><path d="m72.2539 100.944c.0326.08.1246.101.199.12" stroke-width=".119405"/><path d="m66.5225 97.6802c.226-.1664.5035-.1123.7562-.0796" stroke-width=".119405"/><path d="m67.418 97.7605c.0155-.0189.0362-.0328.0597-.0398" stroke-width=".119405"/><path d="m67.5371 97.9193c.0078.0002.0155-.0014.0224-.0049.007-.0035.0129-.0086.0174-.015" stroke-width=".119405"/><path d="m66.96 94.835c.0883 0 .1293.072.1393.1592" stroke-width=".119405"/><path d="m58.96 102.139v.079" stroke-width=".119405"/><path d="m59.2188 102.079v.139" stroke-width=".119405"/><path d="m58.2634 102.456c-.0566.99-.3045 2.189.0597 3.144" stroke-width=".119405"/><path d="m58.7806 105.502c-.0104.054-.0034.11.0199.159" stroke-width=".119405"/><path d="m58.96 105.642v.099" stroke-width=".119405"/><path d="m56.8502 102.636c-.1229.44-.1393.875-.1393 1.338 0 .505.1728.845.418 1.269" stroke-width=".119405"/><path d="m57.2485 102.456v.159" stroke-width=".119405"/><path d="m57.3877 102.497v.199" stroke-width=".119405"/><path d="m55.9948 102.477c-.0111.009-.0189.022-.0224.036-.0036.014-.0027.029.0025.043" stroke-width=".119405"/><path d="m56.1542 102.557c-.0007.027-.0075.055-.0199.079" stroke-width=".119405"/><path d="m55.4375 102.755c.0398.407.3065 1.022.6567 1.254" stroke-width=".119405"/><path d="m60.1538 106.974c.0017.02.008.039.0183.056.0104.018.0245.032.0414.043" stroke-width=".119405"/><path d="m60.353 106.775c.0148.088.0522.185.1194.239" stroke-width=".119405"/><path d="m70.98 110.655h.0995" stroke-width=".119405"/><path d="m70.9399 110.994c.0171-.004.0347-.004.0518 0 .0171.003.0333.01.0477.02" stroke-width=".119405"/><path d="m69.9058 116.726c.0441-.018.0919-.025.1393-.02" stroke-width=".119405"/><path d="m69.8857 116.904h.0597" stroke-width=".119405"/><path d="m63.9353 116.646c-.0028.102.0176.204.0597.298" stroke-width=".119405"/><path d="m64.7109 117.203c.7268.12 1.526.139 2.2687.139" stroke-width=".119405"/><path d="m71.0996 112.587c.0736-.033.2014-.02.2985-.02" stroke-width=".119405"/><path d="m71.2388 112.726h.1194" stroke-width=".119405"/><path d="m62.562 112.606c.0215.017.1341-.028.2189-.02" stroke-width=".119405"/><path d="m62.562 112.825h.1393" stroke-width=".119405"/><path d="m60.3132 111.034c-.2264.12-.3864.686 0 .657" stroke-width=".119405"/><path d="m60.5719 111.551c-.0274.03-.0314.061 0 .079" stroke-width=".119405"/><path d="m60.7312 111.571c-.0071.023 0 .037.0199.04" stroke-width=".119405"/><path d="m61.4678 110.437c.2324-.164.6559-.274.9353-.298" stroke-width=".119405"/><path d="m61.8057 110.597c.0247-.012.0519-.019.0796-.02" stroke-width=".119405"/><path d="m60.9897 112.229c.0743.091.1615.172.2588.238" stroke-width=".119405"/><path d="m61.3281 112.248.0182.018" stroke-width=".119405"/><path d="m72.2935 110.298c.0455.016.0921.029.1393.04" stroke-width=".119405"/><path d="m73.627 111.154c.115.093.2193.298.0796.418" stroke-width=".119405"/><path d="m73.0101 112.268c-.0346.031-.0712.068-.0995.099" stroke-width=".119405"/><path d="m72.6715 112.486c-.027.012-.0485.033-.0597.06" stroke-width=".119405"/><path d="m69.1886 118.318c-.4294 1.005-1.2967 1.454-2.3483 1.453" stroke-width=".119405"/><path d="m70.1841 118.637c-.0219.143-.1285.348-.2388.438" stroke-width=".119405"/><path d="m70.4625 118.815c-.0153.042-.0353.082-.0597.12" stroke-width=".119405"/><path d="m63.7759 118.994c.1162.168.2786.508.4577.597" stroke-width=".119405"/><path d="m63.5972 119.353c.0364.036.0697.076.0995.119" stroke-width=".119405"/><path d="m64.8687 120.169h-.0181" stroke-width=".119405"/><path d="m64.5303 120.129h-.0181" stroke-width=".119405"/><path d="m69.4459 119.93c.0014.013-.0046.019-.0182.018" stroke-width=".119405"/><path d="m72.1343 99.0938c.3884.2125.7526.5516 1.0149.8955" stroke-width=".119405"/><path d="m72.8311 99.0938c.0525.0429.1026.1086.1592.1592" stroke-width=".119405"/><path d="m66.3031 95.2324c-.0481.0283-.1222.0653-.1791.0995" stroke-width=".119405"/><path d="m66.2636 94.656c-.0589-.0123-.1194-.0263-.1791-.0398" stroke-width=".119405"/><path d="m66.8809 94.2178v-.1592" stroke-width=".119405"/><path d="m67.5571 94.5164c.0327-.0136.0665-.0271.0995-.0398" stroke-width=".119405"/><path d="m67.7764 95.2324c.0358.0231.0769.0368.1194.0398" stroke-width=".119405"/><path d="m56.731 101.74c.2412-.077.6292-.257.8358 0" stroke-width=".119405"/><path d="m56.9697 101.422h.2189" stroke-width=".119405"/><path d="m78.3833 104.466c.1863-.156.3865-.398.4378-.637" stroke-width=".119405"/><path d="m78.7217 104.467c.0653-.04.1118-.12.1791-.159" stroke-width=".119405"/><path d="m74.5225 111.034c.0493.148.0398.269 0 .418" stroke-width=".119405"/><path d="m74.7412 111.113c.0036.061.0104.12.0199.179" stroke-width=".119405"/><path d="m67.0004 98.3716c-1.2092-.0191-2.4638.0378-3.622.4179-1.2374.4064-2.2038 1.0898-2.8924 2.1755-.3387.535-.7164 1.37-.8505 1.991-.2579 1.197-.3443 2.571-.0912 3.774.3793 1.802 2.3682 2.703 4.0284 2.942 1.1209.161 2.2508.253 3.3831.274 1.1682.022 2.3141-.107 3.4711-.274 1.6601-.238 3.6486-1.14 4.0283-2.942.2532-1.203.1668-2.577-.0911-3.774-.1338-.621-.5119-1.456-.8506-1.991-.6886-1.0857-1.6549-1.7691-2.8924-2.1755-1.1582-.3801-2.4124-.4378-3.6219-.4179" stroke-width=".199008"/><path d="m60.0236 101.839c-.7093-.156-1.5793-.004-2.1652.426" stroke-width=".199008"/><path d="m57.8583 102.265c-.1342-.14-.365-.199-.5573-.199-.1468-.004-.2931.02-.4306.072-.0686.026-.1313.065-.1843.116-.0531.051-.0954.112-.1246.179" stroke-width=".199008"/><path d="m56.5603 102.434c-.5902-.468-1.118-.128-1.4607.257" stroke-width=".199008"/><path d="m55.0996 102.69c.0272.252.0981.497.2094.724.2475.464.6583.976 1.126 1.216" stroke-width=".199008"/><path d="m56.4351 104.63c.1007.643.6945 1.174 1.3453 1.201" stroke-width=".199008"/><path d="m57.7803 105.831c.1675.251.4756.417.7725.471.3034.047.6124.046.9155-.003" stroke-width=".199008"/><path d="m61.0777 111.876c.55-.33.1934-1.116-.3781-1.136-.4808-.015-.886.12-.9346.655-.0454.498.4681.691.8844.633.1513-.022.2968-.074.4283-.152z" stroke-width=".199008"/><path d="m60.0273 110.889c.847-.506 1.8349-1.107 2.7862-1.37" stroke-width=".199008"/><path d="m61.3511 111.423c.3857-.193.868-.398 1.2637-.569" stroke-width=".199008"/><path d="m59.9248 111.838c.6018.549 1.1738 1.026 1.7911 1.356" stroke-width=".199008"/><path d="m61.3511 111.518c.0692.039.1827.126.2487.172.2623.179.5453.392.8076.572" stroke-width=".199008"/><path d="m62.2777 113.227c.3292-.102.6731-.149 1.0177-.138.0538-.178.0836-.362.0888-.547.0035-.031-.002-.062-.016-.09-.0142-.02-.0329-.036-.0545-.047-.2627-.155-.5754-.202-.872-.13-.5358.132-.8208.527-.6998 1.068.0717.32.2834.632.5485.697" stroke-width=".199008"/><path d="m62.8124 109.519c-.1234.849-.2623 1.766-.3857 2.615l-.0219.151" stroke-width=".199008"/><path d="m63.6173 111.518c-.1095.923-.1592 1.962-.0895 2.889" stroke-width=".199008"/><path d="m63.6172 111.518c2.2631.069 4.5024.069 6.7663 0" stroke-width=".199008"/><path d="m63.5278 114.407c1.1117.354 2.301.41 3.4592.381s2.365-.025 3.4858-.381" stroke-width=".199008"/><path d="m70.0218 117.326c.0016.036.0024.074.0024.111 0 1.615-1.3836 2.924-3.0903 2.924-1.7066 0-3.0901-1.309-3.0901-2.924 0-.048.0011-.095.0035-.142" stroke-width=".199008"/><path d="m57.8581 102.265c-.0637 1.189-.2711 2.482-.0796 3.566" stroke-width=".199008"/><path d="m56.5604 102.434c-.1612.72-.2035 1.462-.1253 2.196" stroke-width=".199008"/><path d="m68.1016 98.3809c-.0689-.5573-.4478-1.0627-1.1014-1.083-.6535.0203-1.0324.5249-1.1013 1.083" stroke-width=".199008"/><path d="m73.9771 101.839c.7092-.156 1.5793-.004 2.1652.426" stroke-width=".199008"/><path d="m76.1421 102.265c.1341-.14.365-.199.5572-.199.1469-.004.2931.02.4307.072.0686.026.1312.065.1843.116.053.051.0954.112.1245.179" stroke-width=".199008"/><path d="m77.4404 102.434c.5903-.468 1.1181-.128 1.4608.257" stroke-width=".199008"/><path d="m78.9008 102.69c-.0273.252-.0981.497-.2094.724-.2475.464-.6583.976-1.126 1.216" stroke-width=".199008"/><path d="m77.5655 104.63c-.1007.643-.6945 1.174-1.3453 1.201" stroke-width=".199008"/><path d="m76.2202 105.831c-.1675.251-.4756.417-.7725.471-.3034.047-.6124.046-.9155-.003" stroke-width=".199008"/><path d="m70.2003 108.316c1.0245-.306 2.0299-.949 2.6727-1.805.0152-1.552-.2555-3.188-.6503-4.691-.5548-.217-1.1205-.406-1.6948-.565-1.396-.394-2.8463-.562-4.2954-.496-1.5335.074-3.0325.502-4.4546 1.061-.3952 1.503-.6655 3.138-.6503 4.691.6416.855 1.6481 1.499 2.6726 1.805 2.0156.602 4.3874.601 6.4001 0z" stroke-width=".199008"/><path d="m72.9234 111.876c-.55-.33-.1934-1.116.3781-1.136.4808-.015.886.12.9346.655.0454.498-.4681.691-.8844.633-.1513-.022-.2968-.074-.4283-.152z" stroke-width=".199008"/><path d="m73.9736 110.889c-.847-.506-1.8348-1.107-2.7861-1.37" stroke-width=".199008"/><path d="m72.6494 111.423c-.3856-.193-.868-.398-1.2637-.569" stroke-width=".199008"/><path d="m74.0757 111.838c-.6018.549-1.1737 1.026-1.791 1.356" stroke-width=".199008"/><path d="m72.6496 111.518c-.0693.039-.1827.126-.2488.172-.2623.179-.5452.392-.8075.572" stroke-width=".199008"/><path d="m71.7233 113.227c-.3292-.102-.6732-.149-1.0178-.138-.0537-.178-.0836-.362-.0887-.547-.0036-.031.0019-.062.0159-.09.0143-.02.033-.036.0545-.047.2627-.155.5755-.202.8721-.13.5357.132.8207.527.6997 1.068-.0716.32-.2834.632-.5485.697" stroke-width=".199008"/><path d="m71.7056 113.227c.0316.371.0218.745-.0291 1.114-.1898 1.263-.9719 1.894-2.1763 2.135-.8228.164-1.6613.235-2.5.214-.8388.021-1.6774-.05-2.5003-.214-1.204-.242-1.9865-.873-2.1764-2.135-.0509-.369-.0606-.743-.029-1.114" stroke-width=".199008"/><path d="m71.1885 109.519c.1234.849.2623 1.766.3857 2.615l.0218.151" stroke-width=".199008"/><path d="m70.3833 111.518c.1095.923.1592 1.962.0896 2.889" stroke-width=".199008"/><path d="m70.3905 116.186c.0398.358.0645.708-.037 1.054-1.4966.438-3.1045.402-4.6409.319-.6953-.038-1.3954-.123-2.0657-.319-.1015-.346-.0796-.697-.037-1.054" stroke-width=".199008"/><path d="m76.1421 102.265c.0637 1.189.271 2.482.0796 3.566" stroke-width=".199008"/><path d="m77.4404 102.434c.1613.72.2036 1.462.1254 2.196" stroke-width=".199008"/><path d="m63.7761 103.459c0-.19-.1545-.345-.3451-.345s-.3451.155-.3451.345v.951c0 .19.1545.345.3451.345s.3451-.155.3451-.345z" fill="#1e1e1e" stroke-width=".199008"/><path d="m62.9136 103.313.1727.098" stroke-width=".199008"/><path d="m62.8735 103.55c.069.024.1402.041.2126.051" stroke-width=".199008"/><path d="m70.4275 104.41c0 .19.1545.345.3451.345s.3451-.155.3451-.345v-.951c0-.19-.1545-.345-.3451-.345s-.3451.155-.3451.345z" fill="#1e1e1e" stroke-width=".199008"/><path d="m71.2904 103.313-.1727.098" stroke-width=".199008"/><path d="m71.3297 103.55c-.0689.024-.1401.041-.2125.051" stroke-width=".199008"/><path d="m65.73 106.751c1.2341-.002 2.4661-.064 3.6959-.186l.0024-.784c.0049-.04-.005-.08-.0278-.113-.0343-.04-.094-.036-.1449-.031-1.4971.148-3.0008.218-4.5052.21-.013-.004-.0269-.005-.0402-.002s-.0257.009-.0357.019c-.0101.009-.0175.021-.0216.034-.004.013-.0046.027-.0016.04v.612c-.002.017-.0009.033.0034.049.0043.015.0117.03.0217.043.1528.145.8621.109 1.0536.109z" stroke-width=".199008"/><path d="m69.422 110.777c-.2821.043-.2841.441.0104.444.1807.002.281-.179.2133-.345-.035-.087-.1277-.113-.2237-.099z" stroke-width=".199008"/><path d="m68.5221 110.777c-.2821.043-.2841.441.0104.444.1807.002.281-.179.2133-.345-.0342-.087-.1277-.113-.2237-.099z" stroke-width=".199008"/><path d="m65.4196 110.777c-.2822.043-.2842.441.0104.444.1807.002.281-.179.2133-.345-.0362-.087-.1282-.113-.2237-.099z" stroke-width=".199008"/><path d="m64.5197 110.777c-.2822.043-.2842.441.0104.444.1807.002.281-.179.2133-.345-.0354-.087-.1282-.113-.2237-.099z" stroke-width=".199008"/><path d="m64.6787 106.33 1.7569-.019c.0142.003.0289.004.0434.001.0145-.002.0283-.007.0405-.015.0123-.008.0228-.019.0308-.031s.0134-.026.0158-.041l.0796-.242c.0207.162.0572.322.1091.477.0384-.167.094-.329.1659-.485.0261.157.0872.305.1787.435.0466-.197.1133-.389.1991-.573.0248.234.0616.467.1102.698l.1194-.435c.6254.031 1.2523.008 1.8739-.067" stroke-width=".119405"/><path d="m65.01 114.283c.6451 0 1.1682-.523 1.1682-1.169 0-.645-.5231-1.168-1.1682-1.168-.6452 0-1.1682.523-1.1682 1.168 0 .646.523 1.169 1.1682 1.169z" stroke-width=".199008"/><path d="m69.0168 114.283c.6452 0 1.1682-.523 1.1682-1.169 0-.645-.523-1.168-1.1682-1.168s-1.1682.523-1.1682 1.168c0 .646.523 1.169 1.1682 1.169z" stroke-width=".199008"/><path d="m69.0171 113.986c.4816 0 .872-.39.872-.872 0-.481-.3904-.872-.872-.872s-.8721.391-.8721.872c0 .482.3905.872.8721.872z" stroke-width=".14846"/><path d="m69.0168 113.63c.2849 0 .5158-.231.5158-.516 0-.284-.2309-.515-.5158-.515s-.5158.231-.5158.515c0 .285.2309.516.5158.516z" stroke-width=".14846"/></g><path d="m69.0172 113.351c.1306 0 .2364-.106.2364-.237 0-.13-.1058-.236-.2364-.236s-.2364.106-.2364.236c0 .131.1058.237.2364.237z" fill="#1e1e1e"/><path d="m65.0097 113.986c.4817 0 .8721-.39.8721-.872 0-.481-.3904-.872-.8721-.872-.4816 0-.872.391-.872.872 0 .482.3904.872.872.872z" stroke="#1e1e1e" stroke-linecap="round" stroke-linejoin="round" stroke-width=".14846"/><path d="m65.01 113.63c.2849 0 .5158-.231.5158-.516 0-.284-.2309-.515-.5158-.515s-.5159.231-.5159.515c0 .285.231.516.5159.516z" stroke="#1e1e1e" stroke-linecap="round" stroke-linejoin="round" stroke-width=".14846"/><path d="m65.0099 113.351c.1305 0 .2364-.106.2364-.237 0-.13-.1059-.236-.2364-.236-.1306 0-.2365.106-.2365.236 0 .131.1059.237.2365.237z" fill="#1e1e1e"/><path d="m67.0005 95.3135v1.9853" stroke="#1e1e1e" stroke-linecap="round" stroke-linejoin="round" stroke-width=".318413"/><path d="m66.9865 95.2358c.166 0 .3005-.1346.3005-.3005 0-.166-.1345-.3005-.3005-.3005-.1659 0-.3005.1345-.3005.3005 0 .1659.1346.3005.3005.3005z" stroke="#1e1e1e" stroke-linecap="round" stroke-linejoin="round" stroke-width=".199008"/><path d="m59.9951 120.388c.3757 0 .7702.027 1.1145-.06.074-.018.1568-.056.2388-.06.082-.005.1592 0 .2388 0 .1624 0 .3431.021.4975-.02.1672-.045.3511.017.5174-.018.0796-.018.125-.042.2173-.04h.2389.2587c.0863 0 .1536.032.2388.04.0878.004.1751.016.2607.037.0553.015.0999.065.1552.082.1799.052.3761.048.5572.098.1567.041.3217.04.4776-.004.2787-.082.5461-.04.8359-.055.0852-.005.1504-.04.2388-.04h.2786.5787c.168 0 .3495-.021.5174 0 .09.01.17.066.2587.083.1135.022.2508-.002.367-.002.1473 0 .2977.01.4442 0 .0685-.004.1317-.029.199-.039.0796-.01.1592.007.2388 0 .0474-.006.0796-.029.1258-.04.0533-.011.1071.003.1592-.007.1453-.027.2874-.043.4334-.076.2599-.06.5298-.089.7841-.151.1246-.031.2786-.009.4052-.009h.3801c.1401 0 .3045-.024.4406.009.1194.03.2353.08.3582.106.1716.038.3519.08.5282.086.201.004.4032-.01.6042-.003.1815.007.3642.068.5405.11.0959.023.1767.069.2687.102.0798.026.164.035.2475.028" stroke="#1e1e1e" stroke-linecap="round" stroke-linejoin="round" stroke-width=".199008"/><path d="m70.9061 103.68c.0824 0 .1492-.066.1492-.149 0-.082-.0668-.149-.1492-.149s-.1493.067-.1493.149c0 .083.0669.149.1493.149z" fill="#fff"/><path d="m63.6268 103.68c.0824 0 .1493-.066.1493-.149 0-.082-.0669-.149-.1493-.149s-.1493.067-.1493.149c0 .083.0669.149.1493.149z" fill="#fff"/></g></svg>