<svg width="450" height="450" viewBox="0 0 450 450" fill="none" xmlns="http://www.w3.org/2000/svg">
<mask id="mask0" mask-type="alpha" maskUnits="userSpaceOnUse" x="0" y="0" width="450" height="450">
<rect width="450" height="450" fill="#C4C4C4"/>
</mask>
<g mask="url(#mask0)">
<circle cx="226.495" cy="216.665" r="136.249" stroke="#599AF2" stroke-width="1.08134"/>
<circle cx="226.542" cy="216.665" r="130.302" stroke="#EF6D9C" stroke-width="1.08134" stroke-dasharray="10.81 10.81"/>
<circle cx="226.542" cy="216.666" r="124.355" stroke="#52DEC6" stroke-width="1.08134"/>
<circle opacity="0.3" cx="226.542" cy="216.666" r="90.8329" stroke="#EF6D9C" stroke-width="1.08134"/>
<circle cx="226.542" cy="216.666" r="50.8232" stroke="#82A7FF" stroke-opacity="0.2" stroke-width="1.08134"/>
<path d="M217.784 192.335H250.396L235.972 206.402H202.527L217.784 192.335Z" fill="#56DCBD"/>
<path d="M202.211 207.818H216.187C216.187 207.818 216.187 211.399 218.958 211.399C221.729 211.399 221.921 207.818 221.921 207.818H235.705V240.996H228.456C228.456 240.996 227.854 238.862 225.954 238.862C224.055 238.862 223.543 240.996 223.543 240.996H213.743C213.743 240.996 213.376 238.862 211.353 238.862C209.329 238.862 209.026 240.996 209.026 240.996H202.211V207.818Z" fill="#29328B"/>
<path d="M250.832 193.915L250.872 208.68L243.612 216.732C243.612 216.732 243.35 221.05 245.066 220.299C246.783 219.548 246.764 215.161 246.764 215.161L250.832 210.646V218.29V226.297L236.969 240.321V207.52L250.832 193.915Z" fill="#477BF3"/>
<path d="M142.671 75.3385C159.151 74.7826 172.57 88.4647 171.693 104.932L170.074 135.355C169.28 150.281 156.946 161.976 141.999 161.976H65.917H59.9481H39.4108C36.7897 161.976 34.6648 159.851 34.6648 157.23L40.9209 102.751C42.5096 88.9165 53.9867 78.3293 67.9046 77.8599L142.671 75.3385Z" fill="#82A7FF"/>
<path d="M48.4807 105.958C83.5248 103.103 118.654 104.05 153.614 108.792C154.848 108.962 154.866 105.958 153.614 105.731C118.646 101.174 83.5175 100.397 48.4807 103.407C47.3914 103.407 47.3914 106.241 48.4807 106.071V105.958Z" fill="white"/>
<path d="M49.9433 123.215C85.4611 120.389 121.064 121.331 156.497 126.035C157.748 126.233 157.748 123.215 156.497 123.018C121.058 118.441 85.4546 117.64 49.9433 120.621C48.8393 120.621 48.8209 123.441 49.9433 123.272V123.215Z" fill="white"/>
<path d="M49.9784 138.658C74.0427 139.979 97.7924 137.174 121.82 140.411C123.079 140.572 123.097 137.714 121.82 137.525C97.7554 135.125 74.0057 136.608 49.9784 136.123C49.7476 136.123 49.5263 136.256 49.3632 136.494C49.2 136.732 49.1084 137.054 49.1084 137.39C49.1084 137.726 49.2 138.049 49.3632 138.286C49.5263 138.524 49.7476 138.658 49.9784 138.658Z" fill="white"/>
<path d="M324.782 243.714C308.3 244.267 294.883 230.581 295.764 214.114L297.645 178.939C298.443 164.016 310.776 152.325 325.72 152.325H407.896H414.219H435.997C438.76 152.325 441 154.565 441 157.328L434.222 216.071C432.626 229.901 421.149 240.48 407.235 240.947L324.782 243.714Z" fill="#39429C"/>
<path d="M311.199 183.042C347.788 179.913 384.466 180.951 420.968 186.15C422.257 186.337 422.276 183.042 420.968 182.794C384.458 177.796 347.781 176.945 311.199 180.245C310.061 180.245 310.061 183.353 311.199 183.167V183.042Z" fill="white"/>
<path d="M313.377 200.532C350.439 197.715 387.589 198.654 424.562 203.343C425.868 203.54 425.868 200.532 424.562 200.335C387.583 195.772 350.432 194.974 313.377 197.945C312.225 197.945 312.206 200.757 313.377 200.588V200.532Z" fill="white"/>
<path d="M313.407 217.36C338.339 218.677 362.944 215.881 387.838 219.107C389.142 219.269 389.161 216.419 387.838 216.231C362.906 213.838 338.3 215.316 313.407 214.833C313.168 214.833 312.939 214.966 312.77 215.203C312.601 215.44 312.506 215.761 312.506 216.096C312.506 216.431 312.601 216.753 312.77 216.99C312.939 217.227 313.168 217.36 313.407 217.36Z" fill="white"/>
<g filter="url(#filter0_d)">
<path d="M164.364 109.072C179.892 109.072 192.479 96.4842 192.479 80.9568C192.479 65.4293 179.892 52.8418 164.364 52.8418C148.837 52.8418 136.249 65.4293 136.249 80.9568C136.249 96.4842 148.837 109.072 164.364 109.072Z" fill="#78EED2"/>
</g>
<path fill-rule="evenodd" clip-rule="evenodd" d="M159.927 86.8934C160.717 92.015 162.468 95.2576 164.085 95.2576C165.594 95.2609 167.095 95.0188 168.529 94.5407L168.991 95.9792C162.271 98.2237 154.903 95.6116 151.025 89.6103C147.147 83.609 147.726 75.7142 152.436 70.3604C157.147 65.0067 164.814 63.5283 171.133 66.7558C177.451 69.9833 180.845 77.1122 179.409 84.1382L177.944 83.8289C178.14 82.8669 178.239 81.8872 178.24 80.9049C178.24 79.2743 175.043 77.4983 169.993 76.6877C170.118 77.9857 170.187 79.3914 170.187 80.9049H168.691C168.693 79.4225 168.614 77.9411 168.455 76.4675C165.548 76.1493 162.616 76.1493 159.71 76.4675C159.396 79.4157 159.396 82.3895 159.71 85.3377C161.162 85.4991 162.623 85.5789 164.085 85.5767V87.0902C162.602 87.0902 161.216 87.0199 159.927 86.8934ZM177.943 77.9656L177.944 77.9665V77.9712L177.943 77.9656ZM177.943 77.9656C176.307 76.7009 173.568 75.6235 169.808 75.0894C169.273 71.2752 168.219 68.4965 166.972 66.8377C172.48 68.014 176.783 72.379 177.943 77.9656ZM164.085 66.5378C165.702 66.5378 167.452 69.7804 168.242 74.902C166.954 74.7755 165.568 74.7052 164.085 74.7052C162.602 74.7052 161.206 74.7755 159.927 74.902C160.717 69.7804 162.468 66.5425 164.085 66.5425V66.5378ZM158.361 75.0894C158.887 71.2752 159.95 68.4965 161.197 66.8377L161.193 66.8424C155.687 68.0193 151.386 72.3822 150.225 77.9665C151.861 76.7014 154.6 75.633 158.361 75.0894ZM158.176 76.678C158.051 77.9853 157.982 79.3911 157.982 80.8952C157.982 82.3994 158.051 83.8145 158.176 85.1125C153.126 84.3018 149.929 82.5259 149.929 80.8952C149.929 79.2646 153.122 77.4839 158.176 76.6733V76.678ZM158.361 86.7059C154.6 86.1717 151.861 85.0939 150.225 83.8288C151.383 89.4168 155.688 93.7827 161.197 94.9576C159.95 93.2988 158.897 90.5201 158.361 86.7059Z" fill="#477BF3"/>
<path d="M164.085 95.2576L164.085 95.0413H164.085V95.2576ZM159.927 86.8934L159.948 86.6782L159.671 86.651L159.713 86.9264L159.927 86.8934ZM168.529 94.5407L168.735 94.4746L168.668 94.2664L168.46 94.3355L168.529 94.5407ZM168.991 95.9792L169.059 96.1844L169.262 96.1166L169.197 95.9131L168.991 95.9792ZM151.025 89.6103L151.207 89.4929L151.025 89.6103ZM152.436 70.3604L152.599 70.5033L152.436 70.3604ZM171.133 66.7558L171.034 66.9484L171.133 66.7558ZM179.409 84.1382L179.364 84.3498L179.577 84.3947L179.62 84.1815L179.409 84.1382ZM177.944 83.8289L177.732 83.7857L177.689 83.9961L177.899 84.0405L177.944 83.8289ZM178.24 80.9049L178.456 80.905V80.9049H178.24ZM169.993 76.6877L170.028 76.4742L169.751 76.4298L169.778 76.7084L169.993 76.6877ZM170.187 80.9049V81.1212H170.404V80.9049H170.187ZM168.691 80.9049L168.474 80.9046L168.474 81.1212H168.691V80.9049ZM168.455 76.4675L168.67 76.4442L168.651 76.2714L168.478 76.2525L168.455 76.4675ZM159.71 76.4675L159.686 76.2525L159.513 76.2714L159.495 76.4446L159.71 76.4675ZM159.71 85.3377L159.495 85.3606L159.513 85.5335L159.686 85.5527L159.71 85.3377ZM164.085 85.5767H164.301V85.3601L164.084 85.3604L164.085 85.5767ZM164.085 87.0902V87.3065H164.301V87.0902H164.085ZM177.944 77.9665H178.16V77.8604L178.076 77.7955L177.944 77.9665ZM177.944 77.9712L177.732 78.0152L178.16 77.9712H177.944ZM169.808 75.0894L169.594 75.1195L169.617 75.2807L169.778 75.3036L169.808 75.0894ZM166.972 66.8377L167.017 66.6262L166.451 66.5054L166.799 66.9677L166.972 66.8377ZM168.242 74.902L168.221 75.1172L168.499 75.1445L168.456 74.869L168.242 74.902ZM164.085 66.5378V66.3215H163.868V66.5378H164.085ZM159.927 74.902L159.713 74.869L159.671 75.1447L159.948 75.1172L159.927 74.902ZM164.085 66.5425V66.7588H164.301V66.5425H164.085ZM161.197 66.8377L161.37 66.9677L161.043 66.6859L161.197 66.8377ZM158.361 75.0894L158.392 75.3035L158.553 75.2802L158.575 75.119L158.361 75.0894ZM161.193 66.8424L161.238 67.0539L161.301 67.0403L161.347 66.9942L161.193 66.8424ZM150.225 77.9665L150.013 77.9225L149.894 78.4959L150.358 78.1376L150.225 77.9665ZM158.176 76.678L158.391 76.6985L158.392 76.6883V76.678H158.176ZM158.176 85.1125L158.142 85.326L158.418 85.3704L158.391 85.0918L158.176 85.1125ZM158.176 76.6733H158.392V76.4196L158.142 76.4598L158.176 76.6733ZM150.225 83.8288L150.358 83.6577L149.895 83.2996L150.013 83.8726L150.225 83.8288ZM158.361 86.7059L158.575 86.6758L158.552 86.5146L158.391 86.4917L158.361 86.7059ZM161.197 94.9576L161.152 95.1691L161.718 95.2897L161.37 94.8276L161.197 94.9576ZM164.085 95.0413C163.756 95.0413 163.394 94.8763 163.013 94.5142C162.633 94.1529 162.251 93.6105 161.888 92.898C161.163 91.474 160.533 89.4069 160.14 86.8604L159.713 86.9264C160.11 89.5016 160.751 91.6166 161.503 93.0942C161.879 93.8326 162.287 94.421 162.715 94.8277C163.142 95.2336 163.605 95.4739 164.085 95.4739V95.0413ZM168.46 94.3355C167.048 94.8063 165.571 95.0445 164.085 95.0413L164.084 95.4739C165.617 95.4772 167.141 95.2314 168.597 94.7458L168.46 94.3355ZM169.197 95.9131L168.735 94.4746L168.323 94.6068L168.785 96.0454L169.197 95.9131ZM150.844 89.7277C154.775 95.8109 162.245 98.4604 169.059 96.1844L168.922 95.7741C162.298 97.9869 155.032 95.4123 151.207 89.4929L150.844 89.7277ZM152.274 70.2176C147.5 75.6442 146.913 83.6453 150.844 89.7277L151.207 89.4929C147.382 83.5727 147.953 75.7842 152.599 70.5033L152.274 70.2176ZM171.231 66.5632C164.824 63.2904 157.049 64.7901 152.274 70.2176L152.599 70.5033C157.244 65.2232 164.805 63.7663 171.034 66.9484L171.231 66.5632ZM179.62 84.1815C181.076 77.0618 177.637 69.8356 171.231 66.5632L171.034 66.9484C177.265 70.1311 180.614 77.1626 179.197 84.0948L179.62 84.1815ZM177.899 84.0405L179.364 84.3498L179.453 83.9265L177.989 83.6173L177.899 84.0405ZM178.023 80.9048C178.023 81.8727 177.925 82.8379 177.732 83.7857L178.156 83.8721C178.355 82.896 178.456 81.9018 178.456 80.905L178.023 80.9048ZM169.959 76.9012C172.469 77.3042 174.506 77.9454 175.91 78.6804C176.612 79.0481 177.146 79.4347 177.503 79.8191C177.86 80.2041 178.023 80.5708 178.023 80.9049H178.456C178.456 80.4238 178.22 79.957 177.82 79.525C177.419 79.0925 176.839 78.6787 176.11 78.2972C174.653 77.5339 172.567 76.8818 170.028 76.4742L169.959 76.9012ZM170.404 80.9049C170.404 79.3848 170.334 77.9722 170.209 76.667L169.778 76.7084C169.902 77.9992 169.971 79.398 169.971 80.9049H170.404ZM168.691 81.1212H170.187V80.6887H168.691V81.1212ZM168.24 76.4907C168.398 77.9565 168.476 79.43 168.474 80.9046L168.907 80.9053C168.909 79.415 168.83 77.9257 168.67 76.4442L168.24 76.4907ZM159.733 76.6824C162.624 76.366 165.54 76.366 168.431 76.6824L168.478 76.2525C165.556 75.9326 162.608 75.9326 159.686 76.2525L159.733 76.6824ZM159.925 85.3148C159.613 82.3819 159.613 79.4233 159.925 76.4903L159.495 76.4446C159.179 79.408 159.179 82.3972 159.495 85.3606L159.925 85.3148ZM164.084 85.3604C162.631 85.3626 161.178 85.2833 159.733 85.1228L159.686 85.5527C161.147 85.715 162.615 85.7952 164.085 85.793L164.084 85.3604ZM164.301 87.0902V85.5767H163.868V87.0902H164.301ZM159.906 87.1087C161.202 87.2359 162.595 87.3065 164.085 87.3065V86.874C162.608 86.874 161.23 86.804 159.948 86.6782L159.906 87.1087ZM178.076 77.7955L178.075 77.7946L177.81 78.1367L177.812 78.1376L178.076 77.7955ZM178.16 77.9712V77.9665H177.728V77.9712H178.16ZM177.731 78.0096L177.732 78.0152L178.156 77.9272L178.155 77.9217L177.731 78.0096ZM169.778 75.3036C173.517 75.8347 176.215 76.9033 177.811 78.1367L178.075 77.7946C176.399 76.4984 173.619 75.4123 169.839 74.8753L169.778 75.3036ZM166.799 66.9677C168.016 68.5859 169.061 71.3243 169.594 75.1195L170.023 75.0594C169.484 71.2261 168.423 68.4071 167.145 66.7077L166.799 66.9677ZM178.155 77.9217C176.978 72.2526 172.611 67.8207 167.017 66.6262L166.927 67.0492C172.35 68.2073 176.589 72.5055 177.731 78.0096L178.155 77.9217ZM168.456 74.869C168.059 72.2938 167.419 70.1788 166.666 68.7012C166.291 67.9628 165.882 67.3744 165.454 66.9678C165.027 66.5618 164.564 66.3215 164.085 66.3215V66.7541C164.414 66.7541 164.776 66.9191 165.156 67.2812C165.536 67.6426 165.918 68.1849 166.281 68.8974C167.006 70.3215 167.636 72.3886 168.029 74.935L168.456 74.869ZM164.085 74.9215C165.561 74.9215 166.94 74.9914 168.221 75.1172L168.264 74.6868C166.967 74.5595 165.574 74.4889 164.085 74.4889V74.9215ZM159.948 75.1172C161.22 74.9914 162.608 74.9215 164.085 74.9215V74.4889C162.595 74.4889 161.193 74.5595 159.906 74.6868L159.948 75.1172ZM164.085 66.3262C163.605 66.3262 163.142 66.5661 162.715 66.9716C162.287 67.3779 161.879 67.9657 161.503 68.7035C160.751 70.18 160.11 72.2938 159.713 74.869L160.141 74.935C160.533 72.3886 161.163 70.3227 161.888 68.8998C162.251 68.1879 162.633 67.6462 163.013 67.2853C163.394 66.9236 163.756 66.7588 164.085 66.7588V66.3262ZM163.868 66.5378V66.5425H164.301V66.5378H163.868ZM161.024 66.7077C159.747 68.4069 158.676 71.2258 158.146 75.0599L158.575 75.119C159.099 71.3246 160.153 68.5861 161.37 66.9677L161.024 66.7077ZM161.347 66.9942L161.351 66.9895L161.043 66.6859L161.039 66.6906L161.347 66.9942ZM150.437 78.0105C151.58 72.5087 155.817 68.2126 161.238 67.0539L161.147 66.6309C155.557 67.826 151.191 72.2557 150.013 77.9225L150.437 78.0105ZM158.33 74.8754C154.549 75.4218 151.769 76.4988 150.093 77.7955L150.358 78.1376C151.952 76.9039 154.651 75.8442 158.392 75.3035L158.33 74.8754ZM158.198 80.8952C158.198 79.3977 158.267 77.9988 158.391 76.6985L157.961 76.6574C157.835 77.9718 157.766 79.3844 157.766 80.8952H158.198ZM158.391 85.0918C158.267 83.801 158.198 82.3928 158.198 80.8952H157.766C157.766 82.4059 157.835 83.828 157.961 85.1332L158.391 85.0918ZM149.713 80.8952C149.713 81.3764 149.949 81.8432 150.349 82.2751C150.75 82.7077 151.33 83.1215 152.059 83.5029C153.516 84.2662 155.602 84.9183 158.142 85.326L158.21 84.8989C155.7 84.496 153.663 83.8548 152.259 83.1198C151.557 82.7521 151.023 82.3655 150.667 81.9811C150.31 81.5961 150.146 81.2294 150.146 80.8952H149.713ZM158.142 76.4598C155.6 76.8675 153.514 77.5207 152.057 78.2852C151.329 78.6673 150.749 79.0817 150.348 79.5148C149.949 79.9471 149.713 80.4142 149.713 80.8952H150.146C150.146 80.5609 150.309 80.1939 150.666 79.8085C151.022 79.4237 151.556 79.0365 152.258 78.6683C153.661 77.9321 155.698 77.2898 158.21 76.8868L158.142 76.4598ZM158.392 76.678V76.6733H157.96V76.678H158.392ZM150.093 83.9998C151.769 85.2963 154.549 86.3829 158.33 86.92L158.391 86.4917C154.651 85.9605 151.952 84.8915 150.358 83.6577L150.093 83.9998ZM161.242 94.7461C155.818 93.5894 151.578 89.2904 150.437 83.7849L150.013 83.8726C151.189 89.5433 155.557 93.9761 161.152 95.1691L161.242 94.7461ZM158.147 86.7359C158.685 90.5692 159.747 93.3882 161.024 95.0876L161.37 94.8276C160.153 93.2094 159.108 90.471 158.575 86.6758L158.147 86.7359Z" fill="#477BF3"/>
<path fill-rule="evenodd" clip-rule="evenodd" d="M167.961 83.3457L171.486 96.5832L173.832 90.5291L180.841 89.5076L167.961 83.3457V83.3457Z" stroke="#477BF3" stroke-width="2.16269"/>
<g filter="url(#filter1_d)">
<path d="M409.87 272.158C425.42 272.158 438.026 259.615 438.026 244.142C438.026 228.669 425.42 216.125 409.87 216.125C394.32 216.125 381.715 228.669 381.715 244.142C381.715 259.615 394.32 272.158 409.87 272.158Z" fill="#78EED2"/>
</g>
<path fill-rule="evenodd" clip-rule="evenodd" d="M416.719 247.22C416.355 247.22 416.06 247.517 416.06 247.883V252.458C416.06 254.287 414.582 255.774 412.765 255.774H405.649C405.285 255.774 404.99 256.071 404.99 256.437L404.989 257.755L403.416 256.172C403.314 255.937 403.081 255.774 402.811 255.774H398.529C396.712 255.774 395.233 254.287 395.233 252.458V242.246C395.233 240.418 396.712 238.931 398.529 238.931H405.185C405.549 238.931 405.844 238.634 405.844 238.268C405.844 237.901 405.549 237.604 405.185 237.604H398.529C395.985 237.604 393.915 239.687 393.915 242.246V252.458C393.915 255.018 395.985 257.1 398.529 257.1H402.474L405.181 259.824C405.307 259.951 405.475 260.018 405.647 260.018C405.732 260.018 405.817 260.001 405.899 259.967C406.145 259.865 406.306 259.623 406.306 259.355L406.307 257.1H412.765C415.309 257.1 417.378 255.018 417.378 252.458V247.883C417.378 247.517 417.083 247.22 416.719 247.22Z" fill="#477BF3" stroke="#477BF3" stroke-width="0.756941"/>
<path fill-rule="evenodd" clip-rule="evenodd" d="M416.551 226.398H418.205C423.442 226.398 427.702 230.691 427.702 235.968C427.702 237.496 427.355 238.957 426.67 240.31C426.067 241.5 425.208 242.567 424.174 243.411V247.22C424.174 247.486 424.014 247.726 423.77 247.828C423.689 247.862 423.604 247.878 423.52 247.878C423.35 247.878 423.183 247.811 423.058 247.685L420.615 245.225C419.831 245.432 419.022 245.537 418.205 245.537H416.551C411.315 245.537 407.054 241.244 407.054 235.968C407.054 230.691 411.315 226.398 416.551 226.398ZM422.867 243.089C422.867 242.883 422.963 242.688 423.127 242.564C425.204 240.987 426.395 238.583 426.395 235.967C426.395 231.417 422.721 227.715 418.205 227.715H416.551C412.035 227.715 408.361 231.417 408.361 235.967C408.361 240.518 412.035 244.22 416.551 244.22H418.205C419.026 244.22 419.836 244.098 420.614 243.857C420.677 243.837 420.742 243.828 420.806 243.828C420.976 243.828 421.143 243.895 421.268 244.02L422.867 245.631V243.089Z" fill="#477BF3"/>
<path d="M426.67 240.31L426.332 240.139L426.332 240.139L426.67 240.31ZM424.174 243.411L423.934 243.117L423.795 243.231V243.411H424.174ZM423.77 247.828L423.624 247.479L423.624 247.479L423.77 247.828ZM423.058 247.685L422.79 247.952L422.79 247.952L423.058 247.685ZM420.615 245.225L420.884 244.959L420.73 244.804L420.519 244.859L420.615 245.225ZM423.127 242.564L422.898 242.262L422.898 242.262L423.127 242.564ZM420.614 243.857L420.726 244.218L420.726 244.218L420.614 243.857ZM421.268 244.02L421.536 243.754L421.536 243.754L421.268 244.02ZM422.867 245.631L422.598 245.897L423.245 246.549V245.631H422.867ZM418.205 226.02H416.551V226.777H418.205V226.02ZM428.08 235.968C428.08 230.485 423.653 226.02 418.205 226.02V226.777C423.23 226.777 427.323 230.897 427.323 235.968H428.08ZM427.008 240.48C427.719 239.074 428.08 237.555 428.08 235.968H427.323C427.323 237.437 426.99 238.839 426.332 240.139L427.008 240.48ZM424.413 243.704C425.488 242.827 426.381 241.719 427.008 240.48L426.332 240.139C425.753 241.282 424.928 242.307 423.934 243.117L424.413 243.704ZM424.552 247.22V243.411H423.795V247.22H424.552ZM423.916 248.177C424.302 248.016 424.552 247.637 424.552 247.22H423.795C423.795 247.334 423.726 247.436 423.624 247.479L423.916 248.177ZM423.52 248.256C423.654 248.256 423.788 248.23 423.916 248.177L423.624 247.479C423.591 247.493 423.555 247.499 423.52 247.499V248.256ZM422.79 247.952C422.987 248.15 423.251 248.256 423.52 248.256V247.499C423.449 247.499 423.38 247.472 423.327 247.418L422.79 247.952ZM420.347 245.492L422.79 247.952L423.327 247.419L420.884 244.959L420.347 245.492ZM418.205 245.915C419.055 245.915 419.896 245.806 420.712 245.591L420.519 244.859C419.766 245.058 418.99 245.158 418.205 245.158V245.915ZM416.551 245.915H418.205V245.158H416.551V245.915ZM406.676 235.968C406.676 241.45 411.103 245.915 416.551 245.915V245.158C411.526 245.158 407.433 241.038 407.433 235.968H406.676ZM416.551 226.02C411.103 226.02 406.676 230.485 406.676 235.968H407.433C407.433 230.897 411.526 226.777 416.551 226.777V226.02ZM422.898 242.262C422.64 242.458 422.488 242.765 422.488 243.089H423.245C423.245 243 423.287 242.917 423.356 242.865L422.898 242.262ZM426.017 235.967C426.017 238.465 424.88 240.758 422.898 242.262L423.356 242.865C425.527 241.217 426.774 238.701 426.774 235.967H426.017ZM418.205 228.094C422.509 228.094 426.017 231.623 426.017 235.967H426.774C426.774 231.211 422.933 227.337 418.205 227.337V228.094ZM416.551 228.094H418.205V227.337H416.551V228.094ZM408.74 235.967C408.74 231.623 412.247 228.094 416.551 228.094V227.337C411.824 227.337 407.983 231.211 407.983 235.967H408.74ZM416.551 243.841C412.247 243.841 408.74 240.311 408.74 235.967H407.983C407.983 240.724 411.823 244.598 416.551 244.598V243.841ZM418.205 243.841H416.551V244.598H418.205V243.841ZM420.502 243.495C419.761 243.725 418.988 243.841 418.205 243.841V244.598C419.063 244.598 419.912 244.471 420.726 244.218L420.502 243.495ZM420.806 243.449C420.704 243.449 420.602 243.464 420.502 243.495L420.726 244.218C420.752 244.21 420.779 244.206 420.806 244.206V243.449ZM421.536 243.754C421.34 243.556 421.076 243.449 420.806 243.449V244.206C420.877 244.206 420.947 244.234 420.999 244.287L421.536 243.754ZM423.135 245.364L421.536 243.754L420.999 244.287L422.598 245.897L423.135 245.364ZM422.488 243.089V245.631H423.245V243.089H422.488Z" fill="#477BF3"/>
<path fill-rule="evenodd" clip-rule="evenodd" d="M407.546 246.945H398.116C397.869 246.945 397.669 247.154 397.669 247.412C397.669 247.67 397.869 247.879 398.116 247.879H407.546C407.793 247.879 407.993 247.67 407.993 247.412C407.993 247.154 407.793 246.945 407.546 246.945Z" fill="#477BF3" stroke="#477BF3" stroke-width="0.540672"/>
<path fill-rule="evenodd" clip-rule="evenodd" d="M404.725 243.208H398.121C397.872 243.208 397.669 243.417 397.669 243.675C397.669 243.933 397.872 244.142 398.121 244.142H404.725C404.975 244.142 405.177 243.933 405.177 243.675C405.177 243.417 404.975 243.208 404.725 243.208Z" fill="#477BF3" stroke="#477BF3" stroke-width="0.540672"/>
<path d="M163.985 297.402C147.504 296.846 134.085 310.528 134.962 326.995L136.046 347.358C136.84 362.284 149.174 373.979 164.121 373.979H228.431H233.716H251.901C254.221 373.979 256.102 372.098 256.102 369.777L250.88 324.313C249.291 310.478 237.814 299.891 223.897 299.422L163.985 297.402Z" fill="#599AF2"/>
<path d="M145.604 324.277C176.386 321.994 207.243 322.751 237.951 326.544C239.035 326.68 239.051 324.277 237.951 324.096C207.236 320.45 176.38 319.829 145.604 322.236C144.647 322.236 144.647 324.504 145.604 324.368V324.277Z" fill="white"/>
<path d="M147.066 339.53C178.321 336.704 209.652 337.646 240.833 342.35C241.934 342.547 241.934 339.53 240.833 339.332C209.647 334.756 178.316 333.955 147.066 336.935C146.094 336.935 146.078 339.755 147.066 339.586V339.53Z" fill="white"/>
<path d="M147.099 353.535C168.332 354.856 189.288 352.051 210.488 355.287C211.599 355.449 211.615 352.591 210.488 352.402C189.255 350.002 168.299 351.485 147.099 351C146.895 351 146.7 351.133 146.556 351.371C146.412 351.609 146.331 351.931 146.331 352.267C146.331 352.603 146.412 352.926 146.556 353.163C146.7 353.401 146.895 353.535 147.099 353.535Z" fill="white"/>
<g filter="url(#filter2_d)">
<path d="M130.572 335.256C145.737 335.256 158.03 323.112 158.03 308.131C158.03 293.15 145.737 281.006 130.572 281.006C115.407 281.006 103.113 293.15 103.113 308.131C103.113 323.112 115.407 335.256 130.572 335.256Z" fill="#78EED2"/>
</g>
<path fill-rule="evenodd" clip-rule="evenodd" d="M128.889 323.255H126.63C124.831 323.255 123.368 321.82 123.368 320.051V307.473H119.353C117.966 307.473 116.843 306.37 116.843 305.005V296.133C116.843 294.769 117.966 293.664 119.353 293.664H138.425C139.812 293.664 140.935 294.767 140.935 296.133V305.005C140.935 306.368 139.812 307.473 138.425 307.473H124.372V313.885H136.92V312.409C136.92 311.592 137.593 310.925 138.421 310.925H146.461C147.291 310.925 147.962 311.592 147.962 312.409V316.346C147.962 317.164 147.289 317.83 146.461 317.83H138.421C137.591 317.83 136.92 317.164 136.92 316.346V314.871H124.372V320.051C124.372 321.275 125.385 322.269 126.63 322.269H128.889V320.793C128.889 319.974 129.566 319.31 130.399 319.31H134.406C135.24 319.31 135.916 319.975 135.916 320.793V324.73C135.916 325.549 135.239 326.214 134.406 326.214H130.399C129.565 326.214 128.889 325.549 128.889 324.73V323.255ZM129.893 320.792V324.729C129.893 325.003 130.12 325.226 130.399 325.226H134.406C134.684 325.226 134.912 325.003 134.912 324.729V320.792C134.912 320.518 134.685 320.295 134.406 320.295H130.399C130.12 320.295 129.893 320.518 129.893 320.792ZM137.924 312.409V316.347C137.924 316.621 138.148 316.844 138.421 316.844H146.461C146.733 316.844 146.958 316.621 146.958 316.347V312.409C146.958 312.135 146.734 311.912 146.461 311.912H138.421C138.149 311.912 137.924 312.135 137.924 312.409ZM117.846 296.132V305.004C117.846 305.824 118.52 306.486 119.353 306.486H138.425C139.257 306.486 139.931 305.823 139.931 305.004V296.132C139.931 295.311 139.258 294.65 138.425 294.65H119.353C118.52 294.65 117.846 295.313 117.846 296.132ZM123.869 303.528C122.206 303.528 120.858 302.203 120.858 300.569C120.858 298.934 122.206 297.61 123.869 297.61C125.533 297.61 126.881 298.934 126.881 300.569C126.881 302.203 125.533 303.528 123.869 303.528ZM123.87 302.541C124.978 302.541 125.877 301.658 125.877 300.569C125.877 299.479 124.978 298.596 123.87 298.596C122.761 298.596 121.862 299.479 121.862 300.569C121.862 301.658 122.761 302.541 123.87 302.541ZM129.391 299.089C129.114 299.089 128.889 298.868 128.889 298.596C128.889 298.324 129.114 298.103 129.391 298.103H136.418C136.695 298.103 136.92 298.324 136.92 298.596C136.92 298.868 136.695 299.089 136.418 299.089H129.391ZM129.391 303.035C129.114 303.035 128.889 302.815 128.889 302.542C128.889 302.27 129.114 302.049 129.391 302.049H133.406C133.683 302.049 133.908 302.27 133.908 302.542C133.908 302.815 133.683 303.035 133.406 303.035H129.391Z" fill="#477BF3"/>
<path d="M128.889 323.255H129.267V322.876H128.889V323.255ZM123.368 307.473H123.746V307.095H123.368V307.473ZM124.372 307.473V307.095H123.993V307.473H124.372ZM124.372 313.885H123.993V314.263H124.372V313.885ZM136.92 313.885V314.263H137.298V313.885H136.92ZM136.92 314.871H137.298V314.492H136.92V314.871ZM124.372 314.871V314.492H123.993V314.871H124.372ZM128.889 322.269V322.647H129.267V322.269H128.889ZM128.889 322.876H126.63V323.633H128.889V322.876ZM126.63 322.876C125.033 322.876 123.746 321.604 123.746 320.051H122.989C122.989 322.035 124.628 323.633 126.63 323.633V322.876ZM123.746 320.051V307.473H122.989V320.051H123.746ZM123.368 307.095H119.353V307.852H123.368V307.095ZM119.353 307.095C118.168 307.095 117.221 306.155 117.221 305.005H116.464C116.464 306.585 117.763 307.852 119.353 307.852V307.095ZM117.221 305.005V296.133H116.464V305.005H117.221ZM117.221 296.133C117.221 294.984 118.169 294.043 119.353 294.043V293.286C117.763 293.286 116.464 294.554 116.464 296.133H117.221ZM119.353 294.043H138.425V293.286H119.353V294.043ZM138.425 294.043C139.609 294.043 140.557 294.982 140.557 296.133H141.314C141.314 294.552 140.015 293.286 138.425 293.286V294.043ZM140.557 296.133V305.005H141.314V296.133H140.557ZM140.557 305.005C140.557 306.153 139.609 307.095 138.425 307.095V307.852C140.015 307.852 141.314 306.583 141.314 305.005H140.557ZM138.425 307.095H124.372V307.852H138.425V307.095ZM123.993 307.473V313.885H124.75V307.473H123.993ZM124.372 314.263H136.92V313.506H124.372V314.263ZM137.298 313.885V312.409H136.541V313.885H137.298ZM137.298 312.409C137.298 311.805 137.798 311.304 138.421 311.304V310.547C137.389 310.547 136.541 311.378 136.541 312.409H137.298ZM138.421 311.304H146.461V310.547H138.421V311.304ZM146.461 311.304C147.086 311.304 147.584 311.804 147.584 312.409H148.341C148.341 311.379 147.496 310.547 146.461 310.547V311.304ZM147.584 312.409V316.346H148.341V312.409H147.584ZM147.584 316.346C147.584 316.951 147.084 317.451 146.461 317.451V318.208C147.494 318.208 148.341 317.377 148.341 316.346H147.584ZM146.461 317.451H138.421V318.208H146.461V317.451ZM138.421 317.451C137.797 317.451 137.298 316.951 137.298 316.346H136.541C136.541 317.376 137.386 318.208 138.421 318.208V317.451ZM137.298 316.346V314.871H136.541V316.346H137.298ZM136.92 314.492H124.372V315.249H136.92V314.492ZM123.993 314.871V320.051H124.75V314.871H123.993ZM123.993 320.051C123.993 321.49 125.182 322.647 126.63 322.647V321.89C125.587 321.89 124.75 321.059 124.75 320.051H123.993ZM126.63 322.647H128.889V321.89H126.63V322.647ZM129.267 322.269V320.793H128.51V322.269H129.267ZM129.267 320.793C129.267 320.19 129.769 319.688 130.399 319.688V318.931C129.363 318.931 128.51 319.759 128.51 320.793H129.267ZM130.399 319.688H134.406V318.931H130.399V319.688ZM134.406 319.688C135.037 319.688 135.538 320.19 135.538 320.793H136.294C136.294 319.76 135.442 318.931 134.406 318.931V319.688ZM135.538 320.793V324.73H136.294V320.793H135.538ZM135.538 324.73C135.538 325.334 135.036 325.836 134.406 325.836V326.593C135.442 326.593 136.294 325.765 136.294 324.73H135.538ZM134.406 325.836H130.399V326.593H134.406V325.836ZM130.399 325.836C129.768 325.836 129.267 325.334 129.267 324.73H128.51C128.51 325.764 129.363 326.593 130.399 326.593V325.836ZM129.267 324.73V323.255H128.51V324.73H129.267ZM129.514 320.792V324.729H130.271V320.792H129.514ZM129.514 324.729C129.514 325.218 129.917 325.605 130.399 325.605V324.848C130.323 324.848 130.271 324.788 130.271 324.729H129.514ZM130.399 325.605H134.406V324.848H130.399V325.605ZM134.406 325.605C134.887 325.605 135.29 325.219 135.29 324.729H134.533C134.533 324.788 134.482 324.848 134.406 324.848V325.605ZM135.29 324.729V320.792H134.533V324.729H135.29ZM135.29 320.792C135.29 320.303 134.887 319.916 134.406 319.916V320.673C134.482 320.673 134.533 320.733 134.533 320.792H135.29ZM134.406 319.916H130.399V320.673H134.406V319.916ZM130.399 319.916C129.917 319.916 129.514 320.302 129.514 320.792H130.271C130.271 320.733 130.323 320.673 130.399 320.673V319.916ZM137.545 312.409V316.347H138.302V312.409H137.545ZM137.545 316.347C137.545 316.831 137.94 317.222 138.421 317.222V316.465C138.356 316.465 138.302 316.412 138.302 316.347H137.545ZM138.421 317.222H146.461V316.465H138.421V317.222ZM146.461 317.222C146.94 317.222 147.337 316.831 147.337 316.347H146.58C146.58 316.411 146.525 316.465 146.461 316.465V317.222ZM147.337 316.347V312.409H146.58V316.347H147.337ZM147.337 312.409C147.337 311.925 146.942 311.534 146.461 311.534V312.291C146.526 312.291 146.58 312.344 146.58 312.409H147.337ZM146.461 311.534H138.421V312.291H146.461V311.534ZM138.421 311.534C137.941 311.534 137.545 311.925 137.545 312.409H138.302C138.302 312.345 138.357 312.291 138.421 312.291V311.534ZM117.468 296.132V305.004H118.225V296.132H117.468ZM117.468 305.004C117.468 306.039 118.317 306.864 119.353 306.864V306.107C118.723 306.107 118.225 305.609 118.225 305.004H117.468ZM119.353 306.864H138.425V306.107H119.353V306.864ZM138.425 306.864C139.461 306.864 140.31 306.038 140.31 305.004H139.553C139.553 305.608 139.054 306.107 138.425 306.107V306.864ZM140.31 305.004V296.132H139.553V305.004H140.31ZM140.31 296.132C140.31 295.096 139.461 294.271 138.425 294.271V295.028C139.055 295.028 139.553 295.526 139.553 296.132H140.31ZM138.425 294.271H119.353V295.028H138.425V294.271ZM119.353 294.271C118.317 294.271 117.468 295.098 117.468 296.132H118.225C118.225 295.528 118.724 295.028 119.353 295.028V294.271ZM123.869 303.149C122.409 303.149 121.236 301.988 121.236 300.569H120.479C120.479 302.418 122.003 303.906 123.869 303.906V303.149ZM121.236 300.569C121.236 299.15 122.409 297.988 123.869 297.988V297.231C122.003 297.231 120.479 298.719 120.479 300.569H121.236ZM123.869 297.988C125.33 297.988 126.503 299.15 126.503 300.569H127.259C127.259 298.719 125.735 297.231 123.869 297.231V297.988ZM126.503 300.569C126.503 301.988 125.33 303.149 123.869 303.149V303.906C125.735 303.906 127.259 302.418 127.259 300.569H126.503ZM123.87 302.92C125.181 302.92 126.256 301.873 126.256 300.569H125.499C125.499 301.443 124.776 302.163 123.87 302.163V302.92ZM126.256 300.569C126.256 299.264 125.181 298.217 123.87 298.217V298.974C124.776 298.974 125.499 299.694 125.499 300.569H126.256ZM123.87 298.217C122.558 298.217 121.483 299.264 121.483 300.569H122.24C122.24 299.694 122.963 298.974 123.87 298.974V298.217ZM121.483 300.569C121.483 301.873 122.558 302.92 123.87 302.92V302.163C122.963 302.163 122.24 301.443 122.24 300.569H121.483ZM129.391 298.711C129.316 298.711 129.267 298.653 129.267 298.596H128.51C128.51 299.084 128.911 299.468 129.391 299.468V298.711ZM129.267 298.596C129.267 298.539 129.316 298.481 129.391 298.481V297.724C128.911 297.724 128.51 298.108 128.51 298.596H129.267ZM129.391 298.481H136.418V297.724H129.391V298.481ZM136.418 298.481C136.492 298.481 136.541 298.539 136.541 298.596H137.298C137.298 298.108 136.898 297.724 136.418 297.724V298.481ZM136.541 298.596C136.541 298.653 136.492 298.711 136.418 298.711V299.468C136.898 299.468 137.298 299.084 137.298 298.596H136.541ZM136.418 298.711H129.391V299.468H136.418V298.711ZM129.391 302.657C129.316 302.657 129.267 302.599 129.267 302.542H128.51C128.51 303.03 128.911 303.414 129.391 303.414V302.657ZM129.267 302.542C129.267 302.485 129.316 302.428 129.391 302.428V301.671C128.911 301.671 128.51 302.055 128.51 302.542H129.267ZM129.391 302.428H133.406V301.671H129.391V302.428ZM133.406 302.428C133.481 302.428 133.53 302.485 133.53 302.542H134.287C134.287 302.055 133.886 301.671 133.406 301.671V302.428ZM133.53 302.542C133.53 302.599 133.481 302.657 133.406 302.657V303.414C133.886 303.414 134.287 303.03 134.287 302.542H133.53ZM133.406 302.657H129.391V303.414H133.406V302.657Z" fill="#477BF3"/>
</g>
<defs>
<filter id="filter0_d" x="114.623" y="43.1097" width="99.4837" height="99.4837" filterUnits="userSpaceOnUse" color-interpolation-filters="sRGB">
<feFlood flood-opacity="0" result="BackgroundImageFix"/>
<feColorMatrix in="SourceAlpha" type="matrix" values="0 0 0 0 0 0 0 0 0 0 0 0 0 0 0 0 0 0 127 0"/>
<feOffset dy="11.8948"/>
<feGaussianBlur stdDeviation="10.8134"/>
<feColorMatrix type="matrix" values="0 0 0 0 0.0196078 0 0 0 0 0.0431373 0 0 0 0 0.215686 0 0 0 0.07 0"/>
<feBlend mode="normal" in2="BackgroundImageFix" result="effect1_dropShadow"/>
<feBlend mode="normal" in="SourceGraphic" in2="effect1_dropShadow" result="shape"/>
</filter>
<filter id="filter1_d" x="360.088" y="206.393" width="99.5653" height="99.2873" filterUnits="userSpaceOnUse" color-interpolation-filters="sRGB">
<feFlood flood-opacity="0" result="BackgroundImageFix"/>
<feColorMatrix in="SourceAlpha" type="matrix" values="0 0 0 0 0 0 0 0 0 0 0 0 0 0 0 0 0 0 127 0"/>
<feOffset dy="11.8948"/>
<feGaussianBlur stdDeviation="10.8134"/>
<feColorMatrix type="matrix" values="0 0 0 0 0.0196078 0 0 0 0 0.0431373 0 0 0 0 0.215686 0 0 0 0.07 0"/>
<feBlend mode="normal" in2="BackgroundImageFix" result="effect1_dropShadow"/>
<feBlend mode="normal" in="SourceGraphic" in2="effect1_dropShadow" result="shape"/>
</filter>
<filter id="filter2_d" x="81.4864" y="271.274" width="98.1708" height="97.5037" filterUnits="userSpaceOnUse" color-interpolation-filters="sRGB">
<feFlood flood-opacity="0" result="BackgroundImageFix"/>
<feColorMatrix in="SourceAlpha" type="matrix" values="0 0 0 0 0 0 0 0 0 0 0 0 0 0 0 0 0 0 127 0"/>
<feOffset dy="11.8948"/>
<feGaussianBlur stdDeviation="10.8134"/>
<feColorMatrix type="matrix" values="0 0 0 0 0.0196078 0 0 0 0 0.0431373 0 0 0 0 0.215686 0 0 0 0.07 0"/>
<feBlend mode="normal" in2="BackgroundImageFix" result="effect1_dropShadow"/>
<feBlend mode="normal" in="SourceGraphic" in2="effect1_dropShadow" result="shape"/>
</filter>
</defs>
</svg>
