<svg width="292" height="220" viewBox="0 0 292 220" fill="none" xmlns="http://www.w3.org/2000/svg">
<path d="M243.986 185.975V196.797H25.5781V57.0947H34.4325" stroke="#757ED3" stroke-width="1.91757"/>
<path d="M214.563 98.4141H70.5317V109.039H214.563V98.4141Z" fill="#EF6D9C"/>
<path d="M170.881 115.336H70.5317V124.584H170.881V115.336Z" fill="#EF6D9C"/>
<path d="M214.348 115.336H176.373V124.584H214.348V115.336Z" fill="#599AF2"/>
<path d="M89.6178 131.077H70.5317V140.325H89.6178V131.077Z" fill="#52DEC6"/>
<path d="M213.603 145.243H194.517V154.491H213.603V145.243Z" fill="#52DEC6"/>
<path d="M113.335 131.077H94.2485V140.325H113.335V131.077Z" fill="#599AF2"/>
<path d="M138.716 131.077H119.63V140.325H138.716V131.077Z" fill="#599AF2"/>
<path d="M213.882 131.077H144.621V140.325H213.882V131.077Z" fill="#EF6D9C"/>
<rect x="34.4065" y="50.1814" width="220.425" height="135.817" stroke="#39429C" stroke-width="1.91757"/>
<rect x="34.4065" y="71.8269" width="220.425" height="114.173" stroke="#39429C" stroke-width="1.91757"/>
<circle cx="48.2058" cy="60.0462" r="2.95146" fill="#52DEC6"/>
<circle cx="60.0105" cy="60.0462" r="2.95146" fill="#599AF2"/>
<circle cx="247.921" cy="53.1562" r="29.5146" fill="#39429C"/>
<path d="M242.965 39.3828H261.426L253.261 47.3465H234.328L242.965 39.3828Z" fill="#56DCBD"/>
<path d="M234.148 48.1494H242.06C242.06 48.1494 242.06 50.1767 243.628 50.1767C245.197 50.1767 245.306 48.1494 245.306 48.1494H253.109V66.9315H249.006C249.006 66.9315 248.664 65.7233 247.589 65.7233C246.514 65.7233 246.224 66.9315 246.224 66.9315H240.676C240.676 66.9315 240.468 65.7233 239.323 65.7233C238.177 65.7233 238.006 66.9315 238.006 66.9315H234.148V48.1494Z" fill="#E1EAFF"/>
<path d="M261.672 40.2764L261.695 48.6351L257.585 53.1935C257.585 53.1935 257.437 55.6375 258.408 55.2124C259.38 54.7873 259.369 52.3038 259.369 52.3038L261.672 49.7476V54.0753V58.6081L253.824 66.5472V47.9785L261.672 40.2764Z" fill="#477BF3"/>
<path d="M281.371 21.6744C282.087 20.1987 284.662 16.9521 289.242 15.7715" stroke="#56DCBD" stroke-width="3.83513" stroke-linecap="round"/>
<path d="M236.115 11.8382C235.897 9.99353 235.678 6.91909 234.148 2" stroke="#56DCBD" stroke-width="3.83513" stroke-linecap="round"/>
<path d="M259.727 11.8382C260.164 9.99353 260.601 6.91909 263.662 2" stroke="#56DCBD" stroke-width="3.83513" stroke-linecap="round"/>
<path d="M283.338 51.1914C284.322 56.7664 283.338 70.4743 271.532 80.706" stroke="#B0B5E4" stroke-width="1.91757" stroke-linecap="round"/>
<path d="M289.052 57.0957C289.692 61.184 289.052 71.2365 281.369 78.7397" stroke="#B0B5E4" stroke-width="1.91757" stroke-linecap="round"/>
<path d="M22.3111 216.882C17.8785 213.36 9.52702 202.446 11.5819 186.959" stroke="#B0B5E4" stroke-width="1.91757" stroke-linecap="round"/>
<path d="M15.8816 214.866C12.6918 212.23 6.50661 204.28 7.28383 193.569" stroke="#B0B5E4" stroke-width="1.91757" stroke-linecap="round"/>
</svg>
