<svg width="45" height="45" viewBox="0 0 45 45" fill="none" xmlns="http://www.w3.org/2000/svg">
<g id="biig logo">
<g id="Group 3">
<path id="Rectangle" d="M14.4015 0H44.5595L31.2208 13.0093H0.292236L14.4015 0Z" fill="#56DCBD"/>
<path id="Rectangle_2" d="M0 14.3184H12.9245C12.9245 14.3184 12.9245 17.6301 15.487 17.6301C18.0496 17.6301 18.2271 14.3184 18.2271 14.3184H30.9741V45.0002H24.2708C24.2708 45.0002 23.7137 43.0264 21.9569 43.0264C20.2002 43.0264 19.7267 45.0002 19.7267 45.0002H10.6642C10.6642 45.0002 10.3249 43.0264 8.45359 43.0264C6.58227 43.0264 6.30172 45.0002 6.30172 45.0002H0V14.3184Z" fill="#29328B"/>
<path id="Path 5" d="M44.9634 1.46094L45.0002 15.1155L38.2865 22.5619C38.2865 22.5619 38.0443 26.5544 39.6314 25.8599C41.2185 25.1655 41.2015 21.1086 41.2015 21.1086L44.9634 16.9329V24.0024V31.407L32.1431 44.3761V14.0429L44.9634 1.46094Z" fill="#477BF3"/>
</g>
</g>
</svg>
