<svg width="205" height="205" viewBox="0 0 205 205" fill="none" xmlns="http://www.w3.org/2000/svg">
<path d="M65.6057 0H202.992L142.227 59.2643H1.33008L65.6057 0Z" fill="#56DCBD"/>
<path d="M0 65.2275H58.8781C58.8781 65.2275 58.8781 80.3143 70.5518 80.3143C82.2256 80.3143 83.0346 65.2275 83.0346 65.2275H141.104V205H110.567C110.567 205 108.029 196.009 100.026 196.009C92.0228 196.009 89.866 205 89.866 205H48.5813C48.5813 205 47.0356 196.009 38.5107 196.009C29.9858 196.009 28.7078 205 28.7078 205H0V65.2275Z" fill="#F6F9FD"/>
<path d="M204.833 40.9998V6.65527L146.429 63.9729V148.055C151.014 143.666 158.008 149.651 154.381 154.86L146.429 166.277V202.157L204.833 143.076V109.344V61.4998C197.607 64.8887 191.006 55.8221 196.45 49.986L204.833 40.9998Z" fill="#477BF3"/>
</svg>
