<svg fill="none" height="45" viewBox="0 0 45 45" width="45" xmlns="http://www.w3.org/2000/svg"><path d="m14.4013 0h30.158l-13.3387 13.0093h-30.928608z" fill="#56dcbd"/><path d="m0 14.3184h12.9245s0 3.3117 2.5625 3.3117c2.5626 0 2.7401-3.3117 2.7401-3.3117h12.747v30.6818h-6.7033s-.5571-1.9738-2.3139-1.9738c-1.7567 0-2.2302 1.9738-2.2302 1.9738h-9.0625s-.3393-1.9738-2.21061-1.9738c-1.87132 0-2.15187 1.9738-2.15187 1.9738h-6.30172z" fill="#29328b"/><path d="m44.9634 9v-7.53906l-12.8203 12.58196v18.4571c1.0064-.9634 2.5418.3504 1.7455 1.4937l-1.7455 2.5063v7.8761l12.8203-12.9691v-7.4046-10.5024c-1.5862.7439-3.0353-1.2463-1.8402-2.5274z" fill="#477bf3"/></svg>