<svg fill="none" height="36" viewBox="0 0 106 36" width="106" xmlns="http://www.w3.org/2000/svg"><path d="m5.56 5.78v-3.34c0-.61-.22-1.14-.66-1.570001-.43-.429999-.96-.65-1.57-.65h-1.11c-.61 0-1.13.220001-1.57.65-.43.430001-.65.960001-.65 1.570001v3.34c0 .61.22 1.13.66 1.57.43.43.95.65 1.56.65h1.11c.61 0 1.14-.22 1.58-.65.43-.43.65-.96.65-1.57zm-1.12 0c0 .31-.11.57-.33.79-.21.21-.47.32-.78.32h-1.11c-.31 0-.57-.11-.79-.33-.21-.21-.32-.47-.32-.78v-3.34c0-.31.11-.57.33-.79.21-.21.47-.32.78-.32h1.11c.31 0 .57.11.79.33.21.21.32.47.32.78zm1.12 16.22v-7.78h-.84l-1.94 1.95-1.95-1.95h-.83v7.78h1.11v-5.83l1.11 1.11v2.39h1.11v-2.39l1.11-1.11v5.83zm0 11.78v-2.22h-2.23v1.11h1.11v1.11c0 .31-.11.57-.33.79-.21.21-.47.32-.78.32h-1.11c-.31 0-.57-.11-.79-.33-.21-.21-.32-.47-.32-.78v-3.34c0-.31.11-.57.33-.79.21-.21.47-.32.78-.32h1.11c.31 0 .57.11.79.33.21.21.32.47.32.78h1.12c0-.61-.22-1.14-.66-1.57-.43-.43-.96-.65-1.57-.65h-1.11c-.61 0-1.13.22-1.57.65-.43.43-.65.96-.65 1.57v3.34c0 .61.22 1.13.66 1.57.43.43.95.65 1.56.65h1.11c.61 0 1.14-.22 1.58-.65.43-.43.65-.96.65-1.57z" fill="#477bf3"/><path d="m14.6205 2.44c0-.61-.22-1.14-.65-1.570001-.43-.429999-.96-.65-1.58-.65h-3.32995v7.780001h1.10995v-3.33h2.22c.61 0 1.14-.22 1.58-.66.43-.43.65-.96.65-1.57zm-1.12 0c0 .31-.11.57-.33.79-.21.22-.47.33-.78.33h-2.22v-2.23h2.22c.31 0 .57.11.79.33.21.21.32.47.32.78zm10.1806 5.56v-1.11h-4.45v-2.22h3.33v-1.11h-3.33v-2.23h4.45v-1.110001h-5.56v7.780001zm9.0605 0v-7.780001h-1.12v3.680001l-3.67-3.680001h-.77v7.780001h1.11v-5.9l3.33 3.33v2.57zm-18.1211 14v-1.11h-2.23v-5.56h2.23v-1.11h-5.55995v1.11h2.21995v5.56h-2.21995v1.11zm9.0606-2.22h-1.12c0 .31-.11.57-.33.79-.21.21-.47.32-.78.32h-1.11c-.31 0-.57-.11-.79-.33-.21-.21-.32-.47-.32-.78v-3.34c0-.31.11-.57.33-.79.21-.21.47-.32.78-.32h1.11c.31 0 .57.11.79.33.21.21.32.47.32.78h1.12c0-.61-.22-1.14-.66-1.57-.43-.43-.96-.65-1.57-.65h-1.11c-.61 0-1.13.22-1.57.65-.43.43-.65.96-.65 1.57v3.34c0 .61.22 1.13.66 1.57.43.43.95.65 1.56.65h1.11c.61 0 1.14-.22 1.58-.65.43-.43.65-.96.65-1.57zm7.9405 2.22h1.12v-2.22c0-.67-.32-1.22-.95-1.67.64-.45.95-1.01.95-1.67 0-.61-.22-1.14-.66-1.57-.43-.43-.96-.65-1.57-.65h-3.33v7.78h1.11v-3.33h2.22c.31 0 .58.11.8.33.21.21.32.47.32.78-.01.97-.01 1.71-.01 2.22zm-3.33-4.44v-2.23h2.22c.31 0 .57.11.79.33.21.21.32.47.32.78s-.11.58-.33.8c-.21.21-.47.32-.78.32zm13.5106 2.22v-3.34c0-.61-.22-1.14-.66-1.57-.43-.43-.96-.65-1.57-.65h-1.11c-.61 0-1.13.22-1.57.65-.43.43-.65.96-.65 1.57v3.34c0 .61.22 1.13.66 1.57.43.43.95.65 1.56.65h1.11c.61 0 1.14-.22 1.58-.65.43-.43.65-.96.65-1.57zm-1.12 0c0 .31-.11.57-.33.79-.21.21-.47.32-.78.32h-1.11c-.31 0-.57-.11-.79-.33-.21-.21-.32-.47-.32-.78v-3.34c0-.31.11-.57.33-.79.21-.21.47-.32.78-.32h1.11c.31 0 .57.11.79.33.21.21.32.47.32.78zm10.1805 0c0-.61-.22-1.14-.66-1.57-.43-.43-.96-.65-1.57-.65h-1.11c-.31 0-.57-.11-.79-.33-.21-.22-.32-.48-.32-.79s.11-.57.33-.79c.21-.21.47-.32.78-.32h1.11c.31 0 .57.11.79.33.21.21.32.47.32.78h1.12c0-.61-.22-1.14-.66-1.57-.43-.43-.96-.65-1.57-.65h-1.11c-.61 0-1.13.22-1.57.65-.43.43-.65.96-.65 1.57s.22 1.14.65 1.58c.43.43.96.65 1.57.65h1.11c.31 0 .57.11.79.33.21.21.32.47.32.78s-.11.57-.33.79c-.21.21-.47.32-.78.32h-1.11c-.31 0-.57-.11-.79-.33-.21-.21-.32-.47-.32-.78h-1.11c0 .61.22 1.13.66 1.57.43.43.95.65 1.56.65h1.11c.61 0 1.14-.22 1.58-.65.43-.43.65-.96.65-1.57zm9.0606 2.22v-1.11h-4.45v-2.22h3.33v-1.11h-3.33v-2.23h4.45v-1.11h-5.56v7.78zm7.9405 0h1.12v-2.22c0-.67-.32-1.22-.95-1.67.64-.45.95-1.01.95-1.67 0-.61-.22-1.14-.66-1.57-.43-.43-.96-.65-1.57-.65h-3.33v7.78h1.11v-3.33h2.22c.31 0 .58.11.8.33.21.21.32.47.32.78-.01.97-.01 1.71-.01 2.22zm-3.33-4.44v-2.23h2.22c.31 0 .57.11.79.33.21.21.32.47.32.78s-.11.58-.33.8c-.21.21-.47.32-.78.32zm13.5106-1.12v-2.22h-1.12v1.95l-1.66 3.89-1.67-3.87v-1.97h-1.11v2.22l2.37 5.56h.82zm9.0605 5.56v-1.11h-2.23v-5.56h2.23v-1.11h-5.56v1.11h2.22v5.56h-2.22v1.11zm9.0606-2.22h-1.12c0 .31-.11.57-.33.79-.21.21-.47.32-.78.32h-1.11c-.31 0-.57-.11-.79-.33-.21-.21-.32-.47-.32-.78v-3.34c0-.31.11-.57.33-.79.21-.21.47-.32.78-.32h1.11c.31 0 .57.11.79.33.21.21.32.47.32.78h1.12c0-.61-.22-1.14-.66-1.57-.43-.43-.96-.65-1.57-.65h-1.11c-.61 0-1.13.22-1.57.65-.43.43-.65.96-.65 1.57v3.34c0 .61.22 1.13.66 1.57.43.43.95.65 1.56.65h1.11c.61 0 1.14-.22 1.58-.65.43-.43.65-.96.65-1.57zm9.0605 2.22v-1.11h-4.45v-2.22h3.33v-1.11h-3.33v-2.23h4.45v-1.11h-5.56v7.78zm-90.6055 11.78v-5.56h-1.12v5.56c0 .31-.11.57-.33.79-.21.21-.47.32-.78.32h-1.11c-.31 0-.57-.11-.79-.33-.21-.21-.32-.47-.32-.78v-5.56h-1.10995v5.56c0 .61.22 1.13.66 1.57.42995.43.94995.65 1.55995.65h1.11c.61 0 1.14-.22 1.58-.65.43-.43.65-.96.65-1.57zm9.0606 2.22v-1.11h-2.23v-5.56h2.23v-1.11h-5.56v1.11h2.22v5.56h-2.22v1.11zm9.0605-2.22v-3.34c0-.61-.22-1.14-.66-1.57-.43-.43-.96-.65-1.57-.65h-3.33v7.78h3.33c.61 0 1.14-.22 1.58-.65.43-.43.65-.96.65-1.57zm-1.12 0c0 .31-.11.57-.33.79-.21.21-.47.32-.78.32h-2.22v-5.56h2.22c.31 0 .57.11.79.33.21.21.32.47.32.78zm10.1806 2.22v-1.11h-4.45v-2.22h3.33v-1.11h-3.33v-2.23h4.45v-1.11h-5.56v7.78z" fill="#29328b"/></svg>