<?xml version="1.0" encoding="UTF-8"?>
<svg width="148px" height="148px" viewBox="0 0 148 148" version="1.1" xmlns="http://www.w3.org/2000/svg" xmlns:xlink="http://www.w3.org/1999/xlink">
    <!-- Generator: Sketch 52 (66869) - http://www.bohemiancoding.com/sketch -->
    <title>Group 4 Copy 10</title>
    <desc>Created with Sketch.</desc>
    <g id="OMS-" stroke="none" stroke-width="1" fill="none" fill-rule="evenodd">
        <g id="Group-4-Copy-10" fill-rule="nonzero">
            <g id="Group-3">
                <polygon id="Rectangle" fill="#76DAC2" points="47.3649577 0 146.551057 0 102.681682 42.78599 0.961038961 42.78599"></polygon>
                <path d="M0,47.0909091 L42.5071523,47.0909091 C42.5071523,54.352167 45.3164565,57.982796 50.9350649,57.982796 C56.5536734,57.982796 59.5576476,54.352167 59.9469877,47.0909091 L101.87013,47.0909091 L101.87013,148 L79.8239487,148 C78.6024493,143.67233 76.065757,141.508496 72.2138718,141.508496 C68.3619866,141.508496 65.9170161,143.67233 64.8789604,148 L35.0733628,148 C34.3294344,143.67233 31.905948,141.508496 27.8029038,141.508496 C23.6998596,141.508496 21.3407718,143.67233 20.7256404,148 L0,148 L0,47.0909091 Z" id="Rectangle" fill="#CECECE"></path>
                <path d="M147.878857,4.80519481 L148,49.7134063 L125.919408,74.2039436 C125.388232,82.9576723 126.862614,86.5732479 130.342557,85.0506703 C133.822499,83.5280928 135.543811,78.31925 135.506494,69.424142 L147.878857,55.6906037 L147.878857,78.9415872 L147.878857,103.29439 L105.714286,145.948076 L105.714286,46.1857438 L147.878857,4.80519481 Z" id="Path-5" fill="#374AF5"></path>
            </g>
        </g>
    </g>
</svg>